{
.appVersion = "1346";
DisplayStrings = (
"/hungarumlautcomb/uhungarumlaut",
"/Ohungarumlaut/Uhungarumlaut/ohungarumlaut/uhungarumlaut",
"/commaaccentcomb"
);
classes = (
{
automatic = 1;
code = "A Aacute Abreve Acircumflex Adieresis Agrave Amacron Aogonek Aring Atilde AE B C Cacute Ccaron Ccedilla Cdotaccent D Eth Dcaron Dcroat E Eacute Ecaron Ecircumflex Edieresis Edotaccent Egrave Emacron Eogonek F G Gbreve Gcommaaccent Gdotaccent H Hbar I Iacute Icircumflex Idieresis Idotaccent Igrave Imacron Iogonek J K Kcommaaccent L Lacute Lcaron Lcommaaccent Lslash M N Nacute Ncaron Ncommaaccent Eng Ntilde O Oacute Ocircumflex Odieresis Ograve Ohungarumlaut Omacron Oslash Otilde OE P Thorn Q R Racute Rcaron Rcommaaccent S Sacute Scaron Scedilla Scommaaccent Germandbls T Tbar Tcaron Tcedilla Tcommaaccent U Uacute Ucircumflex Udieresis Ugrave Uhungarumlaut Umacron Uogonek Uring V W Wacute Wcircumflex Wdieresis Wgrave X Y Yacute Ycircumflex Ydieresis Ygrave Z Zacute Zcaron Zdotaccent A-cy Be-cy Ve-cy Ge-cy Gje-cy Gheupturn-cy De-cy Ie-cy Iegrave-cy Io-cy Zhe-cy Ze-cy Ii-cy Iishort-cy Iigrave-cy Ka-cy Kje-cy El-cy Em-cy En-cy O-cy Pe-cy Er-cy Es-cy Te-cy U-cy Ushort-cy Ef-cy Ha-cy Che-cy Tse-cy Sha-cy Shcha-cy Dzhe-cy Softsign-cy Hardsign-cy Yeru-cy Lje-cy Nje-cy Dze-cy E-cy Ereversed-cy I-cy Yi-cy Je-cy Tshe-cy Iu-cy Ia-cy Dje-cy Ustrait-cy Shha-cy Obarred-cy De-cy.loclBGR Zhe-cy.loclBGR Ka-cy.loclBGR El-cy.loclBGR Alpha Beta Gamma Delta Epsilon Zeta Eta Theta Iota Kappa Lambda Mu Nu Xi Omicron Pi Rho Sigma Tau Upsilon Phi Chi Psi Omega Alphatonos Epsilontonos Etatonos Iotatonos Omicrontonos Upsilontonos Omegatonos Iotadieresis Upsilondieresis";
name = Uppercase;
},
{
automatic = 1;
code = "zero one two three four five six seven eight nine";
name = Digit;
}
);
copyright = "Copyright (c) 2020 Wayne Shih";
customParameters = (
{
name = license;

glyphs = (
{
glyphname = A;
lastChange = "2020-02-20 18:21:12 +0000";
layers = (
{
layerId = "CAA188E2-8C62-414B-93AE-B576BEB044DB";
paths = (
{
closed = 1;
nodes = (
"130 0 LINE",
"638 1402 LINE",
"578 1402 LINE",
"1088 0 LINE",
"1178 0 LINE",
"654 1440 LINE",
"564 1440 LINE",
"40 0 LINE"
);
},
{
closed = 1;
nodes = (
"976 374 LINE",
"976 454 LINE",
"240 454 LINE",
"240 374 LINE"
);
}
);
width = 1218;
},
{
layerId = "0DA27741-1AFD-43F2-A947-40AFBF8D6498";
paths = (
{
closed = 1;
nodes = (
"320 0 LINE",
"706 1270 LINE",
"654 1270 LINE",
"1046 0 LINE",
"1326 0 LINE",
"886 1440 LINE",
"480 1440 LINE",
"40 0 LINE"
);
},
{
closed = 1;
nodes = (
"1064 300 LINE",
"1064 554 LINE",
"304 554 LINE",
"304 300 LINE"
);
}
);
width = 1366;
},
{
associatedMasterId = "0DA27741-1AFD-43F2-A947-40AFBF8D6498";
layerId = "A2873047-0ED6-4C67-9B4D-3870B51BD5C6";
paths = (
{
closed = 1;
nodes = (
"10 0 LINE",
"310 0 LINE",
"366 180 LINE",
"952 180 LINE",
"1008 0 LINE",
"1308 0 LINE",
"868 1440 LINE",
"450 1440 LINE"
);
},
{
closed = 1;
nodes = (
"660 1140 LINE",
"862 480 LINE",
"458 480 LINE"
);
}
);
width = 1318;
},
{
associatedMasterId = "0DA27741-1AFD-43F2-A947-40AFBF8D6498";
layerId = "55314CA7-5524-4D70-B802-98D4FAE25636";
width = 986;
},
{
associatedMasterId = "0DA27741-1AFD-43F2-A947-40AFBF8D6498";
layerId = "13A3DD5D-E91B-4961-8595-F8141D3FA442";
width = 1264;
}
);
leftKerningGroup = A;
note = A;
rightKerningGroup = A;
unicode = 0041;
},
{
glyphname = AE;
lastChange = "2020-08-02 04:54:55 +0000";
layers = (
{
components = (
{
name = E;
transform = "{1, 0, 0, 1, 690, 0}";
}
);
layerId = "CAA188E2-8C62-414B-93AE-B576BEB044DB";
paths = (
{
closed = 1;
nodes = (
"130 0 LINE",
"636 1398 LINE",
"572 1356 LINE",
"870 1356 LINE",
"870 1440 LINE",
"564 1440 LINE",
"40 0 LINE"
);
},
{
closed = 1;
nodes = (
"876 374 LINE",
"876 454 LINE",
"240 454 LINE",
"240 374 LINE"
);
}
);
width = 1810;
},
{
components = (
{
name = E;
transform = "{1, 0, 0, 1, 710, 0}";
}
);
layerId = "0DA27741-1AFD-43F2-A947-40AFBF8D6498";
paths = (
{
closed = 1;
nodes = (
"320 0 LINE",
"706 1272 LINE",
"590 1186 LINE",
"940 1186 LINE",
"940 1440 LINE",
"480 1440 LINE",
"40 0 LINE"
);
},
{
closed = 1;
nodes = (
"1064 300 LINE",
"1064 554 LINE",
"304 554 LINE",
"304 300 LINE"
);
}
);
width = 1890;
},
{
associatedMasterId = "0DA27741-1AFD-43F2-A947-40AFBF8D6498";
layerId = "A2873047-0ED6-4C67-9B4D-3870B51BD5C6";
width = 1200;
},
{
associatedMasterId = "0DA27741-1AFD-43F2-A947-40AFBF8D6498";
layerId = "55314CA7-5524-4D70-B802-98D4FAE25636";
width = 1876;
},
{
associatedMasterId = "0DA27741-1AFD-43F2-A947-40AFBF8D6498";
layerId = "13A3DD5D-E91B-4961-8595-F8141D3FA442";
width = 1308;
}
);
leftKerningGroup = A;
leftMetricsKey = A;
rightKerningGroup = E;
rightMetricsKey = E;
unicode = 00C6;
},
{
glyphname = B;
lastChange = "2020-02-20 18:21:12 +0000";
layers = (
{
background = {
paths = (
{
closed = 1;
nodes = (
"686 800 LINE SMOOTH",
"774 800 OFFCURVE",
"874 844 OFFCURVE",
"928 924 CURVE SMOOTH",
"964 976 OFFCURVE",
"982 1038 OFFCURVE",
"982 1100 CURVE SMOOTH",
"982 1168 OFFCURVE",
"956 1226 OFFCURVE",
"910 1272 CURVE SMOOTH",
"854 1328 OFFCURVE",
"774 1358 OFFCURVE",
"686 1358 CURVE",
"220 1358 LINE",
"220 1440 LINE",
"686 1440 LINE",
"804 1440 OFFCURVE",
"898 1398 OFFCURVE",
"976 1324 CURVE SMOOTH",
"1038 1264 OFFCURVE",
"1072 1164 OFFCURVE",
"1072 1080 CURVE SMOOTH",
"1072 1004 OFFCURVE",
"1046 934 OFFCURVE",
"1002 872 CURVE SMOOTH",
"934 776 OFFCURVE",
"830 718 OFFCURVE",
"696 718 CURVE",
"220 718 LINE",
"220 800 LINE"
);
},
{
closed = 1;
nodes = (
"684 84 LINE",
"806 84 OFFCURVE",
"884 102 OFFCURVE",
"974 188 CURVE SMOOTH",
"1028 240 OFFCURVE",
"1052 306 OFFCURVE",
"1052 380 CURVE SMOOTH",
"1052 450 OFFCURVE",
"1032 520 OFFCURVE",
"992 576 CURVE SMOOTH",
"936 664 OFFCURVE",
"816 718 OFFCURVE",
"724 718 CURVE",
"220 718 LINE",
"220 798 LINE",
"724 798 LINE",
"868 798 OFFCURVE",
"986 736 OFFCURVE",
"1062 630 CURVE SMOOTH",
"1118 560 OFFCURVE",
"1148 468 OFFCURVE",
"1142 380 CURVE SMOOTH",
"1136 292 OFFCURVE",
"1108 198 OFFCURVE",
"1052 136 CURVE SMOOTH",
"954 30 OFFCURVE",
"866 0 OFFCURVE",
"686 0 CURVE",
"180 0 LINE",
"180 84 LINE"
);
},
{
closed = 1;
nodes = (
"224 1440 LINE",
"224 0 LINE",
"140 0 LINE",
"140 1440 LINE"
);
}
);
};
layerId = "CAA188E2-8C62-414B-93AE-B576BEB044DB";
paths = (
{
closed = 1;
nodes = (
"724 0 LINE SMOOTH",
"958 0 OFFCURVE",
"1144 142 OFFCURVE",
"1144 388 CURVE SMOOTH",
"1144 592 OFFCURVE",
"1018 728 OFFCURVE",
"828 790 CURVE",
"832 742 LINE",
"976 794 OFFCURVE",
"1072 934 OFFCURVE",
"1072 1086 CURVE SMOOTH",
"1072 1296 OFFCURVE",
"894 1440 OFFCURVE",
"686 1440 CURVE SMOOTH",
"140 1440 LINE",
"140 0 LINE"
);
},
{
closed = 1;
nodes = (
"224 718 LINE",
"724 718 LINE SMOOTH",
"904 718 OFFCURVE",
"1052 568 OFFCURVE",
"1052 380 CURVE SMOOTH",
"1052 192 OFFCURVE",
"892 84 OFFCURVE",
"684 84 CURVE SMOOTH",
"224 84 LINE"
);
},
{
closed = 1;
nodes = (
"224 1358 LINE",
"686 1358 LINE SMOOTH",
"852 1358 OFFCURVE",
"982 1252 OFFCURVE",
"982 1092 CURVE SMOOTH",
"982 928 OFFCURVE",
"848 800 OFFCURVE",
"686 800 CURVE SMOOTH",
"224 800 LINE"
);
}
);
width = 1202;
},
{
background = {
paths = (
{
closed = 1;
nodes = (
"712 878 LINE SMOOTH",
"772 878 OFFCURVE",
"808 896 OFFCURVE",
"838 926 CURVE SMOOTH",
"866 954 OFFCURVE",
"872 992 OFFCURVE",
"872 1030 CURVE SMOOTH",
"872 1070 OFFCURVE",
"860 1112 OFFCURVE",
"828 1144 CURVE SMOOTH",
"798 1174 OFFCURVE",
"760 1186 OFFCURVE",
"712 1186 CURVE SMOOTH",
"390 1186 LINE",
"390 1440 LINE",
"714 1440 LINE SMOOTH",
"840 1440 OFFCURVE",
"936 1414 OFFCURVE",
"1022 1334 CURVE SMOOTH",
"1110 1252 OFFCURVE",
"1146 1150 OFFCURVE",
"1148 1030 CURVE SMOOTH",
"1150 926 OFFCURVE",
"1106 832 OFFCURVE",
"1044 782 CURVE SMOOTH",
"976 726 OFFCURVE",
"886 704 OFFCURVE",
"794 704 CURVE SMOOTH",
"350 704 LINE",
"350 878 LINE"
);
},
{
closed = 1;
nodes = (
"750 256 LINE SMOOTH",
"808 256 OFFCURVE",
"850 274 OFFCURVE",
"886 308 CURVE SMOOTH",
"922 342 OFFCURVE",
"940 388 OFFCURVE",
"940 440 CURVE SMOOTH",
"940 488 OFFCURVE",
"926 540 OFFCURVE",
"890 576 CURVE SMOOTH",
"848 618 OFFCURVE",
"792 624 OFFCURVE",
"750 624 CURVE SMOOTH",
"376 624 LINE",
"376 796 LINE",
"788 796 LINE SMOOTH",
"882 796 OFFCURVE",
"1014 776 OFFCURVE",
"1100 704 CURVE SMOOTH",
"1170 644 OFFCURVE",
"1214 540 OFFCURVE",
"1214 440 CURVE SMOOTH",
"1214 310 OFFCURVE",
"1180 190 OFFCURVE",
"1090 106 CURVE SMOOTH",
"1006 28 OFFCURVE",
"920 0 OFFCURVE",
"748 0 CURVE SMOOTH",
"376 0 LINE",
"376 256 LINE"
);
},
{
closed = 1;
nodes = (
"416 1440 LINE",
"416 0 LINE",
"140 0 LINE",
"140 1440 LINE"
);
}
);
};
layerId = "0DA27741-1AFD-43F2-A947-40AFBF8D6498";
paths = (
{
closed = 1;
nodes = (
"778 0 LINE SMOOTH",
"1072 0 OFFCURVE",
"1214 178 OFFCURVE",
"1214 436 CURVE SMOOTH",
"1214 596 OFFCURVE",
"1124 740 OFFCURVE",
"944 778 CURVE",
"944 728 LINE",
"1070 764 OFFCURVE",
"1148 874 OFFCURVE",
"1148 1036 CURVE SMOOTH",
"1148 1226 OFFCURVE",
"1024 1440 OFFCURVE",
"716 1440 CURVE SMOOTH",
"140 1440 LINE",
"140 0 LINE"
);
},
{
closed = 1;
nodes = (
"416 624 LINE",
"750 624 LINE SMOOTH",
"876 624 OFFCURVE",
"940 548 OFFCURVE",
"940 446 CURVE SMOOTH",
"940 330 OFFCURVE",
"860 256 OFFCURVE",
"750 256 CURVE SMOOTH",
"416 256 LINE"
);
},
{
closed = 1;
nodes = (
"416 1186 LINE",
"712 1186 LINE SMOOTH",
"816 1186 OFFCURVE",
"872 1118 OFFCURVE",
"872 1030 CURVE SMOOTH",
"872 924 OFFCURVE",
"804 878 OFFCURVE",
"712 878 CURVE SMOOTH",
"416 878 LINE"
);
}
);
width = 1274;
},
{
associatedMasterId = "0DA27741-1AFD-43F2-A947-40AFBF8D6498";
layerId = "A2873047-0ED6-4C67-9B4D-3870B51BD5C6";
width = 1200;
},
{
associatedMasterId = "0DA27741-1AFD-43F2-A947-40AFBF8D6498";
layerId = "55314CA7-5524-4D70-B802-98D4FAE25636";
width = 1212;
},
{
associatedMasterId = "0DA27741-1AFD-43F2-A947-40AFBF8D6498";
layerId = "13A3DD5D-E91B-4961-8595-F8141D3FA442";
width = 1202;
}
);
leftKerningGroup = B;
leftMetricsKey = H;
note = B;
rightKerningGroup = B;
unicode = 0042;
},
{
glyphname = C;
lastChange = "2020-02-20 18:21:12 +0000";
layers = (
{
layerId = "CAA188E2-8C62-414B-93AE-B576BEB044DB";
paths = (
{
closed = 1;
nodes = (
"1042 -30 OFFCURVE",
"1248 160 OFFCURVE",
"1320 452 CURVE",
"1232 472 LINE",
"1168 218 OFFCURVE",
"992 54 OFFCURVE",
"706 54 CURVE SMOOTH",
"336 54 OFFCURVE",
"146 330 OFFCURVE",
"150 720 CURVE SMOOTH",
"154 1110 OFFCURVE",
"336 1386 OFFCURVE",
"706 1386 CURVE SMOOTH",
"992 1386 OFFCURVE",
"1168 1222 OFFCURVE",
"1232 968 CURVE",
"1320 988 LINE",
"1248 1280 OFFCURVE",
"1042 1470 OFFCURVE",
"706 1470 CURVE SMOOTH",
"276 1470 OFFCURVE",
"60 1160 OFFCURVE",
"60 720 CURVE SMOOTH",
"60 280 OFFCURVE",
"276 -30 OFFCURVE",
"706 -30 CURVE SMOOTH"
);
}
);
width = 1400;
},
{
layerId = "0DA27741-1AFD-43F2-A947-40AFBF8D6498";
paths = (
{
closed = 1;
nodes = (
"1088 -30 OFFCURVE",
"1320 146 OFFCURVE",
"1412 426 CURVE",
"1138 502 LINE",
"1084 328 OFFCURVE",
"958 226 OFFCURVE",
"758 226 CURVE SMOOTH",
"484 226 OFFCURVE",
"346 420 OFFCURVE",
"346 720 CURVE SMOOTH",
"346 1020 OFFCURVE",
"484 1214 OFFCURVE",
"758 1214 CURVE SMOOTH",
"958 1214 OFFCURVE",
"1084 1112 OFFCURVE",
"1138 938 CURVE",
"1412 1014 LINE",
"1320 1294 OFFCURVE",
"1088 1470 OFFCURVE",
"758 1470 CURVE SMOOTH",
"326 1470 OFFCURVE",
"60 1168 OFFCURVE",
"60 720 CURVE SMOOTH",
"60 272 OFFCURVE",
"326 -30 OFFCURVE",
"758 -30 CURVE SMOOTH"
);
}
);
width = 1492;
},
{
associatedMasterId = "0DA27741-1AFD-43F2-A947-40AFBF8D6498";
layerId = "A2873047-0ED6-4C67-9B4D-3870B51BD5C6";
width = 1200;
},
{
associatedMasterId = "0DA27741-1AFD-43F2-A947-40AFBF8D6498";
layerId = "55314CA7-5524-4D70-B802-98D4FAE25636";
width = 1436;
},
{
associatedMasterId = "0DA27741-1AFD-43F2-A947-40AFBF8D6498";
layerId = "13A3DD5D-E91B-4961-8595-F8141D3FA442";
width = 1238;
}
);
leftKerningGroup = C;
leftMetricsKey = O;
note = C;
rightKerningGroup = C;
unicode = 0043;
},
{
glyphname = D;
lastChange = "2020-02-20 18:21:12 +0000";
layers = (
{
background = {
paths = (
{
closed = 1;
nodes = (
"562 0 LINE SMOOTH",
"594 0 OFFCURVE",
"686 0 OFFCURVE",
"754 10 CURVE SMOOTH",
"1072 56 OFFCURVE",
"1224 350 OFFCURVE",
"1224 720 CURVE SMOOTH",
"1224 1088 OFFCURVE",
"1072 1384 OFFCURVE",
"754 1430 CURVE SMOOTH",
"684 1440 OFFCURVE",
"596 1440 OFFCURVE",
"562 1440 CURVE SMOOTH",
"140 1440 LINE",
"140 0 LINE"
);
},
{
closed = 1;
nodes = (
"230 1356 LINE",
"562 1356 LINE SMOOTH",
"626 1356 OFFCURVE",
"696 1352 OFFCURVE",
"740 1344 CURVE SMOOTH",
"1024 1296 OFFCURVE",
"1134 1048 OFFCURVE",
"1134 720 CURVE SMOOTH",
"1134 392 OFFCURVE",
"1024 144 OFFCURVE",
"740 96 CURVE SMOOTH",
"696 88 OFFCURVE",
"626 84 OFFCURVE",
"562 84 CURVE SMOOTH",
"230 84 LINE"
);
}
);
};
layerId = "CAA188E2-8C62-414B-93AE-B576BEB044DB";
paths = (
{
closed = 1;
nodes = (
"562 0 LINE SMOOTH",
"594 0 OFFCURVE",
"686 0 OFFCURVE",
"754 10 CURVE SMOOTH",
"1072 56 OFFCURVE",
"1224 350 OFFCURVE",
"1224 720 CURVE SMOOTH",
"1224 1088 OFFCURVE",
"1072 1384 OFFCURVE",
"754 1430 CURVE SMOOTH",
"684 1440 OFFCURVE",
"596 1440 OFFCURVE",
"562 1440 CURVE SMOOTH",
"140 1440 LINE",
"140 0 LINE"
);
},
{
closed = 1;
nodes = (
"230 1356 LINE",
"562 1356 LINE SMOOTH",
"622 1356 OFFCURVE",
"696 1352 OFFCURVE",
"740 1344 CURVE SMOOTH",
"1024 1296 OFFCURVE",
"1134 1048 OFFCURVE",
"1134 720 CURVE SMOOTH",
"1134 392 OFFCURVE",
"1024 144 OFFCURVE",
"740 96 CURVE SMOOTH",
"696 88 OFFCURVE",
"626 84 OFFCURVE",
"562 84 CURVE SMOOTH",
"230 84 LINE"
);
}
);
width = 1304;
},
{
background = {
paths = (
{
closed = 1;
nodes = (
"606 0 LINE SMOOTH",
"628 0 OFFCURVE",
"712 0 OFFCURVE",
"778 8 CURVE SMOOTH",
"1126 50 OFFCURVE",
"1320 354 OFFCURVE",
"1320 720 CURVE SMOOTH",
"1320 1086 OFFCURVE",
"1126 1390 OFFCURVE",
"778 1432 CURVE SMOOTH",
"712 1440 OFFCURVE",
"628 1440 OFFCURVE",
"606 1440 CURVE SMOOTH",
"140 1440 LINE",
"140 0 LINE"
);
},
{
closed = 1;
nodes = (
"416 1184 LINE",
"606 1184 LINE SMOOTH",
"642 1184 OFFCURVE",
"712 1184 OFFCURVE",
"762 1174 CURVE SMOOTH",
"944 1138 OFFCURVE",
"1032 936 OFFCURVE",
"1032 720 CURVE SMOOTH",
"1032 514 OFFCURVE",
"950 304 OFFCURVE",
"762 266 CURVE SMOOTH",
"712 256 OFFCURVE",
"642 256 OFFCURVE",
"606 256 CURVE SMOOTH",
"416 256 LINE"
);
}
);
};
layerId = "0DA27741-1AFD-43F2-A947-40AFBF8D6498";
paths = (
{
closed = 1;
nodes = (
"606 0 LINE SMOOTH",
"628 0 OFFCURVE",
"712 0 OFFCURVE",
"778 8 CURVE SMOOTH",
"1126 50 OFFCURVE",
"1320 354 OFFCURVE",
"1320 720 CURVE SMOOTH",
"1320 1086 OFFCURVE",
"1126 1390 OFFCURVE",
"778 1432 CURVE SMOOTH",
"712 1440 OFFCURVE",
"628 1440 OFFCURVE",
"606 1440 CURVE SMOOTH",
"140 1440 LINE",
"140 0 LINE"
);
},
{
closed = 1;
nodes = (
"416 1184 LINE",
"606 1184 LINE SMOOTH",
"642 1184 OFFCURVE",
"712 1184 OFFCURVE",
"762 1174 CURVE SMOOTH",
"944 1138 OFFCURVE",
"1032 936 OFFCURVE",
"1032 720 CURVE SMOOTH",
"1032 514 OFFCURVE",
"950 304 OFFCURVE",
"762 266 CURVE SMOOTH",
"712 256 OFFCURVE",
"642 256 OFFCURVE",
"606 256 CURVE SMOOTH",
"416 256 LINE"
);
}
);
width = 1420;
},
{
associatedMasterId = "0DA27741-1AFD-43F2-A947-40AFBF8D6498";
layerId = "A2873047-0ED6-4C67-9B4D-3870B51BD5C6";
width = 1200;
},
{
associatedMasterId = "0DA27741-1AFD-43F2-A947-40AFBF8D6498";
layerId = "55314CA7-5524-4D70-B802-98D4FAE25636";
width = 1326;
},
{
associatedMasterId = "0DA27741-1AFD-43F2-A947-40AFBF8D6498";
layerId = "13A3DD5D-E91B-4961-8595-F8141D3FA442";
width = 1220;
}
);
leftMetricsKey = H;
note = D;
rightKerningGroup = D;
unicode = 0044;
},
{
glyphname = Eth;
lastChange = "2020-02-20 18:21:12 +0000";
layers = (
{
components = (
{
name = D;
transform = "{1, 0, 0, 1, -22, 0}";
}
);
layerId = "CAA188E2-8C62-414B-93AE-B576BEB044DB";
paths = (
{
closed = 1;
nodes = (
"620 678 LINE",
"620 762 LINE",
"20 762 LINE",
"20 678 LINE"
);
}
);
width = 1282;
},
{
components = (
{
name = D;
transform = "{1, 0, 0, 1, 8, 0}";
}
);
layerId = "0DA27741-1AFD-43F2-A947-40AFBF8D6498";
paths = (
{
closed = 1;
nodes = (
"710 616 LINE",
"710 826 LINE",
"20 826 LINE",
"20 616 LINE"
);
}
);
width = 1428;
},
{
associatedMasterId = "0DA27741-1AFD-43F2-A947-40AFBF8D6498";
layerId = "A2873047-0ED6-4C67-9B4D-3870B51BD5C6";
width = 1200;
},
{
associatedMasterId = "0DA27741-1AFD-43F2-A947-40AFBF8D6498";
layerId = "55314CA7-5524-4D70-B802-98D4FAE25636";
width = 1422;
},
{
associatedMasterId = "0DA27741-1AFD-43F2-A947-40AFBF8D6498";
layerId = "13A3DD5D-E91B-4961-8595-F8141D3FA442";
width = 1236;
}
);
leftKerningGroup = D;
leftMetricsKey = t;
rightKerningGroup = D;
rightMetricsKey = D;
unicode = 00D0;
},
{
glyphname = E;
lastChange = "2020-02-22 07:59:31 +0000";
layers = (
{
layerId = "CAA188E2-8C62-414B-93AE-B576BEB044DB";
paths = (
{
closed = 1;
nodes = (
"1020 0 LINE",
"1020 84 LINE",
"224 84 LINE",
"224 678 LINE",
"900 678 LINE",
"900 762 LINE",
"224 762 LINE",
"224 1356 LINE",
"1020 1356 LINE",
"1020 1440 LINE",
"140 1440 LINE",
"140 0 LINE"
);
}
);
width = 1120;
},
{
layerId = "0DA27741-1AFD-43F2-A947-40AFBF8D6498";
paths = (
{
closed = 1;
nodes = (
"1080 0 LINE",
"1080 254 LINE",
"412 254 LINE",
"412 624 LINE",
"960 624 LINE",
"960 878 LINE",
"412 878 LINE",
"412 1186 LINE",
"1080 1186 LINE",
"1080 1440 LINE",
"140 1440 LINE",
"140 0 LINE"
);
}
);
width = 1180;
},
{
associatedMasterId = "0DA27741-1AFD-43F2-A947-40AFBF8D6498";
layerId = "A2873047-0ED6-4C67-9B4D-3870B51BD5C6";
width = 1200;
},
{
associatedMasterId = "0DA27741-1AFD-43F2-A947-40AFBF8D6498";
layerId = "55314CA7-5524-4D70-B802-98D4FAE25636";
width = 1126;
},
{
associatedMasterId = "0DA27741-1AFD-43F2-A947-40AFBF8D6498";
layerId = "13A3DD5D-E91B-4961-8595-F8141D3FA442";
width = 1188;
}
);
leftKerningGroup = E;
leftMetricsKey = H;
note = E;
rightKerningGroup = E;
unicode = 0045;
},
{
glyphname = F;
lastChange = "2020-02-20 18:21:12 +0000";
layers = (
{
layerId = "CAA188E2-8C62-414B-93AE-B576BEB044DB";
paths = (
{
closed = 1;
nodes = (
"224 0 LINE",
"224 678 LINE",
"820 678 LINE",
"820 762 LINE",
"224 762 LINE",
"224 1356 LINE",
"940 1356 LINE",
"940 1440 LINE",
"140 1440 LINE",
"140 0 LINE"
);
}
);
width = 980;
},
{
layerId = "0DA27741-1AFD-43F2-A947-40AFBF8D6498";
paths = (
{
closed = 1;
nodes = (
"412 0 LINE",
"412 584 LINE",
"900 584 LINE",
"900 856 LINE",
"412 856 LINE",
"412 1168 LINE",
"1020 1168 LINE",
"1020 1440 LINE",
"140 1440 LINE",
"140 0 LINE"
);
}
);
width = 1060;
},
{
associatedMasterId = "0DA27741-1AFD-43F2-A947-40AFBF8D6498";
layerId = "A2873047-0ED6-4C67-9B4D-3870B51BD5C6";
width = 1200;
},
{
associatedMasterId = "0DA27741-1AFD-43F2-A947-40AFBF8D6498";
layerId = "55314CA7-5524-4D70-B802-98D4FAE25636";
width = 1000;
},
{
associatedMasterId = "0DA27741-1AFD-43F2-A947-40AFBF8D6498";
layerId = "13A3DD5D-E91B-4961-8595-F8141D3FA442";
width = 1168;
}
);
leftMetricsKey = H;
note = F;
unicode = 0046;
},
{
glyphname = G;
lastChange = "2020-08-02 05:08:48 +0000";
layers = (
{
layerId = "CAA188E2-8C62-414B-93AE-B576BEB044DB";
paths = (
{
closed = 1;
nodes = (
"1132 -30 OFFCURVE",
"1314 258 OFFCURVE",
"1314 634 CURVE SMOOTH",
"1314 652 OFFCURVE",
"1314 682 OFFCURVE",
"1310 720 CURVE",
"700 720 LINE",
"700 636 LINE",
"1224 636 LINE",
"1224 290 OFFCURVE",
"1076 54 OFFCURVE",
"706 54 CURVE SMOOTH",
"336 54 OFFCURVE",
"146 330 OFFCURVE",
"150 720 CURVE SMOOTH",
"154 1110 OFFCURVE",
"336 1384 OFFCURVE",
"706 1384 CURVE SMOOTH",
"932 1384 OFFCURVE",
"1092 1268 OFFCURVE",
"1162 1088 CURVE",
"1244 1122 LINE",
"1166 1326 OFFCURVE",
"980 1468 OFFCURVE",
"706 1468 CURVE SMOOTH",
"276 1468 OFFCURVE",
"60 1160 OFFCURVE",
"60 720 CURVE SMOOTH",
"60 280 OFFCURVE",
"276 -30 OFFCURVE",
"706 -30 CURVE SMOOTH"
);
}
);
width = 1374;
},
{
layerId = "0DA27741-1AFD-43F2-A947-40AFBF8D6498";
paths = (
{
closed = 1;
nodes = (
"1156 -30 OFFCURVE",
"1422 264 OFFCURVE",
"1422 678 CURVE SMOOTH",
"1422 684 OFFCURVE",
"1420 744 OFFCURVE",
"1418 762 CURVE",
"800 762 LINE",
"800 552 LINE",
"1128 552 LINE",
"1084 324 OFFCURVE",
"944 222 OFFCURVE",
"758 226 CURVE SMOOTH",
"484 230 OFFCURVE",
"348 420 OFFCURVE",
"348 720 CURVE SMOOTH",
"348 1020 OFFCURVE",
"484 1218 OFFCURVE",
"758 1214 CURVE SMOOTH",
"942 1212 OFFCURVE",
"1045 1110 OFFCURVE",
"1097 975 CURVE",
"1375 1015 LINE",
"1303 1295 OFFCURVE",
"1110 1470 OFFCURVE",
"740 1470 CURVE SMOOTH",
"364 1470 OFFCURVE",
"60 1198 OFFCURVE",
"60 720 CURVE SMOOTH",
"60 232 OFFCURVE",
"376 -30 OFFCURVE",
"740 -30 CURVE SMOOTH"
);
}
);
width = 1482;
},
{
associatedMasterId = "0DA27741-1AFD-43F2-A947-40AFBF8D6498";
layerId = "A2873047-0ED6-4C67-9B4D-3870B51BD5C6";
width = 1200;
},
{
associatedMasterId = "0DA27741-1AFD-43F2-A947-40AFBF8D6498";
layerId = "55314CA7-5524-4D70-B802-98D4FAE25636";
width = 1466;
},
{
associatedMasterId = "0DA27741-1AFD-43F2-A947-40AFBF8D6498";
layerId = "13A3DD5D-E91B-4961-8595-F8141D3FA442";
width = 1242;
}
);
leftKerningGroup = O;
leftMetricsKey = O;
note = G;
rightKerningGroup = G;
rightMetricsKey = O;
unicode = 0047;
},
{
glyphname = H;
lastChange = "2020-02-20 18:21:12 +0000";
layers = (
{
layerId = "CAA188E2-8C62-414B-93AE-B576BEB044DB";
paths = (
{
closed = 1;
nodes = (
"224 0 LINE",
"224 678 LINE",
"1096 678 LINE",
"1096 0 LINE",
"1180 0 LINE",
"1180 1440 LINE",
"1096 1440 LINE",
"1096 762 LINE",
"224 762 LINE",
"224 1440 LINE",
"140 1440 LINE",
"140 0 LINE"
);
}
);
width = 1320;
},
{
layerId = "0DA27741-1AFD-43F2-A947-40AFBF8D6498";
paths = (
{
closed = 1;
nodes = (
"412 0 LINE",
"412 594 LINE",
"1056 594 LINE",
"1056 0 LINE",
"1328 0 LINE",
"1328 1440 LINE",
"1056 1440 LINE",
"1056 848 LINE",
"412 848 LINE",
"412 1440 LINE",
"140 1440 LINE",
"140 0 LINE"
);
}
);
width = 1468;
},
{
associatedMasterId = "0DA27741-1AFD-43F2-A947-40AFBF8D6498";
layerId = "A2873047-0ED6-4C67-9B4D-3870B51BD5C6";
width = 1200;
},
{
associatedMasterId = "0DA27741-1AFD-43F2-A947-40AFBF8D6498";
layerId = "55314CA7-5524-4D70-B802-98D4FAE25636";
width = 1450;
},
{
associatedMasterId = "0DA27741-1AFD-43F2-A947-40AFBF8D6498";
layerId = "13A3DD5D-E91B-4961-8595-F8141D3FA442";
width = 1240;
}
);
leftKerningGroup = M;
note = H;
rightKerningGroup = M;
unicode = 0048;
},
{
glyphname = Hbar;
lastChange = "2020-02-20 18:21:12 +0000";
layers = (
{
layerId = "CAA188E2-8C62-414B-93AE-B576BEB044DB";
paths = (
{
closed = 1;
nodes = (
"244 0 LINE",
"244 678 LINE",
"1116 678 LINE",
"1116 0 LINE",
"1200 0 LINE",
"1200 1440 LINE",
"1116 1440 LINE",
"1116 762 LINE",
"244 762 LINE",
"244 1440 LINE",
"160 1440 LINE",
"160 0 LINE"
);
},
{
closed = 1;
nodes = (
"1340 996 LINE",
"1340 1080 LINE",
"20 1080 LINE",
"20 996 LINE"
);
}
);
width = 1360;
},
{
layerId = "0DA27741-1AFD-43F2-A947-40AFBF8D6498";
paths = (
{
closed = 1;
nodes = (
"432 0 LINE",
"432 594 LINE",
"1076 594 LINE",
"1076 0 LINE",
"1348 0 LINE",
"1348 1440 LINE",
"1076 1440 LINE",
"1076 848 LINE",
"432 848 LINE",
"432 1440 LINE",
"160 1440 LINE",
"160 0 LINE"
);
},
{
closed = 1;
nodes = (
"1488 988 LINE",
"1488 1242 LINE",
"20 1242 LINE",
"20 988 LINE"
);
}
);
width = 1508;
},
{
associatedMasterId = "0DA27741-1AFD-43F2-A947-40AFBF8D6498";
layerId = "A2873047-0ED6-4C67-9B4D-3870B51BD5C6";
width = 1200;
},
{
associatedMasterId = "0DA27741-1AFD-43F2-A947-40AFBF8D6498";
layerId = "55314CA7-5524-4D70-B802-98D4FAE25636";
width = 1450;
},
{
associatedMasterId = "0DA27741-1AFD-43F2-A947-40AFBF8D6498";
layerId = "13A3DD5D-E91B-4961-8595-F8141D3FA442";
width = 1240;
}
);
leftKerningGroup = H;
rightKerningGroup = H;
unicode = 0126;
},
{
glyphname = I;
lastChange = "2020-02-20 18:21:12 +0000";
layers = (
{
layerId = "CAA188E2-8C62-414B-93AE-B576BEB044DB";
paths = (
{
closed = 1;
nodes = (
"244 0 LINE",
"244 1440 LINE",
"160 1440 LINE",
"160 0 LINE"
);
}
);
width = 404;
},
{
hints = (
{
horizontal = 1;
origin = "{0, 3}";
target = up;
type = BottomGhost;
},
{
horizontal = 1;
origin = "{0, 2}";
target = down;
type = TopGhost;
},
{
place = "{140, 280}";
type = Stem;
}
);
layerId = "0DA27741-1AFD-43F2-A947-40AFBF8D6498";
paths = (
{
closed = 1;
nodes = (
"432 0 LINE",
"432 1440 LINE",
"160 1440 LINE",
"160 0 LINE"
);
}
);
width = 592;
},
{
associatedMasterId = "0DA27741-1AFD-43F2-A947-40AFBF8D6498";
layerId = "A2873047-0ED6-4C67-9B4D-3870B51BD5C6";
width = 1200;
},
{
associatedMasterId = "0DA27741-1AFD-43F2-A947-40AFBF8D6498";
layerId = "55314CA7-5524-4D70-B802-98D4FAE25636";
width = 426;
},
{
associatedMasterId = "0DA27741-1AFD-43F2-A947-40AFBF8D6498";
layerId = "13A3DD5D-E91B-4961-8595-F8141D3FA442";
width = 1076;
}
);
leftKerningGroup = n;
note = I;
rightKerningGroup = u;
unicode = 0049;
},
{
glyphname = J;
lastChange = "2020-02-20 18:21:12 +0000";
layers = (
{
layerId = "CAA188E2-8C62-414B-93AE-B576BEB044DB";
paths = (
{
closed = 1;
nodes = (
"490 -28 OFFCURVE",
"606 30 OFFCURVE",
"670 142 CURVE SMOOTH",
"720 230 OFFCURVE",
"716 314 OFFCURVE",
"716 424 CURVE SMOOTH",
"716 1440 LINE",
"632 1440 LINE",
"632 424 LINE SMOOTH",
"632 320 OFFCURVE",
"632 252 OFFCURVE",
"596 186 CURVE SMOOTH",
"544 92 OFFCURVE",
"448 56 OFFCURVE",
"362 56 CURVE SMOOTH",
"222 56 OFFCURVE",
"116 148 OFFCURVE",
"86 270 CURVE",
"0 250 LINE",
"40 82 OFFCURVE",
"184 -28 OFFCURVE",
"358 -28 CURVE SMOOTH"
);
}
);
width = 878;
},
{
layerId = "0DA27741-1AFD-43F2-A947-40AFBF8D6498";
paths = (
{
closed = 1;
nodes = (
"600 -30 OFFCURVE",
"736 30 OFFCURVE",
"818 172 CURVE SMOOTH",
"874 268 OFFCURVE",
"866 342 OFFCURVE",
"866 480 CURVE SMOOTH",
"866 1440 LINE",
"590 1440 LINE",
"590 480 LINE SMOOTH",
"590 406 OFFCURVE",
"590 350 OFFCURVE",
"574 312 CURVE SMOOTH",
"548 250 OFFCURVE",
"480 224 OFFCURVE",
"430 224 CURVE SMOOTH",
"356 224 OFFCURVE",
"280 286 OFFCURVE",
"268 360 CURVE",
"0 296 LINE",
"62 96 OFFCURVE",
"212 -30 OFFCURVE",
"442 -30 CURVE SMOOTH"
);
}
);
width = 1026;
},
{
associatedMasterId = "0DA27741-1AFD-43F2-A947-40AFBF8D6498";
layerId = "A2873047-0ED6-4C67-9B4D-3870B51BD5C6";
width = 1200;
},
{
associatedMasterId = "0DA27741-1AFD-43F2-A947-40AFBF8D6498";
layerId = "55314CA7-5524-4D70-B802-98D4FAE25636";
width = 830;
},
{
associatedMasterId = "0DA27741-1AFD-43F2-A947-40AFBF8D6498";
layerId = "13A3DD5D-E91B-4961-8595-F8141D3FA442";
width = 1140;
}
);
leftKerningGroup = J;
note = J;
rightKerningGroup = J;
unicode = 004A;
},
{
glyphname = K;
lastChange = "2020-08-02 05:34:19 +0000";
layers = (
{
hints = (
{
horizontal = 1;
origin = "{2, 3}";
target = up;
type = BottomGhost;
},
{
horizontal = 1;
origin = "{2, 2}";
target = down;
type = TopGhost;
},
{
origin = "{2, 3}";
target = "{2, 0}";
type = Stem;
}
);
layerId = "CAA188E2-8C62-414B-93AE-B576BEB044DB";
paths = (
{
closed = 1;
nodes = (
"180 639 LINE",
"180 518 LINE",
"1052 1440 LINE",
"937 1440 LINE"
);
},
{
closed = 1;
nodes = (
"1116 0 LINE",
"460 828 LINE",
"386 782 LINE",
"1001 0 LINE"
);
},
{
closed = 1;
nodes = (
"224 0 LINE",
"224 1440 LINE",
"140 1440 LINE",
"140 0 LINE"
);
}
);
width = 1116;
},
{
hints = (
{
horizontal = 1;
origin = "{2, 3}";
target = up;
type = BottomGhost;
},
{
horizontal = 1;
origin = "{2, 2}";
target = down;
type = TopGhost;
},
{
place = "{270, 2}";
type = Stem;
}
);
layerId = "0DA27741-1AFD-43F2-A947-40AFBF8D6498";
paths = (
{
closed = 1;
nodes = (
"273 696 LINE",
"271 323 LINE",
"1292 1440 LINE",
"960 1440 LINE"
);
},
{
closed = 1;
nodes = (
"1330 0 LINE",
"676 799 LINE",
"423 696 LINE",
"993 0 LINE"
);
},
{
closed = 1;
nodes = (
"402 0 LINE",
"402 1440 LINE",
"140 1440 LINE",
"140 0 LINE"
);
}
);
width = 1330;
},
{
associatedMasterId = "0DA27741-1AFD-43F2-A947-40AFBF8D6498";
layerId = "A2873047-0ED6-4C67-9B4D-3870B51BD5C6";
width = 1200;
},
{
associatedMasterId = "0DA27741-1AFD-43F2-A947-40AFBF8D6498";
layerId = "55314CA7-5524-4D70-B802-98D4FAE25636";
width = 1168;
},
{
associatedMasterId = "0DA27741-1AFD-43F2-A947-40AFBF8D6498";
layerId = "13A3DD5D-E91B-4961-8595-F8141D3FA442";
width = 1194;
}
);
leftKerningGroup = H;
leftMetricsKey = H;
note = K;
rightKerningGroup = K;
unicode = 004B;
},
{
glyphname = L;
lastChange = "2020-02-20 18:21:12 +0000";
layers = (
{
layerId = "CAA188E2-8C62-414B-93AE-B576BEB044DB";
paths = (
{
closed = 1;
nodes = (
"960 0 LINE",
"960 84 LINE",
"244 84 LINE",
"244 1440 LINE",
"160 1440 LINE",
"160 0 LINE"
);
}
);
width = 990;
},
{
layerId = "0DA27741-1AFD-43F2-A947-40AFBF8D6498";
paths = (
{
closed = 1;
nodes = (
"1052 0 LINE",
"1052 254 LINE",
"432 254 LINE",
"432 1440 LINE",
"160 1440 LINE",
"160 0 LINE"
);
}
);
width = 1082;
},
{
associatedMasterId = "0DA27741-1AFD-43F2-A947-40AFBF8D6498";
layerId = "A2873047-0ED6-4C67-9B4D-3870B51BD5C6";
width = 1200;
},
{
associatedMasterId = "0DA27741-1AFD-43F2-A947-40AFBF8D6498";
layerId = "55314CA7-5524-4D70-B802-98D4FAE25636";
width = 862;
},
{
associatedMasterId = "0DA27741-1AFD-43F2-A947-40AFBF8D6498";
layerId = "13A3DD5D-E91B-4961-8595-F8141D3FA442";
width = 1146;
}
);
note = L;
rightKerningGroup = L;
unicode = 004C;
},
{
glyphname = M;
lastChange = "2020-02-20 18:21:12 +0000";
layers = (
{
layerId = "CAA188E2-8C62-414B-93AE-B576BEB044DB";
paths = (
{
closed = 1;
nodes = (
"224 0 LINE",
"224 1238 LINE",
"784 0 LINE",
"878 0 LINE",
"1438 1238 LINE",
"1438 2 LINE",
"1522 2 LINE",
"1522 1440 LINE",
"1438 1440 LINE",
"832 102 LINE",
"220 1440 LINE",
"140 1440 LINE",
"140 0 LINE"
);
}
);
width = 1662;
},
{
layerId = "0DA27741-1AFD-43F2-A947-40AFBF8D6498";
paths = (
{
closed = 1;
nodes = (
"394 0 LINE",
"394 860 LINE",
"812 0 LINE",
"908 0 LINE",
"1326 860 LINE",
"1326 0 LINE",
"1580 0 LINE",
"1580 1440 LINE",
"1336 1440 LINE",
"860 484 LINE",
"384 1440 LINE",
"140 1440 LINE",
"140 0 LINE"
);
}
);
width = 1720;
},
{
associatedMasterId = "0DA27741-1AFD-43F2-A947-40AFBF8D6498";
layerId = "A2873047-0ED6-4C67-9B4D-3870B51BD5C6";
width = 1200;
},
{
associatedMasterId = "0DA27741-1AFD-43F2-A947-40AFBF8D6498";
layerId = "55314CA7-5524-4D70-B802-98D4FAE25636";
width = 1828;
},
{
associatedMasterId = "0DA27741-1AFD-43F2-A947-40AFBF8D6498";
layerId = "13A3DD5D-E91B-4961-8595-F8141D3FA442";
width = 1300;
}
);
leftKerningGroup = M;
leftMetricsKey = H;
note = M;
rightKerningGroup = M;
rightMetricsKey = H;
unicode = 004D;
},
{
glyphname = N;
lastChange = "2020-02-20 18:21:12 +0000";
layers = (
{
layerId = "CAA188E2-8C62-414B-93AE-B576BEB044DB";
paths = (
{
closed = 1;
nodes = (
"224 0 LINE",
"224 1292 LINE",
"1100 0 LINE",
"1184 0 LINE",
"1184 1440 LINE",
"1100 1440 LINE",
"1100 150 LINE",
"224 1440 LINE",
"140 1440 LINE",
"140 0 LINE"
);
}
);
width = 1324;
},
{
layerId = "0DA27741-1AFD-43F2-A947-40AFBF8D6498";
paths = (
{
closed = 1;
nodes = (
"416 0 LINE",
"416 960 LINE",
"1042 0 LINE",
"1318 0 LINE",
"1318 1440 LINE",
"1042 1440 LINE",
"1042 480 LINE",
"416 1440 LINE",
"140 1440 LINE",
"140 0 LINE"
);
}
);
width = 1458;
},
{
associatedMasterId = "0DA27741-1AFD-43F2-A947-40AFBF8D6498";
layerId = "A2873047-0ED6-4C67-9B4D-3870B51BD5C6";
width = 1200;
},
{
associatedMasterId = "0DA27741-1AFD-43F2-A947-40AFBF8D6498";
layerId = "55314CA7-5524-4D70-B802-98D4FAE25636";
width = 1450;
},
{
associatedMasterId = "0DA27741-1AFD-43F2-A947-40AFBF8D6498";
layerId = "13A3DD5D-E91B-4961-8595-F8141D3FA442";
width = 1240;
}
);
leftKerningGroup = M;
leftMetricsKey = H;
note = N;
rightKerningGroup = M;
rightMetricsKey = H;
unicode = 004E;
},
{
glyphname = Eng;
lastChange = "2020-02-20 18:21:12 +0000";
layers = (
{
layerId = "CAA188E2-8C62-414B-93AE-B576BEB044DB";
paths = (
{
closed = 1;
nodes = (
"1100 150 LINE",
"224 1440 LINE",
"140 1440 LINE",
"140 0 LINE",
"224 0 LINE",
"224 1292 LINE",
"1058 62 LINE SMOOTH",
"1086 20 OFFCURVE",
"1100 -38 OFFCURVE",
"1100 -110 CURVE SMOOTH",
"1100 -238 OFFCURVE",
"1080 -272 OFFCURVE",
"1008 -272 CURVE SMOOTH",
"992 -272 OFFCURVE",
"972 -270 OFFCURVE",
"950 -266 CURVE",
"950 -348 LINE",
"984 -356 OFFCURVE",
"1006 -358 OFFCURVE",
"1032 -358 CURVE SMOOTH",
"1138 -358 OFFCURVE",
"1184 -306 OFFCURVE",
"1184 -190 CURVE SMOOTH",
"1184 1440 LINE",
"1100 1440 LINE"
);
}
);
width = 1324;
},
{
layerId = "0DA27741-1AFD-43F2-A947-40AFBF8D6498";
paths = (
{
closed = 1;
nodes = (
"1042 480 LINE",
"416 1440 LINE",
"140 1440 LINE",
"140 0 LINE",
"416 0 LINE",
"416 960 LINE",
"976 102 LINE SMOOTH",
"1068 -44 OFFCURVE",
"1094 -100 OFFCURVE",
"1094 -158 CURVE SMOOTH",
"1094 -228 OFFCURVE",
"1042 -264 OFFCURVE",
"942 -264 CURVE SMOOTH",
"922 -264 OFFCURVE",
"908 -262 OFFCURVE",
"858 -258 CURVE",
"858 -458 LINE",
"908 -472 OFFCURVE",
"964 -478 OFFCURVE",
"1018 -478 CURVE SMOOTH",
"1220 -478 OFFCURVE",
"1318 -378 OFFCURVE",
"1318 -176 CURVE SMOOTH",
"1318 1440 LINE",
"1042 1440 LINE"
);
}
);
width = 1458;
},
{
associatedMasterId = "0DA27741-1AFD-43F2-A947-40AFBF8D6498";
layerId = "A2873047-0ED6-4C67-9B4D-3870B51BD5C6";
width = 1200;
},
{
associatedMasterId = "0DA27741-1AFD-43F2-A947-40AFBF8D6498";
layerId = "55314CA7-5524-4D70-B802-98D4FAE25636";
width = 1450;
},
{
associatedMasterId = "0DA27741-1AFD-43F2-A947-40AFBF8D6498";
layerId = "13A3DD5D-E91B-4961-8595-F8141D3FA442";
width = 1240;
}
);
leftKerningGroup = N;
leftMetricsKey = N;
rightKerningGroup = N;
rightMetricsKey = N;
unicode = 014A;
},
{
glyphname = O;
lastChange = "2020-02-20 18:21:12 +0000";
layers = (
{
layerId = "CAA188E2-8C62-414B-93AE-B576BEB044DB";
paths = (
{
closed = 1;
nodes = (
"1136 -30 OFFCURVE",
"1352 280 OFFCURVE",
"1352 720 CURVE SMOOTH",
"1352 1160 OFFCURVE",
"1136 1470 OFFCURVE",
"706 1470 CURVE SMOOTH",
"276 1470 OFFCURVE",
"60 1160 OFFCURVE",
"60 720 CURVE SMOOTH",
"60 280 OFFCURVE",
"276 -30 OFFCURVE",
"706 -30 CURVE SMOOTH"
);
},
{
closed = 1;
nodes = (
"336 54 OFFCURVE",
"146 330 OFFCURVE",
"150 720 CURVE SMOOTH",
"154 1110 OFFCURVE",
"336 1386 OFFCURVE",
"706 1386 CURVE SMOOTH",
"1076 1386 OFFCURVE",
"1262 1110 OFFCURVE",
"1262 720 CURVE SMOOTH",
"1262 330 OFFCURVE",
"1076 54 OFFCURVE",
"706 54 CURVE SMOOTH"
);
}
);
width = 1412;
},
{
layerId = "0DA27741-1AFD-43F2-A947-40AFBF8D6498";
paths = (
{
closed = 1;
nodes = (
"1190 -30 OFFCURVE",
"1456 272 OFFCURVE",
"1456 720 CURVE SMOOTH",
"1456 1168 OFFCURVE",
"1190 1470 OFFCURVE",
"758 1470 CURVE SMOOTH",
"326 1470 OFFCURVE",
"60 1168 OFFCURVE",
"60 720 CURVE SMOOTH",
"60 272 OFFCURVE",
"326 -30 OFFCURVE",
"758 -30 CURVE SMOOTH"
);
},
{
closed = 1;
nodes = (
"484 230 OFFCURVE",
"348 420 OFFCURVE",
"348 720 CURVE SMOOTH",
"348 1020 OFFCURVE",
"484 1218 OFFCURVE",
"758 1214 CURVE SMOOTH",
"1032 1210 OFFCURVE",
"1168 1020 OFFCURVE",
"1168 720 CURVE SMOOTH",
"1168 420 OFFCURVE",
"1032 222 OFFCURVE",
"758 226 CURVE SMOOTH"
);
}
);
width = 1516;
},
{
associatedMasterId = "0DA27741-1AFD-43F2-A947-40AFBF8D6498";
layerId = "A2873047-0ED6-4C67-9B4D-3870B51BD5C6";
width = 1200;
},
{
associatedMasterId = "0DA27741-1AFD-43F2-A947-40AFBF8D6498";
layerId = "55314CA7-5524-4D70-B802-98D4FAE25636";
width = 1468;
},
{
associatedMasterId = "0DA27741-1AFD-43F2-A947-40AFBF8D6498";
layerId = "13A3DD5D-E91B-4961-8595-F8141D3FA442";
width = 1242;
}
);
leftKerningGroup = O;
rightKerningGroup = O;
unicode = 004F;
},
{
glyphname = Oslash;
lastChange = "2020-02-20 18:21:12 +0000";
layers = (
{
components = (
{
name = O;
}
);
layerId = "CAA188E2-8C62-414B-93AE-B576BEB044DB";
paths = (
{
closed = 1;
nodes = (
"260 174 LINE",
"286 202 LINE",
"1194 1174 LINE",
"1210 1190 LINE",
"1407 1404 LINE",
"1345 1459 LINE",
"1162 1262 LINE",
"1142 1242 LINE",
"232 270 LINE",
"210 246 LINE",
"10 32 LINE",
"72 -26 LINE"
);
}
);
width = 1412;
},
{
components = (
{
name = O;
}
);
layerId = "0DA27741-1AFD-43F2-A947-40AFBF8D6498";
paths = (
{
closed = 1;
nodes = (
"430 138 LINE",
"444 162 LINE",
"1224 1044 LINE",
"1250 1062 LINE",
"1456 1294 LINE",
"1264 1466 LINE",
"1076 1254 LINE",
"1064 1232 LINE",
"286 354 LINE",
"252 324 LINE",
"94 144 LINE",
"286 -26 LINE"
);
}
);
width = 1516;
},
{
associatedMasterId = "0DA27741-1AFD-43F2-A947-40AFBF8D6498";
layerId = "A2873047-0ED6-4C67-9B4D-3870B51BD5C6";
width = 1200;
},
{
associatedMasterId = "0DA27741-1AFD-43F2-A947-40AFBF8D6498";
layerId = "55314CA7-5524-4D70-B802-98D4FAE25636";
width = 1476;
},
{
associatedMasterId = "0DA27741-1AFD-43F2-A947-40AFBF8D6498";
layerId = "13A3DD5D-E91B-4961-8595-F8141D3FA442";
width = 1244;
}
);
leftKerningGroup = O;
rightKerningGroup = O;
unicode = 00D8;
},
{
glyphname = P;
lastChange = "2020-02-20 18:21:12 +0000";
layers = (
{
layerId = "CAA188E2-8C62-414B-93AE-B576BEB044DB";
paths = (
{
closed = 1;
nodes = (
"224 0 LINE",
"224 576 LINE",
"670 576 LINE SMOOTH",
"698 576 OFFCURVE",
"726 578 OFFCURVE",
"762 584 CURVE SMOOTH",
"970 616 OFFCURVE",
"1102 792 OFFCURVE",
"1102 1008 CURVE SMOOTH",
"1102 1224 OFFCURVE",
"970 1400 OFFCURVE",
"762 1432 CURVE SMOOTH",
"726 1438 OFFCURVE",
"698 1440 OFFCURVE",
"670 1440 CURVE SMOOTH",
"140 1440 LINE",
"140 0 LINE"
);
},
{
closed = 1;
nodes = (
"224 1356 LINE",
"670 1356 LINE SMOOTH",
"692 1356 OFFCURVE",
"726 1354 OFFCURVE",
"758 1348 CURVE SMOOTH",
"924 1316 OFFCURVE",
"1012 1170 OFFCURVE",
"1012 1008 CURVE SMOOTH",
"1012 846 OFFCURVE",
"924 700 OFFCURVE",
"758 668 CURVE SMOOTH",
"726 662 OFFCURVE",
"692 660 OFFCURVE",
"670 660 CURVE SMOOTH",
"224 660 LINE"
);
}
);
width = 1162;
},
{
layerId = "0DA27741-1AFD-43F2-A947-40AFBF8D6498";
paths = (
{
closed = 1;
nodes = (
"412 0 LINE",
"412 488 LINE",
"748 488 LINE SMOOTH",
"774 488 OFFCURVE",
"830 490 OFFCURVE",
"868 496 CURVE SMOOTH",
"1124 536 OFFCURVE",
"1240 722 OFFCURVE",
"1240 964 CURVE SMOOTH",
"1240 1206 OFFCURVE",
"1126 1392 OFFCURVE",
"868 1432 CURVE SMOOTH",
"830 1438 OFFCURVE",
"776 1440 OFFCURVE",
"748 1440 CURVE SMOOTH",
"140 1440 LINE",
"140 0 LINE"
);
},
{
closed = 1;
nodes = (
"412 1186 LINE",
"736 1186 LINE SMOOTH",
"764 1186 OFFCURVE",
"800 1184 OFFCURVE",
"828 1176 CURVE SMOOTH",
"938 1146 OFFCURVE",
"966 1042 OFFCURVE",
"966 964 CURVE SMOOTH",
"966 886 OFFCURVE",
"938 782 OFFCURVE",
"828 752 CURVE SMOOTH",
"800 744 OFFCURVE",
"764 742 OFFCURVE",
"736 742 CURVE SMOOTH",
"412 742 LINE"
);
}
);
width = 1300;
},
{
associatedMasterId = "0DA27741-1AFD-43F2-A947-40AFBF8D6498";
layerId = "A2873047-0ED6-4C67-9B4D-3870B51BD5C6";
width = 1200;
},
{
associatedMasterId = "0DA27741-1AFD-43F2-A947-40AFBF8D6498";
layerId = "55314CA7-5524-4D70-B802-98D4FAE25636";
width = 1128;
},
{
associatedMasterId = "0DA27741-1AFD-43F2-A947-40AFBF8D6498";
layerId = "13A3DD5D-E91B-4961-8595-F8141D3FA442";
width = 1188;
}
);
leftMetricsKey = H;
note = P;
unicode = 0050;
},
{
glyphname = Thorn;
lastChange = "2020-02-20 18:21:12 +0000";
layers = (
{
layerId = "CAA188E2-8C62-414B-93AE-B576BEB044DB";
paths = (
{
closed = 1;
nodes = (
"224 0 LINE",
"224 288 LINE",
"650 288 LINE SMOOTH",
"768 288 OFFCURVE",
"890 342 OFFCURVE",
"968 430 CURVE SMOOTH",
"1038 508 OFFCURVE",
"1082 612 OFFCURVE",
"1082 720 CURVE SMOOTH",
"1082 836 OFFCURVE",
"1032 952 OFFCURVE",
"946 1032 CURVE SMOOTH",
"906 1070 OFFCURVE",
"856 1102 OFFCURVE",
"804 1122 CURVE SMOOTH",
"754 1142 OFFCURVE",
"702 1152 OFFCURVE",
"650 1152 CURVE SMOOTH",
"224 1152 LINE",
"224 1440 LINE",
"140 1440 LINE",
"140 0 LINE"
);
},
{
closed = 1;
nodes = (
"224 1068 LINE",
"650 1068 LINE SMOOTH",
"736 1068 OFFCURVE",
"826 1030 OFFCURVE",
"886 970 CURVE SMOOTH",
"952 904 OFFCURVE",
"990 814 OFFCURVE",
"992 720 CURVE SMOOTH",
"994 638 OFFCURVE",
"962 558 OFFCURVE",
"910 496 CURVE SMOOTH",
"846 420 OFFCURVE",
"748 372 OFFCURVE",
"650 372 CURVE SMOOTH",
"224 372 LINE"
);
}
);
width = 1142;
},
{
layerId = "0DA27741-1AFD-43F2-A947-40AFBF8D6498";
paths = (
{
closed = 1;
nodes = (
"416 0 LINE",
"416 246 LINE",
"742 246 LINE SMOOTH",
"900 246 OFFCURVE",
"1044 322 OFFCURVE",
"1128 438 CURVE SMOOTH",
"1188 518 OFFCURVE",
"1226 620 OFFCURVE",
"1224 720 CURVE SMOOTH",
"1222 820 OFFCURVE",
"1188 922 OFFCURVE",
"1128 1002 CURVE SMOOTH",
"1070 1084 OFFCURVE",
"984 1144 OFFCURVE",
"888 1174 CURVE SMOOTH",
"842 1188 OFFCURVE",
"792 1196 OFFCURVE",
"742 1196 CURVE SMOOTH",
"416 1196 LINE",
"416 1440 LINE",
"140 1440 LINE",
"140 0 LINE"
);
},
{
closed = 1;
nodes = (
"416 940 LINE",
"740 940 LINE SMOOTH",
"796 940 OFFCURVE",
"858 906 OFFCURVE",
"896 862 CURVE SMOOTH",
"930 824 OFFCURVE",
"946 772 OFFCURVE",
"948 720 CURVE SMOOTH",
"950 672 OFFCURVE",
"932 626 OFFCURVE",
"904 588 CURVE SMOOTH",
"862 532 OFFCURVE",
"794 500 OFFCURVE",
"740 500 CURVE SMOOTH",
"416 500 LINE"
);
}
);
width = 1284;
},
{
associatedMasterId = "0DA27741-1AFD-43F2-A947-40AFBF8D6498";
layerId = "A2873047-0ED6-4C67-9B4D-3870B51BD5C6";
width = 1200;
},
{
associatedMasterId = "0DA27741-1AFD-43F2-A947-40AFBF8D6498";
layerId = "55314CA7-5524-4D70-B802-98D4FAE25636";
width = 1202;
},
{
associatedMasterId = "0DA27741-1AFD-43F2-A947-40AFBF8D6498";
layerId = "13A3DD5D-E91B-4961-8595-F8141D3FA442";
width = 1200;
}
);
leftKerningGroup = P;
leftMetricsKey = P;
rightKerningGroup = P;
rightMetricsKey = P;
unicode = 00DE;
},
{
glyphname = Q;
lastChange = "2020-08-02 05:08:27 +0000";
layers = (
{
components = (
{
name = O;
}
);
layerId = "CAA188E2-8C62-414B-93AE-B576BEB044DB";
paths = (
{
closed = 1;
nodes = (
"1338 38 LINE",
"974 402 LINE",
"908 336 LINE",
"1274 -28 LINE"
);
}
);
width = 1412;
},
{
components = (
{
name = O;
}
);
layerId = "0DA27741-1AFD-43F2-A947-40AFBF8D6498";
paths = (
{
closed = 1;
nodes = (
"1432 138 LINE",
"1014 556 LINE",
"846 388 LINE",
"1266 -30 LINE"
);
}
);
width = 1516;
},
{
associatedMasterId = "0DA27741-1AFD-43F2-A947-40AFBF8D6498";
layerId = "A2873047-0ED6-4C67-9B4D-3870B51BD5C6";
width = 1200;
},
{
associatedMasterId = "0DA27741-1AFD-43F2-A947-40AFBF8D6498";
layerId = "55314CA7-5524-4D70-B802-98D4FAE25636";
width = 1468;
},
{
associatedMasterId = "0DA27741-1AFD-43F2-A947-40AFBF8D6498";
layerId = "13A3DD5D-E91B-4961-8595-F8141D3FA442";
width = 1242;
}
);
leftKerningGroup = O;
leftMetricsKey = O;
note = Q;
rightKerningGroup = O;
rightMetricsKey = O;
unicode = 0051;
},
{
glyphname = R;
lastChange = "2020-08-02 04:54:02 +0000";
layers = (
{
background = {
paths = (
{
closed = 1;
nodes = (
"224 0 LINE",
"224 576 LINE",
"670 576 LINE SMOOTH",
"698 576 OFFCURVE",
"726 578 OFFCURVE",
"762 584 CURVE SMOOTH",
"970 616 OFFCURVE",
"1102 792 OFFCURVE",
"1102 1008 CURVE SMOOTH",
"1102 1224 OFFCURVE",
"970 1400 OFFCURVE",
"762 1432 CURVE SMOOTH",
"726 1438 OFFCURVE",
"698 1440 OFFCURVE",
"670 1440 CURVE SMOOTH",
"140 1440 LINE",
"140 0 LINE"
);
},
{
closed = 1;
nodes = (
"1142 0 LINE",
"830 640 LINE",
"758 586 LINE",
"1042 0 LINE"
);
},
{
closed = 1;
nodes = (
"224 1356 LINE",
"670 1356 LINE SMOOTH",
"692 1356 OFFCURVE",
"726 1354 OFFCURVE",
"758 1348 CURVE SMOOTH",
"924 1316 OFFCURVE",
"1012 1170 OFFCURVE",
"1012 1008 CURVE SMOOTH",
"1012 846 OFFCURVE",
"924 700 OFFCURVE",
"758 668 CURVE SMOOTH",
"726 662 OFFCURVE",
"692 660 OFFCURVE",
"670 660 CURVE SMOOTH",
"224 660 LINE"
);
}
);
};
layerId = "CAA188E2-8C62-414B-93AE-B576BEB044DB";
paths = (
{
closed = 1;
nodes = (
"1121 0 LINE",
"768 682 LINE",
"670 682 LINE",
"1021 0 LINE"
);
},
{
closed = 1;
nodes = (
"224 0 LINE",
"224 636 LINE",
"670 636 LINE SMOOTH",
"698 636 OFFCURVE",
"726 638 OFFCURVE",
"762 644 CURVE SMOOTH",
"970 679 OFFCURVE",
"1102 842 OFFCURVE",
"1102 1038 CURVE SMOOTH",
"1102 1234 OFFCURVE",
"970 1400 OFFCURVE",
"762 1432 CURVE SMOOTH",
"726 1438 OFFCURVE",
"698 1440 OFFCURVE",
"670 1440 CURVE SMOOTH",
"140 1440 LINE",
"140 0 LINE"
);
},
{
closed = 1;
nodes = (
"224 1356 LINE",
"670 1356 LINE SMOOTH",
"692 1356 OFFCURVE",
"726 1354 OFFCURVE",
"758 1348 CURVE SMOOTH",
"924 1316 OFFCURVE",
"1012 1180 OFFCURVE",
"1012 1038 CURVE SMOOTH",
"1012 896 OFFCURVE",
"924 759 OFFCURVE",
"758 728 CURVE SMOOTH",
"726 722 OFFCURVE",
"692 720 OFFCURVE",
"670 720 CURVE SMOOTH",
"224 720 LINE"
);
}
);
width = 1222;
},
{
layerId = "0DA27741-1AFD-43F2-A947-40AFBF8D6498";
paths = (
{
closed = 1;
nodes = (
"1270 0 LINE",
"938 640 LINE",
"658 586 LINE",
"962 0 LINE"
);
},
{
closed = 1;
nodes = (
"412 0 LINE",
"412 528 LINE",
"748 528 LINE SMOOTH",
"774 528 OFFCURVE",
"830 530 OFFCURVE",
"868 536 CURVE SMOOTH",
"1124 576 OFFCURVE",
"1240 792 OFFCURVE",
"1240 984 CURVE SMOOTH",
"1240 1216 OFFCURVE",
"1126 1392 OFFCURVE",
"868 1432 CURVE SMOOTH",
"830 1438 OFFCURVE",
"776 1440 OFFCURVE",
"748 1440 CURVE SMOOTH",
"140 1440 LINE",
"140 0 LINE"
);
},
{
closed = 1;
nodes = (
"412 1186 LINE",
"736 1186 LINE SMOOTH",
"764 1186 OFFCURVE",
"800 1184 OFFCURVE",
"828 1176 CURVE SMOOTH",
"938 1146 OFFCURVE",
"966 1052 OFFCURVE",
"966 984 CURVE SMOOTH",
"966 916 OFFCURVE",
"938 843 OFFCURVE",
"828 792 CURVE SMOOTH",
"802 780 OFFCURVE",
"764 782 OFFCURVE",
"736 782 CURVE SMOOTH",
"412 782 LINE"
);
}
);
width = 1340;
},
{
associatedMasterId = "0DA27741-1AFD-43F2-A947-40AFBF8D6498";
layerId = "A2873047-0ED6-4C67-9B4D-3870B51BD5C6";
width = 1200;
},
{
associatedMasterId = "0DA27741-1AFD-43F2-A947-40AFBF8D6498";
layerId = "55314CA7-5524-4D70-B802-98D4FAE25636";
width = 1102;
},
{
associatedMasterId = "0DA27741-1AFD-43F2-A947-40AFBF8D6498";
layerId = "13A3DD5D-E91B-4961-8595-F8141D3FA442";
width = 1184;
}
);
leftKerningGroup = P;
leftMetricsKey = H;
note = R;
rightKerningGroup = R;
unicode = 0052;
},
{
glyphname = S;
lastChange = "2020-02-20 18:21:12 +0000";
layers = (
{
background = {
paths = (
{
closed = 1;
nodes = (
"1086 1226 OFFCURVE",
"994 1326 OFFCURVE",
"890 1392 CURVE SMOOTH",
"808 1444 OFFCURVE",
"680 1470 OFFCURVE",
"576 1470 CURVE SMOOTH",
"486 1470 OFFCURVE",
"384 1450 OFFCURVE",
"302 1402 CURVE SMOOTH",
"190 1336 OFFCURVE",
"116 1222 OFFCURVE",
"116 1084 CURVE SMOOTH",
"116 1002 OFFCURVE",
"146 926 OFFCURVE",
"212 866 CURVE SMOOTH",
"290 794 OFFCURVE",
"382 772 OFFCURVE",
"470 746 CURVE SMOOTH",
"732 668 LINE SMOOTH",
"824 640 OFFCURVE",
"910 616 OFFCURVE",
"970 554 CURVE SMOOTH",
"1016 508 OFFCURVE",
"1036 442 OFFCURVE",
"1036 382 CURVE SMOOTH",
"1036 268 OFFCURVE",
"988 190 OFFCURVE",
"910 134 CURVE SMOOTH",
"834 78 OFFCURVE",
"720 54 OFFCURVE",
"612 54 CURVE SMOOTH",
"464 54 OFFCURVE",
"352 98 OFFCURVE",
"262 178 CURVE SMOOTH",
"194 238 OFFCURVE",
"162 306 OFFCURVE",
"144 374 CURVE",
"60 358 LINE",
"76 282 OFFCURVE",
"114 202 OFFCURVE",
"176 136 CURVE SMOOTH",
"296 12 OFFCURVE",
"464 -30 OFFCURVE",
"610 -30 CURVE SMOOTH",
"756 -30 OFFCURVE",
"866 -2 OFFCURVE",
"964 66 CURVE SMOOTH",
"1062 134 OFFCURVE",
"1118 248 OFFCURVE",
"1118 382 CURVE SMOOTH",
"1118 476 OFFCURVE",
"1094 550 OFFCURVE",
"1026 618 CURVE SMOOTH",
"954 688 OFFCURVE",
"850 724 OFFCURVE",
"756 752 CURVE SMOOTH",
"494 830 LINE SMOOTH",
"402 858 OFFCURVE",
"330 884 OFFCURVE",
"270 936 CURVE SMOOTH",
"222 978 OFFCURVE",
"206 1046 OFFCURVE",
"206 1090 CURVE SMOOTH",
"206 1208 OFFCURVE",
"278 1282 OFFCURVE",
"346 1326 CURVE SMOOTH",
"412 1368 OFFCURVE",
"496 1386 OFFCURVE",
"578 1386 CURVE SMOOTH",
"664 1386 OFFCURVE",
"764 1362 OFFCURVE",
"832 1324 CURVE SMOOTH",
"932 1268 OFFCURVE",
"1006 1180 OFFCURVE",
"1028 1034 CURVE",
"1112 1050 LINE"
);
}
);
};
layerId = "CAA188E2-8C62-414B-93AE-B576BEB044DB";
paths = (
{
closed = 1;
nodes = (
"922 -30 OFFCURVE",
"1118 128 OFFCURVE",
"1118 376 CURVE SMOOTH",
"1118 640 OFFCURVE",
"894 710 OFFCURVE",
"792 740 CURVE SMOOTH",
"494 830 LINE SMOOTH",
"372 866 OFFCURVE",
"206 922 OFFCURVE",
"206 1094 CURVE SMOOTH",
"206 1258 OFFCURVE",
"360 1386 OFFCURVE",
"586 1386 CURVE SMOOTH",
"822 1386 OFFCURVE",
"1000 1244 OFFCURVE",
"1028 1034 CURVE",
"1112 1050 LINE",
"1076 1304 OFFCURVE",
"868 1470 OFFCURVE",
"586 1470 CURVE SMOOTH",
"308 1470 OFFCURVE",
"116 1312 OFFCURVE",
"116 1092 CURVE SMOOTH",
"116 940 OFFCURVE",
"206 824 OFFCURVE",
"414 762 CURVE SMOOTH",
"774 654 LINE SMOOTH",
"868 626 OFFCURVE",
"1036 570 OFFCURVE",
"1036 376 CURVE SMOOTH",
"1036 182 OFFCURVE",
"870 54 OFFCURVE",
"618 54 CURVE SMOOTH",
"376 54 OFFCURVE",
"196 176 OFFCURVE",
"144 374 CURVE",
"60 358 LINE",
"112 120 OFFCURVE",
"326 -30 OFFCURVE",
"618 -30 CURVE SMOOTH"
);
}
);
width = 1178;
},
{
background = {
paths = (
{
closed = 1;
nodes = (
"1206 1224 OFFCURVE",
"1098 1334 OFFCURVE",
"976 1400 CURVE SMOOTH",
"880 1452 OFFCURVE",
"772 1468 OFFCURVE",
"674 1470 CURVE SMOOTH",
"540 1470 OFFCURVE",
"404 1442 OFFCURVE",
"300 1366 CURVE SMOOTH",
"202 1294 OFFCURVE",
"136 1180 OFFCURVE",
"136 1048 CURVE SMOOTH",
"136 942 OFFCURVE",
"160 850 OFFCURVE",
"240 774 CURVE SMOOTH",
"310 706 OFFCURVE",
"410 676 OFFCURVE",
"536 640 CURVE SMOOTH",
"804 562 LINE SMOOTH",
"860 546 OFFCURVE",
"900 532 OFFCURVE",
"932 504 CURVE SMOOTH",
"962 478 OFFCURVE",
"976 442 OFFCURVE",
"976 404 CURVE SMOOTH",
"976 364 OFFCURVE",
"956 320 OFFCURVE",
"910 284 CURVE SMOOTH",
"858 244 OFFCURVE",
"770 224 OFFCURVE",
"694 224 CURVE SMOOTH",
"598 224 OFFCURVE",
"506 266 OFFCURVE",
"444 330 CURVE SMOOTH",
"400 374 OFFCURVE",
"374 440 OFFCURVE",
"364 482 CURVE",
"80 440 LINE",
"94 348 OFFCURVE",
"128 252 OFFCURVE",
"206 164 CURVE SMOOTH",
"330 26 OFFCURVE",
"492 -30 OFFCURVE",
"684 -30 CURVE SMOOTH",
"848 -30 OFFCURVE",
"996 4 OFFCURVE",
"1114 108 CURVE SMOOTH",
"1202 186 OFFCURVE",
"1262 286 OFFCURVE",
"1262 396 CURVE SMOOTH",
"1262 522 OFFCURVE",
"1244 602 OFFCURVE",
"1166 684 CURVE SMOOTH",
"1112 742 OFFCURVE",
"994 794 OFFCURVE",
"864 830 CURVE SMOOTH",
"614 898 LINE SMOOTH",
"536 920 OFFCURVE",
"476 946 OFFCURVE",
"450 976 CURVE SMOOTH",
"428 1000 OFFCURVE",
"422 1028 OFFCURVE",
"422 1056 CURVE SMOOTH",
"422 1104 OFFCURVE",
"456 1148 OFFCURVE",
"500 1174 CURVE SMOOTH",
"544 1200 OFFCURVE",
"602 1216 OFFCURVE",
"670 1214 CURVE SMOOTH",
"736 1214 OFFCURVE",
"794 1192 OFFCURVE",
"840 1162 CURVE SMOOTH",
"896 1124 OFFCURVE",
"942 1062 OFFCURVE",
"956 996 CURVE",
"1250 1046 LINE"
);
}
);
};
layerId = "0DA27741-1AFD-43F2-A947-40AFBF8D6498";
paths = (
{
closed = 1;
nodes = (
"978 -30 OFFCURVE",
"1262 118 OFFCURVE",
"1262 428 CURVE SMOOTH",
"1262 718 OFFCURVE",
"1012 790 OFFCURVE",
"864 830 CURVE SMOOTH",
"614 898 LINE SMOOTH",
"522 922 OFFCURVE",
"422 958 OFFCURVE",
"422 1052 CURVE SMOOTH",
"422 1154 OFFCURVE",
"542 1218 OFFCURVE",
"670 1214 CURVE SMOOTH",
"800 1210 OFFCURVE",
"924 1136 OFFCURVE",
"956 996 CURVE",
"1250 1046 LINE",
"1180 1316 OFFCURVE",
"972 1464 OFFCURVE",
"674 1468 CURVE SMOOTH",
"378 1470 OFFCURVE",
"136 1328 OFFCURVE",
"136 1038 CURVE SMOOTH",
"136 764 OFFCURVE",
"350 694 OFFCURVE",
"462 662 CURVE SMOOTH",
"836 552 LINE SMOOTH",
"948 518 OFFCURVE",
"976 466 OFFCURVE",
"976 408 CURVE SMOOTH",
"976 288 OFFCURVE",
"836 224 OFFCURVE",
"702 224 CURVE SMOOTH",
"542 224 OFFCURVE",
"404 316 OFFCURVE",
"364 482 CURVE",
"80 440 LINE",
"124 148 OFFCURVE",
"364 -30 OFFCURVE",
"684 -30 CURVE SMOOTH"
);
}
);
width = 1342;
},
{
associatedMasterId = "0DA27741-1AFD-43F2-A947-40AFBF8D6498";
layerId = "A2873047-0ED6-4C67-9B4D-3870B51BD5C6";
width = 1200;
},
{
associatedMasterId = "0DA27741-1AFD-43F2-A947-40AFBF8D6498";
layerId = "55314CA7-5524-4D70-B802-98D4FAE25636";
width = 1232;
},
{
associatedMasterId = "0DA27741-1AFD-43F2-A947-40AFBF8D6498";
layerId = "13A3DD5D-E91B-4961-8595-F8141D3FA442";
width = 1206;
}
);
leftKerningGroup = S;
note = S;
rightKerningGroup = S;
unicode = 0053;
},
{
glyphname = Germandbls;
lastChange = "2020-03-14 01:05:12 +0000";
layers = (
{
layerId = "0DA27741-1AFD-43F2-A947-40AFBF8D6498";
paths = (
{
closed = 1;
nodes = (
"1246 -30 OFFCURVE",
"1408 152 OFFCURVE",
"1408 428 CURVE SMOOTH",
"1408 661 OFFCURVE",
"1261 802 OFFCURVE",
"1073 845 CURVE",
"1339 1299 LINE",
"1213 1376 OFFCURVE",
"1064 1470 OFFCURVE",
"776 1470 CURVE SMOOTH",
"512 1470 OFFCURVE",
"275 1355 OFFCURVE",
"179 1099 CURVE SMOOTH",
"152 1026 OFFCURVE",
"138 930 OFFCURVE",
"138 800 CURVE SMOOTH",
"138 0 LINE",
"412 0 LINE",
"412 746 LINE SMOOTH",
"412 829 OFFCURVE",
"420 914 OFFCURVE",
"438 973 CURVE SMOOTH",
"489 1137 OFFCURVE",
"629 1216 OFFCURVE",
"806 1216 CURVE SMOOTH",
"868 1216 OFFCURVE",
"938 1208 OFFCURVE",
"1003 1179 CURVE",
"784 832 LINE",
"834 664 LINE",
"981 664 OFFCURVE",
"1143 612 OFFCURVE",
"1144 438 CURVE SMOOTH",
"1145 294 OFFCURVE",
"1044 236 OFFCURVE",
"910 236 CURVE SMOOTH",
"848 236 OFFCURVE",
"787 245 OFFCURVE",
"734 266 CURVE",
"734 0 LINE",
"781 -19 OFFCURVE",
"862 -30 OFFCURVE",
"950 -30 CURVE SMOOTH"
);
}
);
width = 1528;
},
{
layerId = "CAA188E2-8C62-414B-93AE-B576BEB044DB";
paths = (
{
closed = 1;
nodes = (
"1066 -30 OFFCURVE",
"1239 128 OFFCURVE",
"1239 398 CURVE SMOOTH",
"1239 662 OFFCURVE",
"1026 793 OFFCURVE",
"839 809 CURVE",
"1117 1310 LINE",
"1028 1375 OFFCURVE",
"869 1470 OFFCURVE",
"678 1470 CURVE SMOOTH",
"462 1470 OFFCURVE",
"226 1397 OFFCURVE",
"160 1108 CURVE SMOOTH",
"147 1052 OFFCURVE",
"140 986 OFFCURVE",
"140 894 CURVE SMOOTH",
"140 0 LINE",
"232 0 LINE",
"232 812 LINE SMOOTH",
"232 900 OFFCURVE",
"234 990 OFFCURVE",
"253 1081 CURVE SMOOTH",
"287 1248 OFFCURVE",
"421 1382 OFFCURVE",
"665 1382 CURVE SMOOTH",
"834 1382 OFFCURVE",
"933 1323 OFFCURVE",
"998 1279 CURVE",
"730 806 LINE",
"730 728 LINE",
"1008 718 OFFCURVE",
"1150 584 OFFCURVE",
"1150 397 CURVE SMOOTH",
"1150 179 OFFCURVE",
"991 58 OFFCURVE",
"788 58 CURVE SMOOTH",
"722 58 OFFCURVE",
"674 64 OFFCURVE",
"606 84 CURVE",
"606 0 LINE",
"664 -18 OFFCURVE",
"706 -30 OFFCURVE",
"784 -30 CURVE SMOOTH"
);
}
);
width = 1359;
}
);
leftKerningGroup = b;
leftMetricsKey = b;
rightKerningGroup = b;
rightMetricsKey = n;
unicode = 1E9E;
},
{
glyphname = T;
lastChange = "2020-03-06 05:47:16 +0000";
layers = (
{
layerId = "CAA188E2-8C62-414B-93AE-B576BEB044DB";
paths = (
{
closed = 1;
nodes = (
"632 0 LINE",
"632 1356 LINE",
"1160 1356 LINE",
"1160 1440 LINE",
"20 1440 LINE",
"20 1356 LINE",
"548 1356 LINE",
"548 0 LINE"
);
}
);
width = 1180;
},
{
layerId = "0DA27741-1AFD-43F2-A947-40AFBF8D6498";
paths = (
{
closed = 1;
nodes = (
"746 0 LINE",
"746 1186 LINE",
"1200 1186 LINE",
"1200 1440 LINE",
"20 1440 LINE",
"20 1186 LINE",
"474 1186 LINE",
"474 0 LINE"
);
}
);
width = 1220;
},
{
associatedMasterId = "0DA27741-1AFD-43F2-A947-40AFBF8D6498";
layerId = "A2873047-0ED6-4C67-9B4D-3870B51BD5C6";
width = 1200;
},
{
associatedMasterId = "0DA27741-1AFD-43F2-A947-40AFBF8D6498";
layerId = "55314CA7-5524-4D70-B802-98D4FAE25636";
width = 1026;
},
{
associatedMasterId = "0DA27741-1AFD-43F2-A947-40AFBF8D6498";
layerId = "13A3DD5D-E91B-4961-8595-F8141D3FA442";
width = 1172;
}
);
leftKerningGroup = T;
note = T;
rightKerningGroup = T;
unicode = 0054;
},
{
glyphname = Tbar;
lastChange = "2020-02-20 18:21:12 +0000";
layers = (
{
components = (
{
name = T;
}
);
layerId = "CAA188E2-8C62-414B-93AE-B576BEB044DB";
paths = (
{
closed = 1;
nodes = (
"1010 678 LINE",
"1010 762 LINE",
"170 762 LINE",
"170 678 LINE"
);
}
);
width = 1180;
},
{
components = (
{
name = T;
}
);
layerId = "0DA27741-1AFD-43F2-A947-40AFBF8D6498";
paths = (
{
closed = 1;
nodes = (
"1090 584 LINE",
"1090 856 LINE",
"130 856 LINE",
"130 584 LINE"
);
}
);
width = 1220;
},
{
associatedMasterId = "0DA27741-1AFD-43F2-A947-40AFBF8D6498";
layerId = "A2873047-0ED6-4C67-9B4D-3870B51BD5C6";
width = 1200;
},
{
associatedMasterId = "0DA27741-1AFD-43F2-A947-40AFBF8D6498";
layerId = "55314CA7-5524-4D70-B802-98D4FAE25636";
width = 1026;
},
{
associatedMasterId = "0DA27741-1AFD-43F2-A947-40AFBF8D6498";
layerId = "13A3DD5D-E91B-4961-8595-F8141D3FA442";
width = 1172;
}
);
leftKerningGroup = X;
leftMetricsKey = T;
rightKerningGroup = X;
rightMetricsKey = T;
unicode = 0166;
},
{
glyphname = U;
lastChange = "2020-02-20 18:21:12 +0000";
layers = (
{
background = {
paths = (
{
closed = 1;
nodes = (
"1156 1440 LINE",
"1156 610 LINE SMOOTH",
"1156 524 OFFCURVE",
"1152 452 OFFCURVE",
"1136 386 CURVE SMOOTH",
"1090 194 OFFCURVE",
"902 50 OFFCURVE",
"690 50 CURVE SMOOTH",
"478 50 OFFCURVE",
"290 194 OFFCURVE",
"244 386 CURVE SMOOTH",
"228 452 OFFCURVE",
"224 524 OFFCURVE",
"224 610 CURVE SMOOTH",
"224 1440 LINE",
"140 1440 LINE",
"140 506 LINE SMOOTH",
"140 426 OFFCURVE",
"152 356 OFFCURVE",
"178 294 CURVE SMOOTH",
"258 100 OFFCURVE",
"434 -30 OFFCURVE",
"690 -30 CURVE SMOOTH",
"946 -30 OFFCURVE",
"1122 100 OFFCURVE",
"1202 294 CURVE SMOOTH",
"1228 356 OFFCURVE",
"1240 426 OFFCURVE",
"1240 506 CURVE SMOOTH",
"1240 1440 LINE"
);
}
);
};
layerId = "CAA188E2-8C62-414B-93AE-B576BEB044DB";
paths = (
{
closed = 1;
nodes = (
"1010 -30 OFFCURVE",
"1240 186 OFFCURVE",
"1240 510 CURVE SMOOTH",
"1240 1440 LINE",
"1156 1440 LINE",
"1156 538 LINE SMOOTH",
"1156 182 OFFCURVE",
"882 50 OFFCURVE",
"690 50 CURVE SMOOTH",
"498 50 OFFCURVE",
"224 182 OFFCURVE",
"224 538 CURVE SMOOTH",
"224 1440 LINE",
"140 1440 LINE",
"140 510 LINE SMOOTH",
"140 184 OFFCURVE",
"370 -30 OFFCURVE",
"690 -30 CURVE SMOOTH"
);
}
);
width = 1380;
},
{
background = {
paths = (
{
closed = 1;
nodes = (
"1036 1440 LINE",
"1036 544 LINE SMOOTH",
"1036 512 OFFCURVE",
"1034 480 OFFCURVE",
"1024 444 CURVE SMOOTH",
"988 316 OFFCURVE",
"868 226 OFFCURVE",
"726 226 CURVE SMOOTH",
"584 226 OFFCURVE",
"464 316 OFFCURVE",
"428 444 CURVE SMOOTH",
"418 480 OFFCURVE",
"416 512 OFFCURVE",
"416 544 CURVE SMOOTH",
"416 1440 LINE",
"140 1438 LINE",
"140 540 LINE SMOOTH",
"140 492 OFFCURVE",
"144 446 OFFCURVE",
"154 400 CURVE SMOOTH",
"212 128 OFFCURVE",
"434 -30 OFFCURVE",
"726 -30 CURVE SMOOTH",
"1018 -30 OFFCURVE",
"1240 128 OFFCURVE",
"1298 400 CURVE SMOOTH",
"1308 446 OFFCURVE",
"1312 492 OFFCURVE",
"1312 540 CURVE SMOOTH",
"1312 1440 LINE"
);
}
);
};
layerId = "0DA27741-1AFD-43F2-A947-40AFBF8D6498";
paths = (
{
closed = 1;
nodes = (
"1074 -30 OFFCURVE",
"1312 194 OFFCURVE",
"1312 540 CURVE SMOOTH",
"1312 1440 LINE",
"1036 1440 LINE",
"1036 542 LINE SMOOTH",
"1036 356 OFFCURVE",
"902 226 OFFCURVE",
"726 226 CURVE SMOOTH",
"554 226 OFFCURVE",
"416 352 OFFCURVE",
"416 542 CURVE SMOOTH",
"416 1440 LINE",
"140 1438 LINE",
"140 540 LINE SMOOTH",
"140 194 OFFCURVE",
"378 -30 OFFCURVE",
"726 -30 CURVE SMOOTH"
);
}
);
width = 1452;
},
{
associatedMasterId = "0DA27741-1AFD-43F2-A947-40AFBF8D6498";
layerId = "A2873047-0ED6-4C67-9B4D-3870B51BD5C6";
width = 1200;
},
{
associatedMasterId = "0DA27741-1AFD-43F2-A947-40AFBF8D6498";
layerId = "55314CA7-5524-4D70-B802-98D4FAE25636";
width = 1450;
},
{
associatedMasterId = "0DA27741-1AFD-43F2-A947-40AFBF8D6498";
layerId = "13A3DD5D-E91B-4961-8595-F8141D3FA442";
width = 1240;
}
);
leftKerningGroup = U;
leftMetricsKey = H;
note = U;
rightKerningGroup = U;
rightMetricsKey = H;
unicode = 0055;
},
{
glyphname = V;
lastChange = "2020-02-20 18:21:12 +0000";
layers = (
{
layerId = "CAA188E2-8C62-414B-93AE-B576BEB044DB";
paths = (
{
closed = 1;
nodes = (
"624 0 LINE",
"1148 1440 LINE",
"1058 1440 LINE",
"578 122 LINE",
"100 1440 LINE",
"10 1440 LINE",
"534 0 LINE"
);
}
);
width = 1158;
},
{
layerId = "0DA27741-1AFD-43F2-A947-40AFBF8D6498";
paths = (
{
closed = 1;
nodes = (
"856 0 LINE",
"1296 1440 LINE",
"1016 1440 LINE",
"650 256 LINE",
"290 1440 LINE",
"10 1440 LINE",
"450 0 LINE"
);
}
);
width = 1306;
},
{
associatedMasterId = "0DA27741-1AFD-43F2-A947-40AFBF8D6498";
layerId = "A2873047-0ED6-4C67-9B4D-3870B51BD5C6";
width = 1200;
},
{
associatedMasterId = "0DA27741-1AFD-43F2-A947-40AFBF8D6498";
layerId = "55314CA7-5524-4D70-B802-98D4FAE25636";
width = 1246;
},
{
associatedMasterId = "0DA27741-1AFD-43F2-A947-40AFBF8D6498";
layerId = "13A3DD5D-E91B-4961-8595-F8141D3FA442";
width = 1208;
}
);
leftKerningGroup = V;
note = V;
rightKerningGroup = V;
unicode = 0056;
},
{
glyphname = W;
lastChange = "2020-03-10 05:32:26 +0000";
layers = (
{
layerId = "CAA188E2-8C62-414B-93AE-B576BEB044DB";
paths = (
{
closed = 1;
nodes = (
"540 0 LINE",
"908 1286 LINE",
"1278 0 LINE",
"1366 0 LINE",
"1778 1440 LINE",
"1690 1440 LINE",
"1322 152 LINE",
"952 1440 LINE",
"864 1440 LINE",
"496 152 LINE",
"126 1440 LINE",
"40 1440 LINE",
"452 0 LINE"
);
}
);
width = 1818;
},
{
layerId = "0DA27741-1AFD-43F2-A947-40AFBF8D6498";
paths = (
{
closed = 1;
nodes = (
"710 0 LINE",
"989 972 LINE",
"1268 0 LINE",
"1536 0 LINE",
"1958 1440 LINE",
"1672 1440 LINE",
"1402 450 LINE",
"1132 1440 LINE",
"846 1438 LINE",
"576 450 LINE",
"306 1440 LINE",
"20 1440 LINE",
"442 0 LINE"
);
}
);
width = 1978;
},
{
associatedMasterId = "0DA27741-1AFD-43F2-A947-40AFBF8D6498";
layerId = "A2873047-0ED6-4C67-9B4D-3870B51BD5C6";
width = 1200;
},
{
associatedMasterId = "0DA27741-1AFD-43F2-A947-40AFBF8D6498";
layerId = "55314CA7-5524-4D70-B802-98D4FAE25636";
width = 1812;
},
{
associatedMasterId = "0DA27741-1AFD-43F2-A947-40AFBF8D6498";
layerId = "13A3DD5D-E91B-4961-8595-F8141D3FA442";
width = 1298;
}
);
leftKerningGroup = V;
note = W;
rightKerningGroup = V;
unicode = 0057;
},
{
glyphname = X;
lastChange = "2020-02-20 18:21:12 +0000";
layers = (
{
layerId = "CAA188E2-8C62-414B-93AE-B576BEB044DB";
paths = (
{
closed = 1;
nodes = (
"120 0 LINE",
"572 660 LINE",
"1026 0 LINE",
"1126 0 LINE",
"620 730 LINE",
"1114 1440 LINE",
"1014 1440 LINE",
"572 798 LINE",
"132 1440 LINE",
"32 1440 LINE",
"526 730 LINE",
"20 0 LINE"
);
}
);
width = 1146;
},
{
layerId = "0DA27741-1AFD-43F2-A947-40AFBF8D6498";
paths = (
{
closed = 1;
nodes = (
"356 0 LINE",
"674 496 LINE",
"990 0 LINE",
"1324 0 LINE",
"842 728 LINE",
"1312 1440 LINE",
"976 1440 LINE",
"674 960 LINE",
"368 1440 LINE",
"34 1440 LINE",
"504 728 LINE",
"20 0 LINE"
);
}
);
width = 1344;
},
{
associatedMasterId = "0DA27741-1AFD-43F2-A947-40AFBF8D6498";
layerId = "A2873047-0ED6-4C67-9B4D-3870B51BD5C6";
width = 1200;
},
{
associatedMasterId = "0DA27741-1AFD-43F2-A947-40AFBF8D6498";
layerId = "55314CA7-5524-4D70-B802-98D4FAE25636";
width = 1532;
},
{
associatedMasterId = "0DA27741-1AFD-43F2-A947-40AFBF8D6498";
layerId = "13A3DD5D-E91B-4961-8595-F8141D3FA442";
width = 1254;
}
);
leftKerningGroup = X;
note = X;
rightKerningGroup = X;
unicode = 0058;
},
{
glyphname = Y;
lastChange = "2020-02-20 18:21:12 +0000";
layers = (
{
layerId = "CAA188E2-8C62-414B-93AE-B576BEB044DB";
paths = (
{
closed = 1;
nodes = (
"562 0 LINE",
"562 612 LINE",
"1038 1440 LINE",
"942 1440 LINE",
"520 708 LINE",
"96 1440 LINE",
"0 1440 LINE",
"478 612 LINE",
"478 0 LINE"
);
}
);
width = 1038;
},
{
layerId = "0DA27741-1AFD-43F2-A947-40AFBF8D6498";
paths = (
{
closed = 1;
nodes = (
"768 0 LINE",
"768 586 LINE",
"1260 1440 LINE",
"942 1440 LINE",
"630 898 LINE",
"318 1440 LINE",
"0 1440 LINE",
"492 586 LINE",
"492 0 LINE"
);
}
);
width = 1260;
},
{
associatedMasterId = "0DA27741-1AFD-43F2-A947-40AFBF8D6498";
layerId = "A2873047-0ED6-4C67-9B4D-3870B51BD5C6";
width = 1200;
},
{
associatedMasterId = "0DA27741-1AFD-43F2-A947-40AFBF8D6498";
layerId = "55314CA7-5524-4D70-B802-98D4FAE25636";
width = 1138;
},
{
associatedMasterId = "0DA27741-1AFD-43F2-A947-40AFBF8D6498";
layerId = "13A3DD5D-E91B-4961-8595-F8141D3FA442";
width = 1190;
}
);
leftKerningGroup = Y;
note = Y;
rightKerningGroup = Y;
unicode = 0059;
},
{
glyphname = Z;
lastChange = "2020-02-20 18:21:12 +0000";
layers = (
{
layerId = "CAA188E2-8C62-414B-93AE-B576BEB044DB";
paths = (
{
closed = 1;
nodes = (
"1062 0 LINE",
"1062 82 LINE",
"228 82 LINE",
"1062 1406 LINE",
"1062 1440 LINE",
"100 1440 LINE",
"100 1356 LINE",
"938 1356 LINE",
"100 30 LINE",
"100 0 LINE"
);
}
);
width = 1162;
},
{
layerId = "0DA27741-1AFD-43F2-A947-40AFBF8D6498";
paths = (
{
closed = 1;
nodes = (
"1240 0 LINE",
"1240 256 LINE",
"580 256 LINE",
"1260 1406 LINE",
"1260 1440 LINE",
"160 1440 LINE",
"160 1186 LINE",
"784 1186 LINE",
"100 34 LINE",
"100 0 LINE"
);
}
);
width = 1360;
},
{
associatedMasterId = "0DA27741-1AFD-43F2-A947-40AFBF8D6498";
layerId = "A2873047-0ED6-4C67-9B4D-3870B51BD5C6";
width = 1200;
},
{
associatedMasterId = "0DA27741-1AFD-43F2-A947-40AFBF8D6498";
layerId = "55314CA7-5524-4D70-B802-98D4FAE25636";
width = 1200;
},
{
associatedMasterId = "0DA27741-1AFD-43F2-A947-40AFBF8D6498";
layerId = "13A3DD5D-E91B-4961-8595-F8141D3FA442";
width = 1200;
}
);
leftKerningGroup = Z;
note = Z;
rightKerningGroup = Z;
unicode = 005A;
},
{
glyphname = a;
lastChange = "2020-02-20 18:21:12 +0000";
layers = (
{
background = {
paths = (
{
closed = 1;
nodes = (
"628 -30 OFFCURVE",
"796 36 OFFCURVE",
"886 196 CURVE",
"886 0 LINE",
"964 0 LINE",
"964 676 LINE",
"964 732 OFFCURVE",
"960 782 OFFCURVE",
"946 834 CURVE SMOOTH",
"898 1008 OFFCURVE",
"766 1110 OFFCURVE",
"566 1110 CURVE SMOOTH",
"336 1110 OFFCURVE",
"166 1020 OFFCURVE",
"122 822 CURVE",
"210 794 LINE",
"254 964 OFFCURVE",
"382 1026 OFFCURVE",
"560 1026 CURVE SMOOTH",
"772 1026 OFFCURVE",
"880 896 OFFCURVE",
"880 664 CURVE",
"676 638 OFFCURVE",
"508 624 OFFCURVE",
"352 588 CURVE SMOOTH",
"156 542 OFFCURVE",
"80 426 OFFCURVE",
"80 292 CURVE SMOOTH",
"80 92 OFFCURVE",
"234 -30 OFFCURVE",
"434 -30 CURVE SMOOTH"
);
},
{
closed = 1;
nodes = (
"280 54 OFFCURVE",
"168 140 OFFCURVE",
"168 292 CURVE SMOOTH",
"168 404 OFFCURVE",
"250 476 OFFCURVE",
"380 512 CURVE SMOOTH",
"528 554 OFFCURVE",
"688 562 OFFCURVE",
"880 582 CURVE",
"880 502 OFFCURVE",
"878 362 OFFCURVE",
"832 268 CURVE SMOOTH",
"760 122 OFFCURVE",
"618 54 OFFCURVE",
"436 54 CURVE SMOOTH"
);
}
);
};
hints = (
{
horizontal = 1;
origin = "{0, 32}";
target = "{1, 15}";
type = Stem;
},
{
horizontal = 1;
place = "{580, 84}";
type = Stem;
},
{
horizontal = 1;
origin = "{0, 12}";
target = "{0, 19}";
type = Stem;
},
{
horizontal = 1;
origin = "{0, 4}";
target = up;
type = BottomGhost;
},
{
origin = "{0, 29}";
target = "{1, 2}";
type = Stem;
},
{
origin = "{1, 12}";
target = "{0, 5}";
type = Stem;
},
{
origin = "{0, 4}";
target = "{0, 5}";
type = Stem;
}
);
layerId = "CAA188E2-8C62-414B-93AE-B576BEB044DB";
paths = (
{
closed = 1;
nodes = (
"684 -30 OFFCURVE",
"868 88 OFFCURVE",
"926 294 CURVE",
"886 296 LINE",
"886 0 LINE",
"964 0 LINE",
"964 676 LINE SMOOTH",
"964 748 OFFCURVE",
"956 830 OFFCURVE",
"938 884 CURVE SMOOTH",
"890 1022 OFFCURVE",
"752 1110 OFFCURVE",
"552 1110 CURVE SMOOTH",
"324 1110 OFFCURVE",
"170 1004 OFFCURVE",
"122 804 CURVE",
"214 780 LINE",
"258 946 OFFCURVE",
"366 1026 OFFCURVE",
"548 1026 CURVE SMOOTH",
"798 1026 OFFCURVE",
"886 902 OFFCURVE",
"880 648 CURVE",
"910 668 LINE",
"820 656 OFFCURVE",
"562 632 OFFCURVE",
"374 594 CURVE SMOOTH",
"220 562 OFFCURVE",
"80 476 OFFCURVE",
"80 286 CURVE SMOOTH",
"80 118 OFFCURVE",
"202 -30 OFFCURVE",
"454 -30 CURVE SMOOTH"
);
},
{
closed = 1;
nodes = (
"236 54 OFFCURVE",
"168 180 OFFCURVE",
"168 284 CURVE SMOOTH",
"168 432 OFFCURVE",
"294 492 OFFCURVE",
"392 516 CURVE SMOOTH",
"560 558 OFFCURVE",
"818 576 OFFCURVE",
"924 586 CURVE",
"880 620 LINE",
"880 582 OFFCURVE",
"882 482 OFFCURVE",
"872 408 CURVE SMOOTH",
"842 186 OFFCURVE",
"684 54 OFFCURVE",
"450 54 CURVE SMOOTH"
);
}
);
width = 1084;
},
{
background = {
paths = (
{
closed = 1;
nodes = (
"620 -30 OFFCURVE",
"714 24 OFFCURVE",
"808 132 CURVE",
"808 0 LINE",
"1046 0 LINE",
"1046 644 LINE SMOOTH",
"1046 718 OFFCURVE",
"1040 784 OFFCURVE",
"1022 840 CURVE SMOOTH",
"964 1018 OFFCURVE",
"814 1110 OFFCURVE",
"588 1110 CURVE",
"348 1110 OFFCURVE",
"190 968 OFFCURVE",
"118 804 CURVE",
"362 730 LINE",
"400 820 OFFCURVE",
"486 862 OFFCURVE",
"580 862 CURVE SMOOTH",
"674 862 OFFCURVE",
"762 824 OFFCURVE",
"776 714 CURVE",
"600 688 OFFCURVE",
"414 668 OFFCURVE",
"274 606 CURVE SMOOTH",
"162 556 OFFCURVE",
"80 466 OFFCURVE",
"80 308 CURVE SMOOTH",
"80 106 OFFCURVE",
"218 -30 OFFCURVE",
"436 -30 CURVE SMOOTH"
);
},
{
closed = 1;
nodes = (
"394 182 OFFCURVE",
"346 244 OFFCURVE",
"346 302 CURVE SMOOTH",
"346 374 OFFCURVE",
"404 412 OFFCURVE",
"484 434 CURVE SMOOTH",
"568 458 OFFCURVE",
"632 470 OFFCURVE",
"776 494 CURVE",
"776 444 OFFCURVE",
"772 366 OFFCURVE",
"740 312 CURVE SMOOTH",
"696 240 OFFCURVE",
"600 182 OFFCURVE",
"500 182 CURVE SMOOTH"
);
}
);
};
hints = (
{
horizontal = 1;
origin = "{0, 32}";
target = "{0, 29}";
type = Stem;
},
{
horizontal = 1;
place = "{494, 194}";
type = Stem;
},
{
horizontal = 1;
origin = "{0, 12}";
target = "{0, 19}";
type = Stem;
},
{
horizontal = 1;
origin = "{0, 4}";
target = up;
type = BottomGhost;
},
{
origin = "{0, 4}";
target = "{0, 5}";
type = Stem;
},
{
origin = "{0, 29}";
target = "{1, 2}";
type = Stem;
},
{
origin = "{0, 22}";
target = "{0, 5}";
type = Stem;
},
{
origin = "{1, 12}";
target = "{0, 5}";
type = Stem;
}
);
layerId = "0DA27741-1AFD-43F2-A947-40AFBF8D6498";
paths = (
{
closed = 1;
nodes = (
"626 -30 OFFCURVE",
"736 30 OFFCURVE",
"842 176 CURVE",
"808 222 LINE",
"808 0 LINE",
"1046 0 LINE",
"1046 660 LINE SMOOTH",
"1046 758 OFFCURVE",
"1044 834 OFFCURVE",
"1002 914 CURVE SMOOTH",
"926 1058 OFFCURVE",
"770 1110 OFFCURVE",
"580 1110 CURVE SMOOTH",
"320 1110 OFFCURVE",
"172 986 OFFCURVE",
"118 808 CURVE",
"364 730 LINE",
"398 828 OFFCURVE",
"500 862 OFFCURVE",
"580 862 CURVE SMOOTH",
"724 862 OFFCURVE",
"780 804 OFFCURVE",
"780 676 CURVE",
"878 730 LINE",
"626 692 OFFCURVE",
"436 668 OFFCURVE",
"316 624 CURVE SMOOTH",
"142 560 OFFCURVE",
"80 448 OFFCURVE",
"80 298 CURVE SMOOTH",
"80 118 OFFCURVE",
"208 -30 OFFCURVE",
"440 -30 CURVE SMOOTH"
);
},
{
closed = 1;
nodes = (
"404 184 OFFCURVE",
"346 228 OFFCURVE",
"346 302 CURVE SMOOTH",
"346 356 OFFCURVE",
"378 394 OFFCURVE",
"458 426 CURVE SMOOTH",
"528 452 OFFCURVE",
"614 468 OFFCURVE",
"856 508 CURVE",
"776 528 LINE",
"776 476 OFFCURVE",
"776 386 OFFCURVE",
"748 328 CURVE SMOOTH",
"726 282 OFFCURVE",
"648 184 OFFCURVE",
"498 184 CURVE SMOOTH"
);
}
);
width = 1166;
},
{
associatedMasterId = "0DA27741-1AFD-43F2-A947-40AFBF8D6498";
layerId = "A2873047-0ED6-4C67-9B4D-3870B51BD5C6";
width = 1200;
},
{
associatedMasterId = "0DA27741-1AFD-43F2-A947-40AFBF8D6498";
layerId = "55314CA7-5524-4D70-B802-98D4FAE25636";
width = 1070;
},
{
associatedMasterId = "0DA27741-1AFD-43F2-A947-40AFBF8D6498";
layerId = "13A3DD5D-E91B-4961-8595-F8141D3FA442";
width = 1180;
}
);
leftKerningGroup = a;
note = a;
rightKerningGroup = a;
rightMetricsKey = n;
unicode = 0061;
},
{
glyphname = ae;
lastChange = "2020-02-20 18:21:12 +0000";
layers = (
{
background = {
paths = (
{
closed = 1;
nodes = (
"1547 -30 OFFCURVE",
"1704 70 OFFCURVE",
"1787 258 CURVE",
"1721 298 LINE",
"1645 136 OFFCURVE",
"1517 54 OFFCURVE",
"1346 54 CURVE SMOOTH",
"1095 54 OFFCURVE",
"965 246 OFFCURVE",
"965 540 CURVE SMOOTH",
"965 826 OFFCURVE",
"1091 1030 OFFCURVE",
"1346 1026 CURVE SMOOTH",
"1596 1030 OFFCURVE",
"1719 840 OFFCURVE",
"1726 544 CURVE",
"1726 516 LINE",
"1811 516 LINE",
"1811 870 OFFCURVE",
"1662 1110 OFFCURVE",
"1346 1110 CURVE SMOOTH",
"1048 1110 OFFCURVE",
"880 880 OFFCURVE",
"880 540 CURVE SMOOTH",
"880 206 OFFCURVE",
"1046 -30 OFFCURVE",
"1346 -30 CURVE SMOOTH"
);
},
{
closed = 1;
nodes = (
"280 54 OFFCURVE",
"168 140 OFFCURVE",
"168 292 CURVE SMOOTH",
"168 404 OFFCURVE",
"236 464 OFFCURVE",
"300 492 CURVE SMOOTH",
"388 530 OFFCURVE",
"700 520 OFFCURVE",
"882 520 CURVE",
"880 440 OFFCURVE",
"874 360 OFFCURVE",
"830 268 CURVE SMOOTH",
"762 122 OFFCURVE",
"618 54 OFFCURVE",
"436 54 CURVE SMOOTH"
);
},
{
closed = 1;
nodes = (
"708 -32 OFFCURVE",
"870 82 OFFCURVE",
"938 300 CURVE",
"946 834 LINE",
"900 1008 OFFCURVE",
"766 1110 OFFCURVE",
"566 1110 CURVE SMOOTH",
"336 1110 OFFCURVE",
"166 1020 OFFCURVE",
"122 822 CURVE",
"210 794 LINE",
"254 964 OFFCURVE",
"382 1026 OFFCURVE",
"560 1026 CURVE SMOOTH",
"852 1026 OFFCURVE",
"886 792 OFFCURVE",
"882 600 CURVE",
"660 600 OFFCURVE",
"392 610 OFFCURVE",
"268 566 CURVE SMOOTH",
"150 524 OFFCURVE",
"80 422 OFFCURVE",
"80 292 CURVE SMOOTH",
"80 92 OFFCURVE",
"234 -28 OFFCURVE",
"434 -30 CURVE SMOOTH"
);
},
{
closed = 1;
nodes = (
"1762 516 LINE",
"1762 600 LINE",
"931 600 LINE",
"931 516 LINE"
);
}
);
};
layerId = "CAA188E2-8C62-414B-93AE-B576BEB044DB";
paths = (
{
closed = 1;
nodes = (
"1546 -30 OFFCURVE",
"1704 70 OFFCURVE",
"1786 258 CURVE",
"1720 298 LINE",
"1644 132 OFFCURVE",
"1510 54 OFFCURVE",
"1348 54 CURVE SMOOTH",
"1094 54 OFFCURVE",
"964 248 OFFCURVE",
"964 540 CURVE SMOOTH",
"964 828 OFFCURVE",
"1092 1026 OFFCURVE",
"1348 1026 CURVE SMOOTH",
"1598 1026 OFFCURVE",
"1718 840 OFFCURVE",
"1726 544 CURVE",
"1726 516 LINE",
"1812 516 LINE",
"1812 872 OFFCURVE",
"1660 1110 OFFCURVE",
"1352 1110 CURVE SMOOTH",
"1048 1110 OFFCURVE",
"880 880 OFFCURVE",
"880 542 CURVE SMOOTH",
"880 208 OFFCURVE",
"1044 -30 OFFCURVE",
"1348 -30 CURVE SMOOTH"
);
},
{
closed = 1;
nodes = (
"276 54 OFFCURVE",
"168 136 OFFCURVE",
"168 290 CURVE SMOOTH",
"168 520 OFFCURVE",
"408 520 OFFCURVE",
"534 520 CURVE SMOOTH",
"884 520 LINE",
"880 560 LINE",
"880 546 OFFCURVE",
"886 382 OFFCURVE",
"832 268 CURVE SMOOTH",
"772 138 OFFCURVE",
"626 54 OFFCURVE",
"450 54 CURVE SMOOTH"
);
},
{
closed = 1;
nodes = (
"650 -30 OFFCURVE",
"860 44 OFFCURVE",
"938 300 CURVE",
"964 676 LINE",
"964 732 OFFCURVE",
"960 782 OFFCURVE",
"946 834 CURVE SMOOTH",
"900 1008 OFFCURVE",
"770 1110 OFFCURVE",
"552 1110 CURVE SMOOTH",
"346 1110 OFFCURVE",
"164 1020 OFFCURVE",
"122 822 CURVE",
"210 794 LINE",
"252 964 OFFCURVE",
"390 1026 OFFCURVE",
"554 1026 CURVE SMOOTH",
"804 1026 OFFCURVE",
"892 870 OFFCURVE",
"880 588 CURVE",
"882 600 LINE",
"534 600 LINE SMOOTH",
"412 600 OFFCURVE",
"80 600 OFFCURVE",
"80 292 CURVE SMOOTH",
"80 90 OFFCURVE",
"224 -30 OFFCURVE",
"462 -30 CURVE SMOOTH"
);
},
{
closed = 1;
nodes = (
"1762 516 LINE",
"1762 600 LINE",
"930 600 LINE",
"930 516 LINE"
);
}
);
width = 1892;
},
{
background = {
paths = (
{
closed = 1;
nodes = (
"1512 -30 OFFCURVE",
"1699 86 OFFCURVE",
"1774 282 CURVE",
"1517 360 LINE",
"1478 270 OFFCURVE",
"1400 224 OFFCURVE",
"1306 224 CURVE SMOOTH",
"1145 224 OFFCURVE",
"1062 346 OFFCURVE",
"1062 540 CURVE SMOOTH",
"1062 732 OFFCURVE",
"1122 874 OFFCURVE",
"1306 874 CURVE SMOOTH",
"1489 874 OFFCURVE",
"1529 760 OFFCURVE",
"1529 564 CURVE SMOOTH",
"1529 464 LINE",
"1784 464 LINE",
"1812 840 OFFCURVE",
"1640 1110 OFFCURVE",
"1306 1110 CURVE SMOOTH",
"996 1110 OFFCURVE",
"790 876 OFFCURVE",
"790 526 CURVE SMOOTH",
"790 204 OFFCURVE",
"1001 -30 OFFCURVE",
"1321 -30 CURVE SMOOTH"
);
},
{
closed = 1;
nodes = (
"390 182 OFFCURVE",
"346 244 OFFCURVE",
"346 302 CURVE SMOOTH",
"346 380 OFFCURVE",
"398 412 OFFCURVE",
"448 426 CURVE SMOOTH",
"520 446 OFFCURVE",
"686 444 OFFCURVE",
"790 444 CURVE",
"776 394 OFFCURVE",
"768 364 OFFCURVE",
"736 314 CURVE SMOOTH",
"692 244 OFFCURVE",
"600 182 OFFCURVE",
"500 182 CURVE SMOOTH"
);
},
{
closed = 1;
nodes = (
"646 -30 OFFCURVE",
"788 28 OFFCURVE",
"908 212 CURVE",
"1022 840 LINE",
"964 1018 OFFCURVE",
"814 1110 OFFCURVE",
"588 1110 CURVE",
"348 1110 OFFCURVE",
"190 968 OFFCURVE",
"118 804 CURVE",
"362 730 LINE",
"400 820 OFFCURVE",
"486 862 OFFCURVE",
"580 862 CURVE SMOOTH",
"674 862 OFFCURVE",
"794 796 OFFCURVE",
"794 678 CURVE",
"550 678 OFFCURVE",
"400 692 OFFCURVE",
"256 610 CURVE SMOOTH",
"178 566 OFFCURVE",
"80 466 OFFCURVE",
"80 308 CURVE SMOOTH",
"80 106 OFFCURVE",
"222 -30 OFFCURVE",
"450 -30 CURVE SMOOTH"
);
},
{
closed = 1;
nodes = (
"1659 464 LINE",
"1659 674 LINE",
"982 674 LINE",
"982 464 LINE"
);
}
);
};
layerId = "0DA27741-1AFD-43F2-A947-40AFBF8D6498";
paths = (
{
closed = 1;
nodes = (
"1512 -30 OFFCURVE",
"1699 86 OFFCURVE",
"1774 282 CURVE",
"1517 360 LINE",
"1478 270 OFFCURVE",
"1400 224 OFFCURVE",
"1306 224 CURVE SMOOTH",
"1145 224 OFFCURVE",
"1062 346 OFFCURVE",
"1062 540 CURVE SMOOTH",
"1062 732 OFFCURVE",
"1122 874 OFFCURVE",
"1306 874 CURVE SMOOTH",
"1489 874 OFFCURVE",
"1529 760 OFFCURVE",
"1529 564 CURVE SMOOTH",
"1529 464 LINE",
"1784 464 LINE",
"1812 840 OFFCURVE",
"1640 1110 OFFCURVE",
"1306 1110 CURVE SMOOTH",
"996 1110 OFFCURVE",
"790 876 OFFCURVE",
"790 526 CURVE SMOOTH",
"790 204 OFFCURVE",
"1001 -30 OFFCURVE",
"1321 -30 CURVE SMOOTH"
);
},
{
closed = 1;
nodes = (
"402 182 OFFCURVE",
"346 232 OFFCURVE",
"346 300 CURVE SMOOTH",
"346 428 OFFCURVE",
"544 458 OFFCURVE",
"648 470 CURVE SMOOTH",
"876 498 LINE",
"778 532 LINE",
"782 440 OFFCURVE",
"772 368 OFFCURVE",
"740 312 CURVE SMOOTH",
"702 248 OFFCURVE",
"608 182 OFFCURVE",
"498 182 CURVE SMOOTH"
);
},
{
closed = 1;
nodes = (
"652 -30 OFFCURVE",
"802 40 OFFCURVE",
"908 212 CURVE",
"1046 644 LINE",
"1046 682 OFFCURVE",
"1046 762 OFFCURVE",
"1022 840 CURVE SMOOTH",
"970 1008 OFFCURVE",
"822 1110 OFFCURVE",
"588 1110 CURVE SMOOTH",
"348 1110 OFFCURVE",
"190 968 OFFCURVE",
"118 804 CURVE",
"362 730 LINE",
"400 820 OFFCURVE",
"486 862 OFFCURVE",
"580 862 CURVE SMOOTH",
"694 862 OFFCURVE",
"796 806 OFFCURVE",
"774 630 CURVE",
"838 682 LINE",
"592 650 LINE SMOOTH",
"402 626 OFFCURVE",
"80 578 OFFCURVE",
"80 290 CURVE SMOOTH",
"80 106 OFFCURVE",
"212 -30 OFFCURVE",
"454 -30 CURVE SMOOTH"
);
},
{
closed = 1;
nodes = (
"1659 464 LINE",
"1659 674 LINE",
"982 674 LINE",
"982 464 LINE"
);
}
);
width = 1868;
},
{
associatedMasterId = "0DA27741-1AFD-43F2-A947-40AFBF8D6498";
layerId = "A2873047-0ED6-4C67-9B4D-3870B51BD5C6";
width = 1200;
},
{
associatedMasterId = "0DA27741-1AFD-43F2-A947-40AFBF8D6498";
layerId = "55314CA7-5524-4D70-B802-98D4FAE25636";
width = 2058;
},
{
associatedMasterId = "0DA27741-1AFD-43F2-A947-40AFBF8D6498";
layerId = "13A3DD5D-E91B-4961-8595-F8141D3FA442";
width = 1338;
}
);
leftKerningGroup = a;
leftMetricsKey = a;
rightKerningGroup = e;
rightMetricsKey = e;
unicode = 00E6;
},
{
glyphname = b;
lastChange = "2020-02-20 18:21:12 +0000";
layers = (
{
layerId = "CAA188E2-8C62-414B-93AE-B576BEB044DB";
paths = (
{
closed = 1;
nodes = (
"908 -30 OFFCURVE",
"1072 218 OFFCURVE",
"1072 542 CURVE SMOOTH",
"1072 860 OFFCURVE",
"908 1110 OFFCURVE",
"618 1110 CURVE SMOOTH",
"316 1110 OFFCURVE",
"154 870 OFFCURVE",
"154 542 CURVE SMOOTH",
"154 220 OFFCURVE",
"316 -30 OFFCURVE",
"602 -30 CURVE SMOOTH"
);
},
{
closed = 1;
nodes = (
"218 0 LINE",
"218 850 LINE",
"224 850 LINE",
"224 1440 LINE",
"140 1440 LINE",
"140 0 LINE"
);
},
{
closed = 1;
nodes = (
"348 54 OFFCURVE",
"218 264 OFFCURVE",
"218 542 CURVE SMOOTH",
"218 824 OFFCURVE",
"350 1026 OFFCURVE",
"602 1026 CURVE SMOOTH",
"860 1026 OFFCURVE",
"982 818 OFFCURVE",
"982 542 CURVE SMOOTH",
"982 264 OFFCURVE",
"852 54 OFFCURVE",
"602 54 CURVE SMOOTH"
);
}
);
width = 1152;
},
{
layerId = "0DA27741-1AFD-43F2-A947-40AFBF8D6498";
paths = (
{
closed = 1;
nodes = (
"968 -30 OFFCURVE",
"1168 216 OFFCURVE",
"1168 540 CURVE SMOOTH",
"1168 870 OFFCURVE",
"966 1110 OFFCURVE",
"656 1110 CURVE SMOOTH",
"348 1110 OFFCURVE",
"184 864 OFFCURVE",
"184 540 CURVE SMOOTH",
"184 216 OFFCURVE",
"348 -30 OFFCURVE",
"670 -30 CURVE SMOOTH"
);
},
{
closed = 1;
nodes = (
"378 0 LINE",
"378 740 LINE",
"412 740 LINE",
"412 1440 LINE",
"138 1440 LINE",
"138 0 LINE"
);
},
{
closed = 1;
nodes = (
"444 212 OFFCURVE",
"378 344 OFFCURVE",
"378 540 CURVE SMOOTH",
"378 736 OFFCURVE",
"446 868 OFFCURVE",
"616 868 CURVE SMOOTH",
"798 868 OFFCURVE",
"880 720 OFFCURVE",
"880 540 CURVE SMOOTH",
"880 358 OFFCURVE",
"802 212 OFFCURVE",
"626 212 CURVE SMOOTH"
);
}
);
width = 1248;
},
{
associatedMasterId = "0DA27741-1AFD-43F2-A947-40AFBF8D6498";
layerId = "A2873047-0ED6-4C67-9B4D-3870B51BD5C6";
width = 1200;
},
{
associatedMasterId = "0DA27741-1AFD-43F2-A947-40AFBF8D6498";
layerId = "55314CA7-5524-4D70-B802-98D4FAE25636";
width = 1150;
},
{
associatedMasterId = "0DA27741-1AFD-43F2-A947-40AFBF8D6498";
layerId = "13A3DD5D-E91B-4961-8595-F8141D3FA442";
width = 1192;
}
);
leftKerningGroup = n;
leftMetricsKey = n;
note = b;
rightKerningGroup = o;
rightMetricsKey = o;
unicode = 0062;
},
{
glyphname = c;
lastChange = "2020-02-20 18:21:12 +0000";
layers = (
{
layerId = "CAA188E2-8C62-414B-93AE-B576BEB044DB";
paths = (
{
closed = 1;
nodes = (
"770 -30 OFFCURVE",
"918 60 OFFCURVE",
"1008 234 CURVE",
"926 270 LINE",
"860 128 OFFCURVE",
"732 54 OFFCURVE",
"574 54 CURVE SMOOTH",
"308 54 OFFCURVE",
"174 246 OFFCURVE",
"170 540 CURVE SMOOTH",
"174 828 OFFCURVE",
"302 1026 OFFCURVE",
"574 1026 CURVE SMOOTH",
"736 1026 OFFCURVE",
"868 946 OFFCURVE",
"928 808 CURVE",
"1008 842 LINE",
"942 1008 OFFCURVE",
"774 1110 OFFCURVE",
"574 1110 CURVE SMOOTH",
"254 1110 OFFCURVE",
"86 886 OFFCURVE",
"80 540 CURVE SMOOTH",
"86 202 OFFCURVE",
"252 -30 OFFCURVE",
"574 -30 CURVE SMOOTH"
);
}
);
width = 1078;
},
{
layerId = "0DA27741-1AFD-43F2-A947-40AFBF8D6498";
paths = (
{
closed = 1;
nodes = (
"866 -30 OFFCURVE",
"1044 98 OFFCURVE",
"1106 328 CURVE",
"828 386 LINE",
"796 282 OFFCURVE",
"738 224 OFFCURVE",
"616 224 CURVE SMOOTH",
"452 224 OFFCURVE",
"368 352 OFFCURVE",
"368 540 CURVE SMOOTH",
"368 720 OFFCURVE",
"444 856 OFFCURVE",
"616 856 CURVE SMOOTH",
"716 856 OFFCURVE",
"802 790 OFFCURVE",
"834 678 CURVE",
"1106 750 LINE",
"1058 972 OFFCURVE",
"874 1110 OFFCURVE",
"620 1110 CURVE SMOOTH",
"290 1110 OFFCURVE",
"80 868 OFFCURVE",
"80 540 CURVE SMOOTH",
"80 216 OFFCURVE",
"280 -30 OFFCURVE",
"616 -30 CURVE SMOOTH"
);
}
);
width = 1166;
},
{
associatedMasterId = "0DA27741-1AFD-43F2-A947-40AFBF8D6498";
layerId = "A2873047-0ED6-4C67-9B4D-3870B51BD5C6";
width = 1200;
},
{
associatedMasterId = "0DA27741-1AFD-43F2-A947-40AFBF8D6498";
layerId = "55314CA7-5524-4D70-B802-98D4FAE25636";
width = 1132;
},
{
associatedMasterId = "0DA27741-1AFD-43F2-A947-40AFBF8D6498";
layerId = "13A3DD5D-E91B-4961-8595-F8141D3FA442";
width = 1190;
}
);
leftKerningGroup = o;
leftMetricsKey = o;
note = c;
rightKerningGroup = c;
unicode = 0063;
},
{
glyphname = d;
lastChange = "2020-02-20 18:21:12 +0000";
layers = (
{
layerId = "CAA188E2-8C62-414B-93AE-B576BEB044DB";
paths = (
{
closed = 1;
nodes = (
"836 -30 OFFCURVE",
"998 220 OFFCURVE",
"998 542 CURVE SMOOTH",
"998 870 OFFCURVE",
"836 1110 OFFCURVE",
"534 1110 CURVE SMOOTH",
"244 1110 OFFCURVE",
"80 860 OFFCURVE",
"80 542 CURVE SMOOTH",
"80 218 OFFCURVE",
"244 -30 OFFCURVE",
"550 -30 CURVE SMOOTH"
);
},
{
closed = 1;
nodes = (
"300 54 OFFCURVE",
"170 264 OFFCURVE",
"170 542 CURVE SMOOTH",
"170 818 OFFCURVE",
"292 1026 OFFCURVE",
"550 1026 CURVE SMOOTH",
"802 1026 OFFCURVE",
"934 824 OFFCURVE",
"934 542 CURVE SMOOTH",
"934 264 OFFCURVE",
"804 54 OFFCURVE",
"550 54 CURVE SMOOTH"
);
},
{
closed = 1;
nodes = (
"1012 0 LINE",
"1012 1440 LINE",
"928 1440 LINE",
"928 850 LINE",
"934 850 LINE",
"934 0 LINE"
);
}
);
width = 1152;
},
{
layerId = "0DA27741-1AFD-43F2-A947-40AFBF8D6498";
paths = (
{
closed = 1;
nodes = (
"900 -30 OFFCURVE",
"1064 216 OFFCURVE",
"1064 540 CURVE SMOOTH",
"1064 864 OFFCURVE",
"900 1110 OFFCURVE",
"592 1110 CURVE SMOOTH",
"282 1110 OFFCURVE",
"80 870 OFFCURVE",
"80 540 CURVE SMOOTH",
"80 216 OFFCURVE",
"280 -30 OFFCURVE",
"578 -30 CURVE SMOOTH"
);
},
{
closed = 1;
nodes = (
"446 212 OFFCURVE",
"368 358 OFFCURVE",
"368 540 CURVE SMOOTH",
"368 720 OFFCURVE",
"450 868 OFFCURVE",
"632 868 CURVE SMOOTH",
"802 868 OFFCURVE",
"870 736 OFFCURVE",
"870 540 CURVE SMOOTH",
"870 344 OFFCURVE",
"804 212 OFFCURVE",
"622 212 CURVE SMOOTH"
);
},
{
closed = 1;
nodes = (
"1110 0 LINE",
"1110 1440 LINE",
"836 1440 LINE",
"836 740 LINE",
"870 740 LINE",
"870 0 LINE"
);
}
);
width = 1250;
},
{
associatedMasterId = "0DA27741-1AFD-43F2-A947-40AFBF8D6498";
layerId = "A2873047-0ED6-4C67-9B4D-3870B51BD5C6";
width = 1200;
},
{
associatedMasterId = "0DA27741-1AFD-43F2-A947-40AFBF8D6498";
layerId = "55314CA7-5524-4D70-B802-98D4FAE25636";
width = 1150;
},
{
associatedMasterId = "0DA27741-1AFD-43F2-A947-40AFBF8D6498";
layerId = "13A3DD5D-E91B-4961-8595-F8141D3FA442";
width = 1192;
}
);
leftKerningGroup = o;
note = d;
rightKerningGroup = u;
unicode = 0064;
},
{
glyphname = eth;
lastChange = "2020-02-20 18:21:12 +0000";
layers = (
{
layerId = "CAA188E2-8C62-414B-93AE-B576BEB044DB";
paths = (
{
closed = 1;
nodes = (
"878 -34 OFFCURVE",
"1066 180 OFFCURVE",
"1066 506 CURVE SMOOTH",
"1066 842 OFFCURVE",
"1054 994 OFFCURVE",
"976 1144 CURVE SMOOTH",
"880 1340 OFFCURVE",
"704 1452 OFFCURVE",
"470 1466 CURVE",
"460 1384 LINE",
"762 1362 OFFCURVE",
"934 1170 OFFCURVE",
"970 850 CURVE",
"886 976 OFFCURVE",
"730 1040 OFFCURVE",
"574 1038 CURVE SMOOTH",
"266 1042 OFFCURVE",
"84 832 OFFCURVE",
"80 504 CURVE SMOOTH",
"84 180 OFFCURVE",
"262 -34 OFFCURVE",
"574 -30 CURVE SMOOTH"
);
},
{
closed = 1;
nodes = (
"314 54 OFFCURVE",
"170 222 OFFCURVE",
"170 504 CURVE SMOOTH",
"170 778 OFFCURVE",
"312 958 OFFCURVE",
"574 954 CURVE SMOOTH",
"828 958 OFFCURVE",
"976 784 OFFCURVE",
"976 506 CURVE SMOOTH",
"976 230 OFFCURVE",
"838 54 OFFCURVE",
"574 54 CURVE SMOOTH"
);
},
{
closed = 1;
nodes = (
"884 1512 LINE",
"818 1564 LINE",
"540 1210 LINE",
"606 1158 LINE"
);
}
);
width = 1146;
},
{
layerId = "0DA27741-1AFD-43F2-A947-40AFBF8D6498";
paths = (
{
closed = 1;
nodes = (
"920 -30 OFFCURVE",
"1122 180 OFFCURVE",
"1122 510 CURVE SMOOTH",
"1122 898 OFFCURVE",
"1064 1128 OFFCURVE",
"920 1304 CURVE SMOOTH",
"810 1440 OFFCURVE",
"648 1514 OFFCURVE",
"444 1520 CURVE",
"402 1314 LINE",
"622 1298 OFFCURVE",
"840 1136 OFFCURVE",
"866 966 CURVE",
"760 1018 OFFCURVE",
"690 1036 OFFCURVE",
"602 1036 CURVE SMOOTH",
"294 1036 OFFCURVE",
"80 818 OFFCURVE",
"80 502 CURVE SMOOTH",
"80 188 OFFCURVE",
"294 -30 OFFCURVE",
"602 -30 CURVE SMOOTH"
);
},
{
closed = 1;
nodes = (
"442 210 OFFCURVE",
"352 316 OFFCURVE",
"352 504 CURVE SMOOTH",
"352 692 OFFCURVE",
"440 796 OFFCURVE",
"602 796 CURVE SMOOTH",
"758 796 OFFCURVE",
"850 688 OFFCURVE",
"850 504 CURVE SMOOTH",
"850 318 OFFCURVE",
"758 210 OFFCURVE",
"602 210 CURVE SMOOTH"
);
},
{
closed = 1;
nodes = (
"970 1434 LINE",
"822 1566 LINE",
"492 1190 LINE",
"640 1058 LINE"
);
}
);
width = 1202;
},
{
associatedMasterId = "0DA27741-1AFD-43F2-A947-40AFBF8D6498";
layerId = "A2873047-0ED6-4C67-9B4D-3870B51BD5C6";
width = 1200;
},
{
associatedMasterId = "0DA27741-1AFD-43F2-A947-40AFBF8D6498";
layerId = "55314CA7-5524-4D70-B802-98D4FAE25636";
width = 1170;
},
{
associatedMasterId = "0DA27741-1AFD-43F2-A947-40AFBF8D6498";
layerId = "13A3DD5D-E91B-4961-8595-F8141D3FA442";
width = 1196;
}
);
leftKerningGroup = d;
leftMetricsKey = d;
rightKerningGroup = b;
rightMetricsKey = b;
unicode = 00F0;
},
{
glyphname = e;
lastChange = "2020-03-29 06:08:58 +0000";
layers = (
{
layerId = "CAA188E2-8C62-414B-93AE-B576BEB044DB";
paths = (
{
closed = 1;
nodes = (
"784 -30 OFFCURVE",
"952 74 OFFCURVE",
"1040 258 CURVE",
"970 298 LINE",
"890 140 OFFCURVE",
"752 54 OFFCURVE",
"574 54 CURVE SMOOTH",
"318 54 OFFCURVE",
"170 232 OFFCURVE",
"170 540 CURVE SMOOTH",
"170 848 OFFCURVE",
"318 1026 OFFCURVE",
"574 1026 CURVE SMOOTH",
"826 1026 OFFCURVE",
"968 854 OFFCURVE",
"976 544 CURVE",
"976 516 LINE",
"1066 516 LINE",
"1066 892 OFFCURVE",
"884 1110 OFFCURVE",
"574 1110 CURVE SMOOTH",
"266 1110 OFFCURVE",
"80 894 OFFCURVE",
"80 540 CURVE SMOOTH",
"80 188 OFFCURVE",
"268 -30 OFFCURVE",
"574 -30 CURVE SMOOTH"
);
},
{
closed = 1;
nodes = (
"1014 516 LINE",
"1014 600 LINE",
"134 600 LINE",
"134 516 LINE"
);
}
);
width = 1146;
},
{
background = {
paths = (
{
closed = 1;
nodes = (
"854 -30 OFFCURVE",
"1046 94 OFFCURVE",
"1122 282 CURVE",
"850 360 LINE",
"810 272 OFFCURVE",
"730 224 OFFCURVE",
"626 224 CURVE SMOOTH",
"462 224 OFFCURVE",
"368 338 OFFCURVE",
"368 540 CURVE SMOOTH",
"368 762 OFFCURVE",
"454 874 OFFCURVE",
"626 874 CURVE SMOOTH",
"798 874 OFFCURVE",
"862 790 OFFCURVE",
"862 564 CURVE SMOOTH",
"862 464 LINE",
"1131 464 LINE",
"1164 856 OFFCURVE",
"966 1110 OFFCURVE",
"626 1110 CURVE SMOOTH",
"298 1110 OFFCURVE",
"80 876 OFFCURVE",
"80 526 CURVE SMOOTH",
"80 198 OFFCURVE",
"310 -30 OFFCURVE",
"642 -30 CURVE SMOOTH"
);
},
{
closed = 1;
nodes = (
"1000 464 LINE",
"1000 666 LINE",
"284 666 LINE",
"284 464 LINE"
);
}
);
};
layerId = "0DA27741-1AFD-43F2-A947-40AFBF8D6498";
paths = (
{
closed = 1;
nodes = (
"850 -30 OFFCURVE",
"1040 84 OFFCURVE",
"1122 282 CURVE",
"850 360 LINE",
"810 272 OFFCURVE",
"732 224 OFFCURVE",
"626 224 CURVE SMOOTH",
"456 224 OFFCURVE",
"368 338 OFFCURVE",
"368 540 CURVE SMOOTH",
"368 760 OFFCURVE",
"452 874 OFFCURVE",
"638 874 CURVE SMOOTH",
"796 874 OFFCURVE",
"862 784 OFFCURVE",
"862 564 CURVE SMOOTH",
"862 464 LINE",
"1131 464 LINE",
"1164 856 OFFCURVE",
"966 1110 OFFCURVE",
"626 1110 CURVE SMOOTH",
"306 1110 OFFCURVE",
"80 880 OFFCURVE",
"80 526 CURVE SMOOTH",
"80 202 OFFCURVE",
"310 -30 OFFCURVE",
"642 -30 CURVE SMOOTH"
);
},
{
closed = 1;
nodes = (
"1000 464 LINE",
"1000 666 LINE",
"284 666 LINE",
"284 464 LINE"
);
}
);
width = 1216;
},
{
associatedMasterId = "0DA27741-1AFD-43F2-A947-40AFBF8D6498";
layerId = "A2873047-0ED6-4C67-9B4D-3870B51BD5C6";
width = 1200;
},
{
associatedMasterId = "0DA27741-1AFD-43F2-A947-40AFBF8D6498";
layerId = "55314CA7-5524-4D70-B802-98D4FAE25636";
width = 1168;
},
{
associatedMasterId = "0DA27741-1AFD-43F2-A947-40AFBF8D6498";
layerId = "13A3DD5D-E91B-4961-8595-F8141D3FA442";
width = 1194;
}
);
leftKerningGroup = o;
leftMetricsKey = o;
note = e;
rightKerningGroup = e;
unicode = 0065;
},
{
glyphname = eogonek;
lastChange = "2020-02-20 18:21:12 +0000";
layers = (
{
components = (
{
name = e;
}
);
layerId = "CAA188E2-8C62-414B-93AE-B576BEB044DB";
paths = (
{
closed = 1;
nodes = (
"888 -448 OFFCURVE",
"918 -426 OFFCURVE",
"942 -402 CURVE",
"890 -344 LINE",
"842 -388 OFFCURVE",
"772 -424 OFFCURVE",
"718 -370 CURVE SMOOTH",
"690 -342 OFFCURVE",
"692 -306 OFFCURVE",
"702 -268 CURVE SMOOTH",
"716 -216 OFFCURVE",
"750 -162 OFFCURVE",
"784 -112 CURVE SMOOTH",
"816 -66 OFFCURVE",
"976 118 OFFCURVE",
"1032 242 CURVE",
"948 236 LINE",
"890 104 OFFCURVE",
"750 -26 OFFCURVE",
"710 -80 CURVE SMOOTH",
"670 -132 OFFCURVE",
"638 -188 OFFCURVE",
"622 -246 CURVE SMOOTH",
"602 -318 OFFCURVE",
"612 -382 OFFCURVE",
"660 -430 CURVE SMOOTH",
"706 -476 OFFCURVE",
"780 -494 OFFCURVE",
"852 -464 CURVE SMOOTH"
);
}
);
width = 1146;
},
{
components = (
{
name = e;
}
);
layerId = "0DA27741-1AFD-43F2-A947-40AFBF8D6498";
paths = (
{
closed = 1;
nodes = (
"1022 -440 OFFCURVE",
"1054 -410 OFFCURVE",
"1074 -374 CURVE",
"980 -250 LINE",
"948 -276 OFFCURVE",
"896 -290 OFFCURVE",
"872 -262 CURVE SMOOTH",
"854 -242 OFFCURVE",
"860 -206 OFFCURVE",
"864 -194 CURVE SMOOTH",
"876 -156 OFFCURVE",
"900 -100 OFFCURVE",
"936 -36 CURVE SMOOTH",
"972 28 OFFCURVE",
"1018 106 OFFCURVE",
"1080 204 CURVE",
"910 232 LINE",
"860 178 OFFCURVE",
"804 92 OFFCURVE",
"776 48 CURVE SMOOTH",
"748 4 OFFCURVE",
"702 -64 OFFCURVE",
"676 -124 CURVE SMOOTH",
"636 -216 OFFCURVE",
"654 -324 OFFCURVE",
"706 -390 CURVE SMOOTH",
"768 -470 OFFCURVE",
"884 -502 OFFCURVE",
"978 -460 CURVE SMOOTH"
);
}
);
width = 1216;
},
{
associatedMasterId = "0DA27741-1AFD-43F2-A947-40AFBF8D6498";
layerId = "A2873047-0ED6-4C67-9B4D-3870B51BD5C6";
width = 1200;
},
{
associatedMasterId = "0DA27741-1AFD-43F2-A947-40AFBF8D6498";
layerId = "55314CA7-5524-4D70-B802-98D4FAE25636";
width = 1168;
},
{
associatedMasterId = "0DA27741-1AFD-43F2-A947-40AFBF8D6498";
layerId = "13A3DD5D-E91B-4961-8595-F8141D3FA442";
width = 1194;
}
);
leftKerningGroup = e;
leftMetricsKey = e;
rightKerningGroup = e;
rightMetricsKey = e;
unicode = 0119;
},
{
glyphname = f;
lastChange = "2020-03-06 05:46:42 +0000";
layers = (
{
layerId = "CAA188E2-8C62-414B-93AE-B576BEB044DB";
paths = (
{
closed = 1;
nodes = (
"340 0 LINE",
"340 1194 LINE SMOOTH",
"340 1340 OFFCURVE",
"402 1394 OFFCURVE",
"528 1394 CURVE SMOOTH",
"658 1394 LINE",
"658 1470 LINE",
"518 1470 LINE SMOOTH",
"432 1470 OFFCURVE",
"368 1452 OFFCURVE",
"320 1402 CURVE SMOOTH",
"270 1348 OFFCURVE",
"256 1286 OFFCURVE",
"256 1202 CURVE SMOOTH",
"256 0 LINE"
);
},
{
closed = 1;
nodes = (
"658 996 LINE",
"658 1080 LINE",
"60 1080 LINE",
"60 996 LINE"
);
}
);
width = 678;
},
{
layerId = "0DA27741-1AFD-43F2-A947-40AFBF8D6498";
paths = (
{
closed = 1;
nodes = (
"502 0 LINE",
"502 1140 LINE SMOOTH",
"502 1200 OFFCURVE",
"542 1250 OFFCURVE",
"628 1250 CURVE",
"752 1250 LINE",
"752 1470 LINE",
"618 1470 LINE",
"540 1470 OFFCURVE",
"402 1482 OFFCURVE",
"302 1370 CURVE SMOOTH",
"224 1284 OFFCURVE",
"230 1158 OFFCURVE",
"230 1076 CURVE SMOOTH",
"230 0 LINE"
);
},
{
closed = 1;
nodes = (
"752 870 LINE",
"752 1080 LINE",
"60 1080 LINE",
"60 870 LINE"
);
}
);
width = 772;
},
{
associatedMasterId = "0DA27741-1AFD-43F2-A947-40AFBF8D6498";
layerId = "A2873047-0ED6-4C67-9B4D-3870B51BD5C6";
width = 1200;
},
{
associatedMasterId = "0DA27741-1AFD-43F2-A947-40AFBF8D6498";
layerId = "55314CA7-5524-4D70-B802-98D4FAE25636";
width = 596;
},
{
associatedMasterId = "0DA27741-1AFD-43F2-A947-40AFBF8D6498";
layerId = "13A3DD5D-E91B-4961-8595-F8141D3FA442";
width = 1104;
}
);
leftKerningGroup = f;
note = f;
rightKerningGroup = f;
unicode = 0066;
},
{
glyphname = g;
lastChange = "2020-02-20 18:21:12 +0000";
layers = (
{
layerId = "CAA188E2-8C62-414B-93AE-B576BEB044DB";
paths = (
{
closed = 1;
nodes = (
"830 -510 OFFCURVE",
"970 -388 OFFCURVE",
"1002 -126 CURVE SMOOTH",
"1010 -66 OFFCURVE",
"1012 -6 OFFCURVE",
"1012 60 CURVE SMOOTH",
"1012 1080 LINE",
"934 1080 LINE",
"934 336 LINE",
"926 336 LINE",
"926 60 LINE SMOOTH",
"926 -260 OFFCURVE",
"842 -424 OFFCURVE",
"552 -424 CURVE SMOOTH",
"418 -424 OFFCURVE",
"274 -368 OFFCURVE",
"202 -220 CURVE",
"128 -270 LINE",
"226 -452 OFFCURVE",
"396 -510 OFFCURVE",
"552 -510 CURVE SMOOTH"
);
},
{
closed = 1;
nodes = (
"836 -30 OFFCURVE",
"998 220 OFFCURVE",
"998 542 CURVE SMOOTH",
"998 870 OFFCURVE",
"836 1110 OFFCURVE",
"534 1110 CURVE SMOOTH",
"244 1110 OFFCURVE",
"80 860 OFFCURVE",
"80 542 CURVE SMOOTH",
"80 218 OFFCURVE",
"244 -30 OFFCURVE",
"550 -30 CURVE SMOOTH"
);
},
{
closed = 1;
nodes = (
"300 54 OFFCURVE",
"170 264 OFFCURVE",
"170 542 CURVE SMOOTH",
"170 818 OFFCURVE",
"292 1026 OFFCURVE",
"550 1026 CURVE SMOOTH",
"802 1026 OFFCURVE",
"934 824 OFFCURVE",
"934 542 CURVE SMOOTH",
"934 264 OFFCURVE",
"804 54 OFFCURVE",
"550 54 CURVE SMOOTH"
);
}
);
width = 1152;
},
{
layerId = "0DA27741-1AFD-43F2-A947-40AFBF8D6498";
paths = (
{
closed = 1;
nodes = (
"840 -510 OFFCURVE",
"1040 -418 OFFCURVE",
"1092 -220 CURVE SMOOTH",
"1104 -174 OFFCURVE",
"1108 -128 OFFCURVE",
"1108 -74 CURVE SMOOTH",
"1108 1080 LINE",
"870 1080 LINE",
"870 244 LINE",
"836 244 LINE",
"836 -70 LINE SMOOTH",
"840 -190 OFFCURVE",
"726 -252 OFFCURVE",
"604 -252 CURVE SMOOTH",
"528 -252 OFFCURVE",
"458 -218 OFFCURVE",
"424 -154 CURVE",
"172 -276 LINE",
"254 -416 OFFCURVE",
"418 -510 OFFCURVE",
"602 -510 CURVE SMOOTH"
);
},
{
closed = 1;
nodes = (
"900 -30 OFFCURVE",
"1064 216 OFFCURVE",
"1064 540 CURVE SMOOTH",
"1064 864 OFFCURVE",
"900 1110 OFFCURVE",
"592 1110 CURVE SMOOTH",
"282 1110 OFFCURVE",
"80 870 OFFCURVE",
"80 540 CURVE SMOOTH",
"80 216 OFFCURVE",
"280 -30 OFFCURVE",
"578 -30 CURVE SMOOTH"
);
},
{
closed = 1;
nodes = (
"446 212 OFFCURVE",
"368 358 OFFCURVE",
"368 540 CURVE SMOOTH",
"368 720 OFFCURVE",
"450 868 OFFCURVE",
"632 868 CURVE SMOOTH",
"802 868 OFFCURVE",
"870 736 OFFCURVE",
"870 540 CURVE SMOOTH",
"870 344 OFFCURVE",
"804 212 OFFCURVE",
"622 212 CURVE SMOOTH"
);
}
);
width = 1248;
},
{
associatedMasterId = "0DA27741-1AFD-43F2-A947-40AFBF8D6498";
layerId = "A2873047-0ED6-4C67-9B4D-3870B51BD5C6";
width = 1200;
},
{
associatedMasterId = "0DA27741-1AFD-43F2-A947-40AFBF8D6498";
layerId = "55314CA7-5524-4D70-B802-98D4FAE25636";
width = 1150;
},
{
associatedMasterId = "0DA27741-1AFD-43F2-A947-40AFBF8D6498";
layerId = "13A3DD5D-E91B-4961-8595-F8141D3FA442";
width = 1192;
}
);
leftKerningGroup = g;
leftMetricsKey = o;
note = g;
rightKerningGroup = g;
rightMetricsKey = u;
unicode = 0067;
},
{
glyphname = h;
lastChange = "2020-02-20 18:21:12 +0000";
layers = (
{
background = {
paths = (
{
closed = 1;
nodes = (
"1026 0 LINE",
"1026 526 LINE SMOOTH",
"1030 730 OFFCURVE",
"998 922 OFFCURVE",
"834 1034 CURVE SMOOTH",
"750 1090 OFFCURVE",
"650 1110 OFFCURVE",
"556 1102 CURVE SMOOTH",
"460 1098 OFFCURVE",
"362 1064 OFFCURVE",
"290 996 CURVE SMOOTH",
"218 928 OFFCURVE",
"178 834 OFFCURVE",
"160 744 CURVE SMOOTH",
"146 676 OFFCURVE",
"148 670 OFFCURVE",
"146 474 CURVE",
"224 474 LINE",
"224 562 OFFCURVE",
"220 648 OFFCURVE",
"238 728 CURVE SMOOTH",
"252 808 OFFCURVE",
"288 884 OFFCURVE",
"346 936 CURVE SMOOTH",
"402 990 OFFCURVE",
"480 1018 OFFCURVE",
"560 1022 CURVE SMOOTH",
"642 1026 OFFCURVE",
"722 1008 OFFCURVE",
"788 966 CURVE SMOOTH",
"924 874 OFFCURVE",
"942 720 OFFCURVE",
"942 526 CURVE SMOOTH",
"942 0 LINE"
);
},
{
closed = 1;
nodes = (
"224 0 LINE",
"224 590 LINE",
"218 590 LINE",
"218 1440 LINE",
"140 1440 LINE",
"140 0 LINE"
);
}
);
};
layerId = "CAA188E2-8C62-414B-93AE-B576BEB044DB";
paths = (
{
closed = 1;
nodes = (
"1026 0 LINE",
"1026 588 LINE SMOOTH",
"1026 908 OFFCURVE",
"862 1104 OFFCURVE",
"588 1104 CURVE SMOOTH",
"350 1104 OFFCURVE",
"146 958 OFFCURVE",
"146 588 CURVE",
"224 590 LINE",
"224 822 OFFCURVE",
"324 1022 OFFCURVE",
"588 1022 CURVE SMOOTH",
"812 1022 OFFCURVE",
"942 880 OFFCURVE",
"942 572 CURVE SMOOTH",
"942 0 LINE"
);
},
{
closed = 1;
nodes = (
"224 0 LINE",
"224 590 LINE",
"218 590 LINE",
"218 1440 LINE",
"140 1440 LINE",
"140 0 LINE"
);
}
);
width = 1146;
},
{
background = {
paths = (
{
closed = 1;
nodes = (
"1152 0 LINE",
"1152 522 LINE",
"1152 690 OFFCURVE",
"1152 878 OFFCURVE",
"1034 994 CURVE SMOOTH",
"930 1096 OFFCURVE",
"800 1118 OFFCURVE",
"672 1110 CURVE SMOOTH",
"574 1104 OFFCURVE",
"464 1068 OFFCURVE",
"394 984 CURVE SMOOTH",
"314 890 OFFCURVE",
"282 820 OFFCURVE",
"264 714 CURVE",
"258 668 OFFCURVE",
"258 506 OFFCURVE",
"258 470 CURVE",
"414 470 LINE",
"414 544 OFFCURVE",
"416 628 OFFCURVE",
"426 676 CURVE",
"438 736 OFFCURVE",
"466 784 OFFCURVE",
"506 814 CURVE SMOOTH",
"542 840 OFFCURVE",
"584 854 OFFCURVE",
"634 856 CURVE SMOOTH",
"708 858 OFFCURVE",
"766 836 OFFCURVE",
"804 794 CURVE SMOOTH",
"860 734 OFFCURVE",
"876 622 OFFCURVE",
"876 510 CURVE",
"876 0 LINE"
);
},
{
closed = 1;
nodes = (
"414 0 LINE",
"414 700 LINE",
"380 700 LINE",
"380 1440 LINE",
"140 1440 LINE",
"140 0 LINE"
);
}
);
};
layerId = "0DA27741-1AFD-43F2-A947-40AFBF8D6498";
paths = (
{
closed = 1;
nodes = (
"1152 0 LINE",
"1152 606 LINE SMOOTH",
"1152 696 OFFCURVE",
"1152 1112 OFFCURVE",
"730 1112 CURVE SMOOTH",
"412 1112 OFFCURVE",
"258 878 OFFCURVE",
"258 622 CURVE",
"414 548 LINE",
"414 816 OFFCURVE",
"550 856 OFFCURVE",
"644 856 CURVE SMOOTH",
"876 856 OFFCURVE",
"876 608 OFFCURVE",
"876 510 CURVE SMOOTH",
"876 0 LINE"
);
},
{
closed = 1;
nodes = (
"414 0 LINE",
"414 700 LINE",
"380 700 LINE",
"380 1440 LINE",
"138 1440 LINE",
"138 0 LINE"
);
}
);
width = 1272;
},
{
associatedMasterId = "0DA27741-1AFD-43F2-A947-40AFBF8D6498";
layerId = "A2873047-0ED6-4C67-9B4D-3870B51BD5C6";
width = 1200;
},
{
associatedMasterId = "0DA27741-1AFD-43F2-A947-40AFBF8D6498";
layerId = "55314CA7-5524-4D70-B802-98D4FAE25636";
width = 1128;
},
{
associatedMasterId = "0DA27741-1AFD-43F2-A947-40AFBF8D6498";
layerId = "13A3DD5D-E91B-4961-8595-F8141D3FA442";
width = 1188;
}
);
leftKerningGroup = h;
leftMetricsKey = n;
note = h;
rightKerningGroup = h;
rightMetricsKey = n;
unicode = 0068;
},
{
glyphname = idotless;
lastChange = "2020-02-20 18:21:12 +0000";
layers = (
{
layerId = "CAA188E2-8C62-414B-93AE-B576BEB044DB";
paths = (
{
closed = 1;
nodes = (
"244 0 LINE",
"244 1080 LINE",
"160 1080 LINE",
"160 0 LINE"
);
}
);
width = 404;
},
{
layerId = "0DA27741-1AFD-43F2-A947-40AFBF8D6498";
paths = (
{
closed = 1;
nodes = (
"432 0 LINE",
"432 1080 LINE",
"160 1080 LINE",
"160 0 LINE"
);
}
);
width = 592;
},
{
associatedMasterId = "0DA27741-1AFD-43F2-A947-40AFBF8D6498";
layerId = "A2873047-0ED6-4C67-9B4D-3870B51BD5C6";
width = 1200;
},
{
associatedMasterId = "0DA27741-1AFD-43F2-A947-40AFBF8D6498";
layerId = "55314CA7-5524-4D70-B802-98D4FAE25636";
width = 326;
},
{
associatedMasterId = "0DA27741-1AFD-43F2-A947-40AFBF8D6498";
layerId = "13A3DD5D-E91B-4961-8595-F8141D3FA442";
width = 1060;
}
);
leftKerningGroup = i;
rightKerningGroup = i;
unicode = 0131;
},
{
glyphname = j;
lastChange = "2020-08-02 04:55:25 +0000";
layers = (
{
components = (
{
name = period;
transform = "{1, 0, 0, 1, 28, 1309}";
}
);
layerId = "CAA188E2-8C62-414B-93AE-B576BEB044DB";
paths = (
{
closed = 1;
nodes = (
"46 -480 LINE SMOOTH",
"220 -480 OFFCURVE",
"290 -404 OFFCURVE",
"290 -220 CURVE SMOOTH",
"290 1080 LINE",
"206 1080 LINE",
"206 -230 LINE SMOOTH",
"206 -354 OFFCURVE",
"132 -394 OFFCURVE",
"48 -394 CURVE SMOOTH",
"-20 -394 LINE",
"-20 -480 LINE"
);
}
);
width = 450;
},
{
components = (
{
name = period;
transform = "{1, 0, 0, 1, 6, 1213}";
}
);
layerId = "0DA27741-1AFD-43F2-A947-40AFBF8D6498";
paths = (
{
closed = 1;
nodes = (
"164 -480 LINE SMOOTH",
"346 -480 OFFCURVE",
"462 -368 OFFCURVE",
"462 -196 CURVE SMOOTH",
"462 1080 LINE",
"190 1080 LINE",
"190 -64 LINE SMOOTH",
"190 -168 OFFCURVE",
"152 -226 OFFCURVE",
"28 -226 CURVE SMOOTH",
"-20 -226 LINE",
"-20 -480 LINE"
);
}
);
width = 602;
},
{
associatedMasterId = "0DA27741-1AFD-43F2-A947-40AFBF8D6498";
layerId = "A2873047-0ED6-4C67-9B4D-3870B51BD5C6";
width = 1200;
},
{
associatedMasterId = "0DA27741-1AFD-43F2-A947-40AFBF8D6498";
layerId = "55314CA7-5524-4D70-B802-98D4FAE25636";
width = 378;
},
{
associatedMasterId = "0DA27741-1AFD-43F2-A947-40AFBF8D6498";
layerId = "13A3DD5D-E91B-4961-8595-F8141D3FA442";
width = 1068;
}
);
leftKerningGroup = j;
note = j;
rightKerningGroup = j;
unicode = 006A;
},
{
glyphname = jcircumflex;
lastChange = "2020-03-14 00:18:05 +0000";
layers = (
{
components = (
{
name = circumflexcomb;
transform = "{1, 0, 0, 1, -238, -360}";
}
);
layerId = "CAA188E2-8C62-414B-93AE-B576BEB044DB";
paths = (
{
closed = 1;
nodes = (
"46 -480 LINE SMOOTH",
"220 -480 OFFCURVE",
"290 -404 OFFCURVE",
"290 -220 CURVE SMOOTH",
"290 1080 LINE",
"206 1080 LINE",
"206 -230 LINE SMOOTH",
"206 -354 OFFCURVE",
"132 -394 OFFCURVE",
"48 -394 CURVE SMOOTH",
"-20 -394 LINE",
"-20 -480 LINE"
);
}
);
width = 450;
},
{
components = (
{
name = circumflexcomb;
transform = "{1, 0, 0, 1, -275, -360}";
}
);
layerId = "0DA27741-1AFD-43F2-A947-40AFBF8D6498";
paths = (
{
closed = 1;
nodes = (
"164 -480 LINE SMOOTH",
"346 -480 OFFCURVE",
"462 -368 OFFCURVE",
"462 -196 CURVE SMOOTH",
"462 1080 LINE",
"190 1080 LINE",
"190 -64 LINE SMOOTH",
"190 -168 OFFCURVE",
"152 -226 OFFCURVE",
"28 -226 CURVE SMOOTH",
"-20 -226 LINE",
"-20 -480 LINE"
);
}
);
width = 602;
}
);
leftKerningGroup = j;
rightKerningGroup = j;
unicode = 0135;
},
{
glyphname = k;
lastChange = "2020-08-02 05:38:10 +0000";
layers = (
{
layerId = "CAA188E2-8C62-414B-93AE-B576BEB044DB";
paths = (
{
closed = 1;
nodes = (
"224 0 LINE",
"224 1440 LINE",
"140 1440 LINE",
"140 0 LINE"
);
},
{
closed = 1;
nodes = (
"176 528 LINE",
"176 421 LINE",
"890 1080 LINE",
"774 1080 LINE"
);
},
{
closed = 1;
nodes = (
"795 0 LINE",
"912 0 LINE",
"366 646 LINE",
"295 591 LINE"
);
}
);
width = 936;
},
{
layerId = "0DA27741-1AFD-43F2-A947-40AFBF8D6498";
paths = (
{
closed = 1;
nodes = (
"396 0 LINE",
"396 1440 LINE",
"140 1440 LINE",
"138 0 LINE"
);
},
{
closed = 1;
nodes = (
"269 563 LINE",
"269 225 LINE",
"1104 1080 LINE",
"787 1080 LINE"
);
},
{
closed = 1;
nodes = (
"847 0 LINE",
"1137 0 LINE",
"582 743 LINE",
"406 591 LINE"
);
}
);
width = 1104;
},
{
associatedMasterId = "0DA27741-1AFD-43F2-A947-40AFBF8D6498";
layerId = "A2873047-0ED6-4C67-9B4D-3870B51BD5C6";
width = 1200;
},
{
associatedMasterId = "0DA27741-1AFD-43F2-A947-40AFBF8D6498";
layerId = "55314CA7-5524-4D70-B802-98D4FAE25636";
width = 1000;
},
{
associatedMasterId = "0DA27741-1AFD-43F2-A947-40AFBF8D6498";
layerId = "13A3DD5D-E91B-4961-8595-F8141D3FA442";
width = 1168;
}
);
leftKerningGroup = k;
leftMetricsKey = n;
note = k;
rightKerningGroup = k;
unicode = 006B;
},
{
glyphname = l;
lastChange = "2020-03-29 06:07:26 +0000";
layers = (
{
layerId = "CAA188E2-8C62-414B-93AE-B576BEB044DB";
paths = (
{
closed = 1;
nodes = (
"244 0 LINE",
"244 1470 LINE",
"160 1470 LINE",
"160 0 LINE"
);
}
);
width = 404;
},
{
layerId = "0DA27741-1AFD-43F2-A947-40AFBF8D6498";
paths = (
{
closed = 1;
nodes = (
"432 0 LINE",
"432 1470 LINE",
"160 1470 LINE",
"160 0 LINE"
);
}
);
width = 592;
},
{
associatedMasterId = "0DA27741-1AFD-43F2-A947-40AFBF8D6498";
layerId = "A2873047-0ED6-4C67-9B4D-3870B51BD5C6";
width = 1200;
},
{
associatedMasterId = "0DA27741-1AFD-43F2-A947-40AFBF8D6498";
layerId = "55314CA7-5524-4D70-B802-98D4FAE25636";
width = 326;
},
{
associatedMasterId = "0DA27741-1AFD-43F2-A947-40AFBF8D6498";
layerId = "13A3DD5D-E91B-4961-8595-F8141D3FA442";
width = 1060;
}
);
leftKerningGroup = i;
note = l;
rightKerningGroup = i;
unicode = 006C;
},
{
glyphname = m;
lastChange = "2020-02-20 18:21:12 +0000";
layers = (
{
background = {
paths = (
{
closed = 1;
nodes = (
"140 0 LINE",
"224 0 LINE",
"224 860 LINE",
"218 860 LINE",
"218 1080 LINE",
"140 1080 LINE"
);
},
{
closed = 1;
nodes = (
"864 0 LINE",
"866 668 LINE SMOOTH",
"866 834 OFFCURVE",
"862 944 OFFCURVE",
"732 1042 CURVE SMOOTH",
"668 1090 OFFCURVE",
"588 1110 OFFCURVE",
"512 1110 CURVE SMOOTH",
"402 1110 OFFCURVE",
"296 1064 OFFCURVE",
"226 980 CURVE SMOOTH",
"168 910 OFFCURVE",
"146 812 OFFCURVE",
"150 718 CURVE",
"224 718 LINE",
"224 794 OFFCURVE",
"232 860 OFFCURVE",
"284 928 CURVE SMOOTH",
"336 998 OFFCURVE",
"420 1034 OFFCURVE",
"510 1034 CURVE SMOOTH",
"570 1034 OFFCURVE",
"632 1014 OFFCURVE",
"678 976 CURVE SMOOTH",
"780 894 OFFCURVE",
"782 808 OFFCURVE",
"782 668 CURVE SMOOTH",
"780 0 LINE"
);
},
{
closed = 1;
nodes = (
"1506 0 LINE",
"1508 668 LINE SMOOTH",
"1508 834 OFFCURVE",
"1504 944 OFFCURVE",
"1374 1042 CURVE SMOOTH",
"1310 1090 OFFCURVE",
"1230 1110 OFFCURVE",
"1154 1110 CURVE SMOOTH",
"1044 1110 OFFCURVE",
"938 1064 OFFCURVE",
"868 980 CURVE SMOOTH",
"810 910 OFFCURVE",
"788 812 OFFCURVE",
"792 718 CURVE",
"866 718 LINE",
"866 794 OFFCURVE",
"874 860 OFFCURVE",
"926 928 CURVE SMOOTH",
"978 998 OFFCURVE",
"1062 1034 OFFCURVE",
"1152 1034 CURVE SMOOTH",
"1212 1034 OFFCURVE",
"1274 1014 OFFCURVE",
"1320 976 CURVE SMOOTH",
"1422 894 OFFCURVE",
"1424 808 OFFCURVE",
"1424 668 CURVE SMOOTH",
"1422 0 LINE"
);
}
);
};
layerId = "CAA188E2-8C62-414B-93AE-B576BEB044DB";
paths = (
{
closed = 1;
nodes = (
"1506 0 LINE",
"1508 750 LINE SMOOTH",
"1508 974 OFFCURVE",
"1360 1110 OFFCURVE",
"1156 1110 CURVE SMOOTH",
"940 1110 OFFCURVE",
"782 956 OFFCURVE",
"792 718 CURVE",
"866 718 LINE",
"866 958 OFFCURVE",
"1022 1034 OFFCURVE",
"1150 1034 CURVE SMOOTH",
"1304 1034 OFFCURVE",
"1424 924 OFFCURVE",
"1424 744 CURVE SMOOTH",
"1422 0 LINE"
);
},
{
closed = 1;
nodes = (
"224 0 LINE",
"224 860 LINE",
"218 860 LINE",
"218 1080 LINE",
"140 1080 LINE",
"140 0 LINE"
);
},
{
closed = 1;
nodes = (
"864 0 LINE",
"866 744 LINE SMOOTH",
"866 998 OFFCURVE",
"698 1110 OFFCURVE",
"516 1110 CURVE SMOOTH",
"302 1110 OFFCURVE",
"150 958 OFFCURVE",
"150 750 CURVE",
"224 718 LINE",
"224 910 OFFCURVE",
"338 1034 OFFCURVE",
"506 1034 CURVE SMOOTH",
"670 1034 OFFCURVE",
"784 916 OFFCURVE",
"784 730 CURVE SMOOTH",
"782 0 LINE"
);
}
);
width = 1628;
},
{
background = {
paths = (
{
closed = 1;
nodes = (
"138 0 LINE",
"412 0 LINE",
"412 722 LINE",
"378 722 LINE",
"378 1080 LINE",
"138 1080 LINE"
);
},
{
closed = 1;
nodes = (
"1062 0 LINE",
"1062 658 LINE SMOOTH",
"1062 796 OFFCURVE",
"1052 908 OFFCURVE",
"958 1006 CURVE SMOOTH",
"890 1078 OFFCURVE",
"776 1106 OFFCURVE",
"686 1106 CURVE SMOOTH",
"544 1106 OFFCURVE",
"414 1034 OFFCURVE",
"342 914 CURVE SMOOTH",
"292 830 OFFCURVE",
"298 746 OFFCURVE",
"298 654 CURVE",
"412 654 LINE",
"412 708 OFFCURVE",
"420 756 OFFCURVE",
"462 804 CURVE SMOOTH",
"496 842 OFFCURVE",
"548 864 OFFCURVE",
"600 864 CURVE SMOOTH",
"652 864 OFFCURVE",
"704 844 OFFCURVE",
"738 806 CURVE SMOOTH",
"776 764 OFFCURVE",
"790 716 OFFCURVE",
"790 638 CURVE SMOOTH",
"790 0 LINE"
);
},
{
closed = 1;
nodes = (
"1712 0 LINE",
"1712 658 LINE SMOOTH",
"1712 796 OFFCURVE",
"1702 908 OFFCURVE",
"1608 1006 CURVE SMOOTH",
"1540 1078 OFFCURVE",
"1426 1106 OFFCURVE",
"1336 1106 CURVE SMOOTH",
"1194 1106 OFFCURVE",
"1064 1034 OFFCURVE",
"992 914 CURVE SMOOTH",
"942 830 OFFCURVE",
"948 746 OFFCURVE",
"948 654 CURVE",
"1062 654 LINE",
"1062 708 OFFCURVE",
"1070 756 OFFCURVE",
"1112 804 CURVE SMOOTH",
"1146 842 OFFCURVE",
"1198 864 OFFCURVE",
"1250 864 CURVE SMOOTH",
"1302 864 OFFCURVE",
"1354 844 OFFCURVE",
"1388 806 CURVE SMOOTH",
"1426 764 OFFCURVE",
"1440 716 OFFCURVE",
"1440 638 CURVE SMOOTH",
"1440 0 LINE"
);
}
);
};
layerId = "0DA27741-1AFD-43F2-A947-40AFBF8D6498";
paths = (
{
closed = 1;
nodes = (
"1712 0 LINE",
"1712 710 LINE SMOOTH",
"1712 946 OFFCURVE",
"1584 1106 OFFCURVE",
"1338 1106 CURVE SMOOTH",
"1122 1106 OFFCURVE",
"948 952 OFFCURVE",
"948 730 CURVE",
"1062 654 LINE",
"1062 778 OFFCURVE",
"1136 864 OFFCURVE",
"1250 864 CURVE SMOOTH",
"1368 864 OFFCURVE",
"1440 780 OFFCURVE",
"1440 638 CURVE SMOOTH",
"1440 0 LINE"
);
},
{
closed = 1;
nodes = (
"412 0 LINE",
"412 722 LINE",
"378 722 LINE",
"378 1080 LINE",
"138 1080 LINE",
"138 0 LINE"
);
},
{
closed = 1;
nodes = (
"1062 0 LINE",
"1062 710 LINE SMOOTH",
"1062 926 OFFCURVE",
"948 1106 OFFCURVE",
"694 1106 CURVE SMOOTH",
"472 1106 OFFCURVE",
"298 946 OFFCURVE",
"298 734 CURVE",
"412 654 LINE",
"412 778 OFFCURVE",
"486 864 OFFCURVE",
"600 864 CURVE SMOOTH",
"718 864 OFFCURVE",
"790 780 OFFCURVE",
"790 638 CURVE SMOOTH",
"790 0 LINE"
);
}
);
width = 1832;
},
{
associatedMasterId = "0DA27741-1AFD-43F2-A947-40AFBF8D6498";
layerId = "A2873047-0ED6-4C67-9B4D-3870B51BD5C6";
width = 1200;
},
{
associatedMasterId = "0DA27741-1AFD-43F2-A947-40AFBF8D6498";
layerId = "55314CA7-5524-4D70-B802-98D4FAE25636";
width = 1716;
},
{
associatedMasterId = "0DA27741-1AFD-43F2-A947-40AFBF8D6498";
layerId = "13A3DD5D-E91B-4961-8595-F8141D3FA442";
width = 1282;
}
);
leftKerningGroup = m;
leftMetricsKey = n;
note = m;
rightKerningGroup = m;
rightMetricsKey = n;
unicode = 006D;
},
{
glyphname = n;
lastChange = "2020-02-20 18:21:12 +0000";
layers = (
{
layerId = "CAA188E2-8C62-414B-93AE-B576BEB044DB";
paths = (
{
closed = 1;
nodes = (
"1026 0 LINE",
"1026 588 LINE SMOOTH",
"1026 908 OFFCURVE",
"862 1104 OFFCURVE",
"588 1104 CURVE SMOOTH",
"350 1104 OFFCURVE",
"146 958 OFFCURVE",
"146 588 CURVE",
"224 590 LINE",
"224 822 OFFCURVE",
"324 1022 OFFCURVE",
"588 1022 CURVE SMOOTH",
"812 1022 OFFCURVE",
"942 880 OFFCURVE",
"942 572 CURVE SMOOTH",
"942 0 LINE"
);
},
{
closed = 1;
nodes = (
"224 0 LINE",
"224 860 LINE",
"218 860 LINE",
"218 1080 LINE",
"140 1080 LINE",
"140 0 LINE"
);
}
);
width = 1146;
},
{
layerId = "0DA27741-1AFD-43F2-A947-40AFBF8D6498";
paths = (
{
closed = 1;
nodes = (
"1152 0 LINE",
"1152 606 LINE SMOOTH",
"1152 696 OFFCURVE",
"1152 1112 OFFCURVE",
"730 1112 CURVE SMOOTH",
"412 1112 OFFCURVE",
"258 878 OFFCURVE",
"258 622 CURVE",
"414 548 LINE",
"414 816 OFFCURVE",
"550 856 OFFCURVE",
"644 856 CURVE SMOOTH",
"876 856 OFFCURVE",
"876 608 OFFCURVE",
"876 510 CURVE SMOOTH",
"876 0 LINE"
);
},
{
closed = 1;
nodes = (
"414 0 LINE",
"414 722 LINE",
"380 722 LINE",
"380 1080 LINE",
"138 1080 LINE",
"138 0 LINE"
);
}
);
width = 1272;
},
{
associatedMasterId = "0DA27741-1AFD-43F2-A947-40AFBF8D6498";
layerId = "A2873047-0ED6-4C67-9B4D-3870B51BD5C6";
width = 1200;
},
{
associatedMasterId = "0DA27741-1AFD-43F2-A947-40AFBF8D6498";
layerId = "55314CA7-5524-4D70-B802-98D4FAE25636";
width = 1128;
},
{
associatedMasterId = "0DA27741-1AFD-43F2-A947-40AFBF8D6498";
layerId = "13A3DD5D-E91B-4961-8595-F8141D3FA442";
width = 1188;
}
);
leftKerningGroup = m;
note = n;
rightKerningGroup = m;
unicode = 006E;
},
{
glyphname = eng;
lastChange = "2020-02-20 18:21:12 +0000";
layers = (
{
components = (
{
name = n;
}
);
layerId = "CAA188E2-8C62-414B-93AE-B576BEB044DB";
paths = (
{
closed = 1;
nodes = (
"982 -344 OFFCURVE",
"1026 -304 OFFCURVE",
"1026 -190 CURVE SMOOTH",
"1026 2 LINE",
"942 2 LINE",
"942 -110 LINE SMOOTH",
"942 -252 OFFCURVE",
"922 -286 OFFCURVE",
"792 -266 CURVE",
"792 -348 LINE",
"832 -358 OFFCURVE",
"866 -362 OFFCURVE",
"922 -356 CURVE SMOOTH"
);
}
);
width = 1146;
},
{
components = (
{
name = n;
}
);
layerId = "0DA27741-1AFD-43F2-A947-40AFBF8D6498";
paths = (
{
closed = 1;
nodes = (
"1074 -442 OFFCURVE",
"1152 -334 OFFCURVE",
"1152 -176 CURVE SMOOTH",
"1152 4 LINE",
"876 4 LINE",
"876 -132 LINE SMOOTH",
"876 -294 OFFCURVE",
"754 -272 OFFCURVE",
"692 -268 CURVE",
"692 -458 LINE",
"764 -476 OFFCURVE",
"844 -488 OFFCURVE",
"942 -468 CURVE SMOOTH"
);
}
);
width = 1272;
},
{
associatedMasterId = "0DA27741-1AFD-43F2-A947-40AFBF8D6498";
layerId = "A2873047-0ED6-4C67-9B4D-3870B51BD5C6";
width = 1200;
},
{
associatedMasterId = "0DA27741-1AFD-43F2-A947-40AFBF8D6498";
layerId = "55314CA7-5524-4D70-B802-98D4FAE25636";
width = 1128;
},
{
associatedMasterId = "0DA27741-1AFD-43F2-A947-40AFBF8D6498";
layerId = "13A3DD5D-E91B-4961-8595-F8141D3FA442";
width = 1188;
}
);
leftKerningGroup = n;
leftMetricsKey = n;
rightKerningGroup = n;
rightMetricsKey = n;
unicode = 014B;
},
{
glyphname = o;
lastChange = "2020-02-20 18:21:12 +0000";
layers = (
{
layerId = "CAA188E2-8C62-414B-93AE-B576BEB044DB";
paths = (
{
closed = 1;
nodes = (
"892 -30 OFFCURVE",
"1068 200 OFFCURVE",
"1068 542 CURVE SMOOTH",
"1068 876 OFFCURVE",
"896 1110 OFFCURVE",
"574 1110 CURVE SMOOTH",
"260 1110 OFFCURVE",
"80 882 OFFCURVE",
"80 542 CURVE SMOOTH",
"80 206 OFFCURVE",
"254 -30 OFFCURVE",
"574 -30 CURVE SMOOTH"
);
},
{
closed = 1;
nodes = (
"308 54 OFFCURVE",
"170 248 OFFCURVE",
"170 542 CURVE SMOOTH",
"170 826 OFFCURVE",
"300 1026 OFFCURVE",
"574 1026 CURVE SMOOTH",
"844 1026 OFFCURVE",
"978 836 OFFCURVE",
"978 542 CURVE SMOOTH",
"978 252 OFFCURVE",
"846 54 OFFCURVE",
"574 54 CURVE SMOOTH"
);
}
);
width = 1148;
},
{
layerId = "0DA27741-1AFD-43F2-A947-40AFBF8D6498";
paths = (
{
closed = 1;
nodes = (
"950 -30 OFFCURVE",
"1174 204 OFFCURVE",
"1174 540 CURVE SMOOTH",
"1174 874 OFFCURVE",
"952 1110 OFFCURVE",
"626 1110 CURVE SMOOTH",
"306 1110 OFFCURVE",
"80 878 OFFCURVE",
"80 540 CURVE SMOOTH",
"80 206 OFFCURVE",
"300 -30 OFFCURVE",
"626 -30 CURVE SMOOTH"
);
},
{
closed = 1;
nodes = (
"456 224 OFFCURVE",
"368 346 OFFCURVE",
"368 540 CURVE SMOOTH",
"368 728 OFFCURVE",
"448 856 OFFCURVE",
"626 856 CURVE SMOOTH",
"798 856 OFFCURVE",
"886 732 OFFCURVE",
"886 540 CURVE SMOOTH",
"886 354 OFFCURVE",
"800 224 OFFCURVE",
"626 224 CURVE SMOOTH"
);
}
);
width = 1254;
},
{
associatedMasterId = "0DA27741-1AFD-43F2-A947-40AFBF8D6498";
layerId = "A2873047-0ED6-4C67-9B4D-3870B51BD5C6";
width = 1200;
},
{
associatedMasterId = "0DA27741-1AFD-43F2-A947-40AFBF8D6498";
layerId = "55314CA7-5524-4D70-B802-98D4FAE25636";
width = 1178;
},
{
associatedMasterId = "0DA27741-1AFD-43F2-A947-40AFBF8D6498";
layerId = "13A3DD5D-E91B-4961-8595-F8141D3FA442";
width = 1196;
}
);
leftKerningGroup = o;
note = o;
rightKerningGroup = o;
unicode = 006F;
},
{
glyphname = oslash;
lastChange = "2020-02-20 18:21:12 +0000";
layers = (
{
components = (
{
name = o;
}
);
layerId = "CAA188E2-8C62-414B-93AE-B576BEB044DB";
paths = (
{
closed = 1;
nodes = (
"250 158 LINE",
"272 180 LINE",
"934 842 LINE",
"956 864 LINE",
"1116 1022 LINE",
"1056 1080 LINE",
"920 946 LINE",
"894 920 LINE",
"218 246 LINE",
"196 224 LINE",
"32 60 LINE",
"92 0 LINE"
);
}
);
width = 1148;
},
{
components = (
{
name = o;
}
);
layerId = "0DA27741-1AFD-43F2-A947-40AFBF8D6498";
paths = (
{
closed = 1;
nodes = (
"406 140 LINE",
"456 228 LINE",
"958 730 LINE",
"1024 756 LINE",
"1198 928 LINE",
"1018 1110 LINE",
"852 944 LINE",
"832 882 LINE",
"320 372 LINE",
"238 332 LINE",
"56 150 LINE",
"236 -30 LINE"
);
}
);
width = 1254;
},
{
associatedMasterId = "0DA27741-1AFD-43F2-A947-40AFBF8D6498";
layerId = "A2873047-0ED6-4C67-9B4D-3870B51BD5C6";
width = 1200;
},
{
associatedMasterId = "0DA27741-1AFD-43F2-A947-40AFBF8D6498";
layerId = "55314CA7-5524-4D70-B802-98D4FAE25636";
width = 1176;
},
{
associatedMasterId = "0DA27741-1AFD-43F2-A947-40AFBF8D6498";
layerId = "13A3DD5D-E91B-4961-8595-F8141D3FA442";
width = 1196;
}
);
leftKerningGroup = o;
rightKerningGroup = o;
unicode = 00F8;
},
{
glyphname = p;
lastChange = "2020-02-20 18:21:12 +0000";
layers = (
{
layerId = "CAA188E2-8C62-414B-93AE-B576BEB044DB";
paths = (
{
closed = 1;
nodes = (
"908 -30 OFFCURVE",
"1072 218 OFFCURVE",
"1072 542 CURVE SMOOTH",
"1072 860 OFFCURVE",
"908 1110 OFFCURVE",
"618 1110 CURVE SMOOTH",
"316 1110 OFFCURVE",
"154 870 OFFCURVE",
"154 542 CURVE SMOOTH",
"154 220 OFFCURVE",
"316 -30 OFFCURVE",
"602 -30 CURVE SMOOTH"
);
},
{
closed = 1;
nodes = (
"224 -480 LINE",
"224 230 LINE",
"218 230 LINE",
"218 1080 LINE",
"140 1080 LINE",
"140 -480 LINE"
);
},
{
closed = 1;
nodes = (
"348 54 OFFCURVE",
"218 264 OFFCURVE",
"218 542 CURVE SMOOTH",
"218 824 OFFCURVE",
"350 1026 OFFCURVE",
"602 1026 CURVE SMOOTH",
"860 1026 OFFCURVE",
"982 818 OFFCURVE",
"982 542 CURVE SMOOTH",
"982 264 OFFCURVE",
"852 54 OFFCURVE",
"602 54 CURVE SMOOTH"
);
}
);
width = 1152;
},
{
layerId = "0DA27741-1AFD-43F2-A947-40AFBF8D6498";
paths = (
{
closed = 1;
nodes = (
"968 -30 OFFCURVE",
"1168 216 OFFCURVE",
"1168 540 CURVE SMOOTH",
"1168 870 OFFCURVE",
"966 1110 OFFCURVE",
"656 1110 CURVE SMOOTH",
"348 1110 OFFCURVE",
"184 864 OFFCURVE",
"184 540 CURVE SMOOTH",
"184 216 OFFCURVE",
"348 -30 OFFCURVE",
"670 -30 CURVE SMOOTH"
);
},
{
closed = 1;
nodes = (
"412 -480 LINE",
"412 340 LINE",
"378 340 LINE",
"378 1080 LINE",
"138 1080 LINE",
"138 -480 LINE"
);
},
{
closed = 1;
nodes = (
"444 212 OFFCURVE",
"378 344 OFFCURVE",
"378 540 CURVE SMOOTH",
"378 736 OFFCURVE",
"446 868 OFFCURVE",
"616 868 CURVE SMOOTH",
"798 868 OFFCURVE",
"880 720 OFFCURVE",
"880 540 CURVE SMOOTH",
"880 358 OFFCURVE",
"802 212 OFFCURVE",
"626 212 CURVE SMOOTH"
);
}
);
width = 1248;
},
{
associatedMasterId = "0DA27741-1AFD-43F2-A947-40AFBF8D6498";
layerId = "A2873047-0ED6-4C67-9B4D-3870B51BD5C6";
width = 1200;
},
{
associatedMasterId = "0DA27741-1AFD-43F2-A947-40AFBF8D6498";
layerId = "55314CA7-5524-4D70-B802-98D4FAE25636";
width = 1146;
},
{
associatedMasterId = "0DA27741-1AFD-43F2-A947-40AFBF8D6498";
layerId = "13A3DD5D-E91B-4961-8595-F8141D3FA442";
width = 1192;
}
);
leftKerningGroup = m;
leftMetricsKey = n;
note = p;
rightKerningGroup = o;
rightMetricsKey = o;
unicode = 0070;
},
{
glyphname = thorn;
lastChange = "2020-02-20 18:21:12 +0000";
layers = (
{
components = (
{
name = p;
}
);
layerId = "CAA188E2-8C62-414B-93AE-B576BEB044DB";
paths = (
{
closed = 1;
nodes = (
"224 782 LINE",
"224 1440 LINE",
"140 1440 LINE",
"140 782 LINE"
);
}
);
width = 1152;
},
{
components = (
{
name = p;
}
);
layerId = "0DA27741-1AFD-43F2-A947-40AFBF8D6498";
paths = (
{
closed = 1;
nodes = (
"414 864 LINE",
"414 1440 LINE",
"140 1440 LINE",
"140 864 LINE"
);
}
);
width = 1248;
},
{
associatedMasterId = "0DA27741-1AFD-43F2-A947-40AFBF8D6498";
layerId = "A2873047-0ED6-4C67-9B4D-3870B51BD5C6";
width = 1200;
},
{
associatedMasterId = "0DA27741-1AFD-43F2-A947-40AFBF8D6498";
layerId = "55314CA7-5524-4D70-B802-98D4FAE25636";
width = 1146;
},
{
associatedMasterId = "0DA27741-1AFD-43F2-A947-40AFBF8D6498";
layerId = "13A3DD5D-E91B-4961-8595-F8141D3FA442";
width = 1192;
}
);
leftKerningGroup = p;
leftMetricsKey = p;
rightKerningGroup = p;
rightMetricsKey = p;
unicode = 00FE;
},
{
glyphname = q;
lastChange = "2020-02-20 18:21:12 +0000";
layers = (
{
layerId = "CAA188E2-8C62-414B-93AE-B576BEB044DB";
paths = (
{
closed = 1;
nodes = (
"836 -30 OFFCURVE",
"998 220 OFFCURVE",
"998 542 CURVE SMOOTH",
"998 870 OFFCURVE",
"836 1110 OFFCURVE",
"534 1110 CURVE SMOOTH",
"244 1110 OFFCURVE",
"80 860 OFFCURVE",
"80 542 CURVE SMOOTH",
"80 218 OFFCURVE",
"244 -30 OFFCURVE",
"550 -30 CURVE SMOOTH"
);
},
{
closed = 1;
nodes = (
"300 54 OFFCURVE",
"170 264 OFFCURVE",
"170 542 CURVE SMOOTH",
"170 818 OFFCURVE",
"292 1026 OFFCURVE",
"550 1026 CURVE SMOOTH",
"802 1026 OFFCURVE",
"934 824 OFFCURVE",
"934 542 CURVE SMOOTH",
"934 264 OFFCURVE",
"804 54 OFFCURVE",
"550 54 CURVE SMOOTH"
);
},
{
closed = 1;
nodes = (
"1012 -480 LINE",
"1012 1080 LINE",
"934 1080 LINE",
"934 230 LINE",
"928 230 LINE",
"928 -480 LINE"
);
}
);
width = 1152;
},
{
layerId = "0DA27741-1AFD-43F2-A947-40AFBF8D6498";
paths = (
{
closed = 1;
nodes = (
"900 -30 OFFCURVE",
"1064 216 OFFCURVE",
"1064 540 CURVE SMOOTH",
"1064 864 OFFCURVE",
"900 1110 OFFCURVE",
"592 1110 CURVE SMOOTH",
"282 1110 OFFCURVE",
"80 870 OFFCURVE",
"80 540 CURVE SMOOTH",
"80 216 OFFCURVE",
"280 -30 OFFCURVE",
"578 -30 CURVE SMOOTH"
);
},
{
closed = 1;
nodes = (
"446 212 OFFCURVE",
"368 358 OFFCURVE",
"368 540 CURVE SMOOTH",
"368 720 OFFCURVE",
"450 868 OFFCURVE",
"632 868 CURVE SMOOTH",
"802 868 OFFCURVE",
"870 736 OFFCURVE",
"870 540 CURVE SMOOTH",
"870 344 OFFCURVE",
"804 212 OFFCURVE",
"622 212 CURVE SMOOTH"
);
},
{
closed = 1;
nodes = (
"1110 -480 LINE",
"1110 1080 LINE",
"870 1080 LINE",
"870 340 LINE",
"836 340 LINE",
"836 -480 LINE"
);
}
);
width = 1250;
},
{
associatedMasterId = "0DA27741-1AFD-43F2-A947-40AFBF8D6498";
layerId = "A2873047-0ED6-4C67-9B4D-3870B51BD5C6";
width = 1200;
},
{
associatedMasterId = "0DA27741-1AFD-43F2-A947-40AFBF8D6498";
layerId = "55314CA7-5524-4D70-B802-98D4FAE25636";
width = 1146;
},
{
associatedMasterId = "0DA27741-1AFD-43F2-A947-40AFBF8D6498";
layerId = "13A3DD5D-E91B-4961-8595-F8141D3FA442";
width = 1192;
}
);
leftKerningGroup = q;
note = q;
rightKerningGroup = q;
rightMetricsKey = u;
unicode = 0071;
},
{
glyphname = r;
lastChange = "2020-02-20 18:21:12 +0000";
layers = (
{
layerId = "CAA188E2-8C62-414B-93AE-B576BEB044DB";
paths = (
{
closed = 1;
nodes = (
"224 0 LINE",
"224 532 LINE SMOOTH",
"224 664 OFFCURVE",
"224 830 OFFCURVE",
"338 936 CURVE SMOOTH",
"424 1016 OFFCURVE",
"530 1020 OFFCURVE",
"620 1000 CURVE",
"620 1080 LINE",
"526 1110 OFFCURVE",
"374 1086 OFFCURVE",
"286 1000 CURVE SMOOTH",
"252 968 OFFCURVE",
"214 914 OFFCURVE",
"192 856 CURVE",
"218 822 LINE",
"218 1080 LINE",
"140 1080 LINE",
"140 0 LINE"
);
}
);
width = 670;
},
{
layerId = "0DA27741-1AFD-43F2-A947-40AFBF8D6498";
paths = (
{
closed = 1;
nodes = (
"414 0 LINE",
"414 552 LINE SMOOTH",
"414 676 OFFCURVE",
"466 764 OFFCURVE",
"562 808 CURVE SMOOTH",
"626 838 OFFCURVE",
"714 844 OFFCURVE",
"774 826 CURVE",
"774 1080 LINE",
"676 1092 OFFCURVE",
"574 1076 OFFCURVE",
"496 1028 CURVE SMOOTH",
"428 988 OFFCURVE",
"382 924 OFFCURVE",
"354 850 CURVE",
"380 816 LINE",
"380 1080 LINE",
"140 1080 LINE",
"140 0 LINE"
);
}
);
width = 824;
},
{
associatedMasterId = "0DA27741-1AFD-43F2-A947-40AFBF8D6498";
layerId = "A2873047-0ED6-4C67-9B4D-3870B51BD5C6";
width = 1200;
},
{
associatedMasterId = "0DA27741-1AFD-43F2-A947-40AFBF8D6498";
layerId = "55314CA7-5524-4D70-B802-98D4FAE25636";
width = 648;
},
{
associatedMasterId = "0DA27741-1AFD-43F2-A947-40AFBF8D6498";
layerId = "13A3DD5D-E91B-4961-8595-F8141D3FA442";
width = 1112;
}
);
leftKerningGroup = r;
note = r;
rightKerningGroup = r;
unicode = 0072;
},
{
glyphname = s;
lastChange = "2020-02-20 18:21:12 +0000";
layers = (
{
background = {
paths = (
{
closed = 1;
nodes = (
"930 976 OFFCURVE",
"758 1110 OFFCURVE",
"508 1110 CURVE SMOOTH",
"306 1110 OFFCURVE",
"112 1012 OFFCURVE",
"112 820 CURVE SMOOTH",
"112 660 OFFCURVE",
"248 598 OFFCURVE",
"404 554 CURVE SMOOTH",
"488 530 OFFCURVE",
"552 512 OFFCURVE",
"602 498 CURVE SMOOTH",
"742 460 OFFCURVE",
"856 426 OFFCURVE",
"856 284 CURVE SMOOTH",
"856 138 OFFCURVE",
"716 56 OFFCURVE",
"544 56 CURVE SMOOTH",
"378 56 OFFCURVE",
"208 116 OFFCURVE",
"166 276 CURVE",
"80 260 LINE",
"124 56 OFFCURVE",
"322 -28 OFFCURVE",
"536 -28 CURVE SMOOTH",
"776 -28 OFFCURVE",
"946 78 OFFCURVE",
"946 292 CURVE SMOOTH",
"946 460 OFFCURVE",
"812 532 OFFCURVE",
"636 578 CURVE SMOOTH",
"530 606 OFFCURVE",
"456 624 OFFCURVE",
"404 640 CURVE SMOOTH",
"272 676 OFFCURVE",
"200 732 OFFCURVE",
"200 820 CURVE SMOOTH",
"200 942 OFFCURVE",
"326 1030 OFFCURVE",
"506 1026 CURVE SMOOTH",
"672 1022 OFFCURVE",
"830 964 OFFCURVE",
"862 782 CURVE",
"948 798 LINE"
);
}
);
};
layerId = "CAA188E2-8C62-414B-93AE-B576BEB044DB";
paths = (
{
closed = 1;
nodes = (
"790 -28 OFFCURVE",
"946 90 OFFCURVE",
"946 286 CURVE SMOOTH",
"946 452 OFFCURVE",
"854 524 OFFCURVE",
"530 606 CURVE SMOOTH",
"274 670 OFFCURVE",
"200 720 OFFCURVE",
"200 822 CURVE SMOOTH",
"200 944 OFFCURVE",
"326 1028 OFFCURVE",
"506 1026 CURVE SMOOTH",
"698 1026 OFFCURVE",
"836 932 OFFCURVE",
"862 782 CURVE",
"948 798 LINE",
"930 982 OFFCURVE",
"750 1110 OFFCURVE",
"512 1110 CURVE SMOOTH",
"276 1110 OFFCURVE",
"112 990 OFFCURVE",
"112 818 CURVE SMOOTH",
"112 674 OFFCURVE",
"198 610 OFFCURVE",
"506 526 CURVE SMOOTH",
"800 446 OFFCURVE",
"856 408 OFFCURVE",
"856 290 CURVE SMOOTH",
"856 146 OFFCURVE",
"732 56 OFFCURVE",
"536 56 CURVE SMOOTH",
"344 56 OFFCURVE",
"202 142 OFFCURVE",
"166 276 CURVE",
"80 260 LINE",
"118 80 OFFCURVE",
"290 -28 OFFCURVE",
"534 -28 CURVE SMOOTH"
);
}
);
width = 1028;
},
{
background = {
paths = (
{
closed = 1;
nodes = (
"974 1004 OFFCURVE",
"776 1110 OFFCURVE",
"544 1110 CURVE SMOOTH",
"320 1110 OFFCURVE",
"116 1000 OFFCURVE",
"116 780 CURVE SMOOTH",
"116 628 OFFCURVE",
"204 528 OFFCURVE",
"346 488 CURVE SMOOTH",
"422 466 OFFCURVE",
"512 442 OFFCURVE",
"614 414 CURVE SMOOTH",
"692 392 OFFCURVE",
"736 364 OFFCURVE",
"736 308 CURVE SMOOTH",
"736 238 OFFCURVE",
"668 204 OFFCURVE",
"582 204 CURVE SMOOTH",
"466 204 OFFCURVE",
"380 260 OFFCURVE",
"358 366 CURVE",
"80 324 LINE",
"122 78 OFFCURVE",
"304 -30 OFFCURVE",
"576 -30 CURVE SMOOTH",
"822 -30 OFFCURVE",
"1014 96 OFFCURVE",
"1014 320 CURVE SMOOTH",
"1014 504 OFFCURVE",
"904 588 OFFCURVE",
"674 646 CURVE SMOOTH",
"596 666 OFFCURVE",
"544 680 OFFCURVE",
"490 696 CURVE SMOOTH",
"424 716 OFFCURVE",
"386 740 OFFCURVE",
"386 794 CURVE SMOOTH",
"386 848 OFFCURVE",
"460 880 OFFCURVE",
"552 876 CURVE SMOOTH",
"650 872 OFFCURVE",
"716 816 OFFCURVE",
"726 740 CURVE",
"1004 790 LINE"
);
}
);
};
layerId = "0DA27741-1AFD-43F2-A947-40AFBF8D6498";
paths = (
{
closed = 1;
nodes = (
"844 -30 OFFCURVE",
"1014 104 OFFCURVE",
"1014 326 CURVE SMOOTH",
"1014 494 OFFCURVE",
"920 582 OFFCURVE",
"674 646 CURVE SMOOTH",
"422 710 OFFCURVE",
"386 728 OFFCURVE",
"386 784 CURVE SMOOTH",
"386 846 OFFCURVE",
"452 882 OFFCURVE",
"552 876 CURVE SMOOTH",
"654 868 OFFCURVE",
"716 820 OFFCURVE",
"726 740 CURVE",
"1004 790 LINE",
"976 986 OFFCURVE",
"800 1110 OFFCURVE",
"546 1110 CURVE SMOOTH",
"284 1110 OFFCURVE",
"116 978 OFFCURVE",
"116 770 CURVE SMOOTH",
"116 604 OFFCURVE",
"212 520 OFFCURVE",
"476 452 CURVE SMOOTH",
"710 390 OFFCURVE",
"736 376 OFFCURVE",
"736 312 CURVE SMOOTH",
"736 244 OFFCURVE",
"680 204 OFFCURVE",
"582 204 CURVE SMOOTH",
"462 204 OFFCURVE",
"380 264 OFFCURVE",
"358 366 CURVE",
"80 324 LINE",
"116 98 OFFCURVE",
"290 -30 OFFCURVE",
"562 -30 CURVE SMOOTH"
);
}
);
width = 1094;
},
{
associatedMasterId = "0DA27741-1AFD-43F2-A947-40AFBF8D6498";
layerId = "A2873047-0ED6-4C67-9B4D-3870B51BD5C6";
width = 1200;
},
{
associatedMasterId = "0DA27741-1AFD-43F2-A947-40AFBF8D6498";
layerId = "55314CA7-5524-4D70-B802-98D4FAE25636";
width = 1032;
},
{
associatedMasterId = "0DA27741-1AFD-43F2-A947-40AFBF8D6498";
layerId = "13A3DD5D-E91B-4961-8595-F8141D3FA442";
width = 1174;
}
);
leftKerningGroup = s;
note = s;
rightKerningGroup = s;
unicode = 0073;
},
{
glyphname = germandbls;
lastChange = "2020-02-20 18:21:12 +0000";
layers = (
{
layerId = "CAA188E2-8C62-414B-93AE-B576BEB044DB";
paths = (
{
closed = 1;
nodes = (
"874 -28 OFFCURVE",
"1030 144 OFFCURVE",
"1030 402 CURVE SMOOTH",
"1030 654 OFFCURVE",
"810 778 OFFCURVE",
"690 784 CURVE",
"824 818 OFFCURVE",
"898 944 OFFCURVE",
"898 1098 CURVE SMOOTH",
"898 1342 OFFCURVE",
"748 1470 OFFCURVE",
"520 1470 CURVE SMOOTH",
"340 1470 OFFCURVE",
"226 1394 OFFCURVE",
"170 1256 CURVE SMOOTH",
"150 1206 OFFCURVE",
"140 1138 OFFCURVE",
"140 1064 CURVE SMOOTH",
"140 0 LINE",
"232 0 LINE",
"232 1042 LINE SMOOTH",
"232 1100 OFFCURVE",
"236 1160 OFFCURVE",
"252 1212 CURVE SMOOTH",
"288 1330 OFFCURVE",
"398 1386 OFFCURVE",
"522 1386 CURVE SMOOTH",
"700 1386 OFFCURVE",
"808 1280 OFFCURVE",
"808 1100 CURVE SMOOTH",
"808 914 OFFCURVE",
"666 830 OFFCURVE",
"520 812 CURVE",
"520 728 LINE",
"772 722 OFFCURVE",
"940 596 OFFCURVE",
"940 402 CURVE SMOOTH",
"940 184 OFFCURVE",
"794 58 OFFCURVE",
"582 58 CURVE SMOOTH",
"514 58 OFFCURVE",
"464 62 OFFCURVE",
"400 84 CURVE",
"400 0 LINE",
"458 -24 OFFCURVE",
"522 -28 OFFCURVE",
"582 -28 CURVE SMOOTH"
);
}
);
width = 1150;
},
{
layerId = "0DA27741-1AFD-43F2-A947-40AFBF8D6498";
paths = (
{
closed = 1;
nodes = (
"1008 -30 OFFCURVE",
"1172 142 OFFCURVE",
"1172 428 CURVE SMOOTH",
"1172 596 OFFCURVE",
"1094 740 OFFCURVE",
"954 798 CURVE",
"1026 866 OFFCURVE",
"1058 956 OFFCURVE",
"1058 1058 CURVE SMOOTH",
"1058 1292 OFFCURVE",
"852 1470 OFFCURVE",
"596 1470 CURVE SMOOTH",
"402 1470 OFFCURVE",
"216 1390 OFFCURVE",
"154 1188 CURVE SMOOTH",
"142 1148 OFFCURVE",
"138 1110 OFFCURVE",
"138 1060 CURVE SMOOTH",
"138 0 LINE",
"412 0 LINE",
"412 986 LINE SMOOTH",
"412 1044 OFFCURVE",
"420 1100 OFFCURVE",
"438 1132 CURVE SMOOTH",
"474 1196 OFFCURVE",
"532 1216 OFFCURVE",
"596 1216 CURVE SMOOTH",
"692 1216 OFFCURVE",
"784 1156 OFFCURVE",
"784 1052 CURVE SMOOTH",
"784 950 OFFCURVE",
"720 888 OFFCURVE",
"598 880 CURVE",
"598 644 LINE",
"776 644 OFFCURVE",
"900 584 OFFCURVE",
"900 432 CURVE SMOOTH",
"900 298 OFFCURVE",
"810 236 OFFCURVE",
"670 236 CURVE SMOOTH",
"608 236 OFFCURVE",
"558 252 OFFCURVE",
"524 266 CURVE",
"524 0 LINE",
"570 -20 OFFCURVE",
"622 -30 OFFCURVE",
"710 -30 CURVE SMOOTH"
);
}
);
width = 1292;
},
{
associatedMasterId = "0DA27741-1AFD-43F2-A947-40AFBF8D6498";
layerId = "A2873047-0ED6-4C67-9B4D-3870B51BD5C6";
width = 1200;
},
{
associatedMasterId = "0DA27741-1AFD-43F2-A947-40AFBF8D6498";
layerId = "55314CA7-5524-4D70-B802-98D4FAE25636";
width = 1256;
},
{
associatedMasterId = "0DA27741-1AFD-43F2-A947-40AFBF8D6498";
layerId = "13A3DD5D-E91B-4961-8595-F8141D3FA442";
width = 1208;
}
);
leftKerningGroup = b;
leftMetricsKey = b;
rightKerningGroup = b;
rightMetricsKey = n;
unicode = 00DF;
},
{
glyphname = t;
lastChange = "2020-03-06 05:46:35 +0000";
layers = (
{
layerId = "CAA188E2-8C62-414B-93AE-B576BEB044DB";
paths = (
{
closed = 1;
nodes = (
"698 80 LINE",
"530 52 OFFCURVE",
"428 68 OFFCURVE",
"380 164 CURVE SMOOTH",
"354 214 OFFCURVE",
"358 264 OFFCURVE",
"358 358 CURVE SMOOTH",
"358 1380 LINE",
"274 1380 LINE",
"274 358 LINE SMOOTH",
"274 264 OFFCURVE",
"272 196 OFFCURVE",
"304 126 CURVE SMOOTH",
"366 -10 OFFCURVE",
"536 -36 OFFCURVE",
"698 0 CURVE"
);
},
{
closed = 1;
nodes = (
"698 996 LINE",
"698 1080 LINE",
"20 1080 LINE",
"20 996 LINE"
);
}
);
width = 758;
},
{
layerId = "0DA27741-1AFD-43F2-A947-40AFBF8D6498";
paths = (
{
closed = 1;
nodes = (
"788 226 LINE",
"660 208 OFFCURVE",
"546 204 OFFCURVE",
"498 280 CURVE SMOOTH",
"472 320 OFFCURVE",
"476 390 OFFCURVE",
"476 474 CURVE SMOOTH",
"476 1380 LINE",
"204 1380 LINE",
"204 458 LINE SMOOTH",
"204 328 OFFCURVE",
"194 232 OFFCURVE",
"248 134 CURVE SMOOTH",
"336 -24 OFFCURVE",
"564 -42 OFFCURVE",
"788 0 CURVE"
);
},
{
closed = 1;
nodes = (
"788 870 LINE",
"788 1080 LINE",
"20 1080 LINE",
"20 870 LINE"
);
}
);
width = 888;
},
{
associatedMasterId = "0DA27741-1AFD-43F2-A947-40AFBF8D6498";
layerId = "A2873047-0ED6-4C67-9B4D-3870B51BD5C6";
width = 1200;
},
{
associatedMasterId = "0DA27741-1AFD-43F2-A947-40AFBF8D6498";
layerId = "55314CA7-5524-4D70-B802-98D4FAE25636";
width = 632;
},
{
associatedMasterId = "0DA27741-1AFD-43F2-A947-40AFBF8D6498";
layerId = "13A3DD5D-E91B-4961-8595-F8141D3FA442";
width = 1110;
}
);
leftKerningGroup = t;
note = t;
rightKerningGroup = t;
unicode = 0074;
},
{
glyphname = tbar;
lastChange = "2020-02-20 18:21:12 +0000";
layers = (
{
components = (
{
name = t;
}
);
layerId = "CAA188E2-8C62-414B-93AE-B576BEB044DB";
paths = (
{
closed = 1;
nodes = (
"698 498 LINE",
"698 582 LINE",
"20 582 LINE",
"20 498 LINE"
);
}
);
width = 798;
},
{
components = (
{
name = t;
}
);
layerId = "0DA27741-1AFD-43F2-A947-40AFBF8D6498";
paths = (
{
closed = 1;
nodes = (
"828 456 LINE",
"828 666 LINE",
"20 666 LINE",
"20 456 LINE"
);
}
);
width = 928;
},
{
associatedMasterId = "0DA27741-1AFD-43F2-A947-40AFBF8D6498";
layerId = "A2873047-0ED6-4C67-9B4D-3870B51BD5C6";
width = 1200;
},
{
associatedMasterId = "0DA27741-1AFD-43F2-A947-40AFBF8D6498";
layerId = "55314CA7-5524-4D70-B802-98D4FAE25636";
width = 632;
},
{
associatedMasterId = "0DA27741-1AFD-43F2-A947-40AFBF8D6498";
layerId = "13A3DD5D-E91B-4961-8595-F8141D3FA442";
width = 1110;
}
);
leftKerningGroup = t;
leftMetricsKey = t;
rightKerningGroup = t;
unicode = 0167;
},
{
glyphname = u;
lastChange = "2020-02-20 18:21:12 +0000";
layers = (
{
layerId = "CAA188E2-8C62-414B-93AE-B576BEB044DB";
paths = (
{
closed = 1;
nodes = (
"796 -24 OFFCURVE",
"1000 122 OFFCURVE",
"1000 492 CURVE",
"922 490 LINE",
"922 258 OFFCURVE",
"822 58 OFFCURVE",
"558 58 CURVE SMOOTH",
"334 58 OFFCURVE",
"204 200 OFFCURVE",
"204 508 CURVE SMOOTH",
"204 1080 LINE",
"120 1080 LINE",
"120 492 LINE SMOOTH",
"120 172 OFFCURVE",
"284 -24 OFFCURVE",
"558 -24 CURVE SMOOTH"
);
},
{
closed = 1;
nodes = (
"1006 0 LINE",
"1006 1080 LINE",
"922 1080 LINE",
"922 220 LINE",
"928 220 LINE",
"928 0 LINE"
);
}
);
width = 1146;
},
{
layerId = "0DA27741-1AFD-43F2-A947-40AFBF8D6498";
paths = (
{
closed = 1;
nodes = (
"860 -32 OFFCURVE",
"1014 202 OFFCURVE",
"1014 458 CURVE",
"858 532 LINE",
"858 264 OFFCURVE",
"722 224 OFFCURVE",
"628 224 CURVE SMOOTH",
"396 224 OFFCURVE",
"396 472 OFFCURVE",
"396 570 CURVE SMOOTH",
"396 1080 LINE",
"120 1080 LINE",
"120 474 LINE SMOOTH",
"120 384 OFFCURVE",
"120 -32 OFFCURVE",
"542 -32 CURVE SMOOTH"
);
},
{
closed = 1;
nodes = (
"1132 0 LINE",
"1132 1080 LINE",
"858 1080 LINE",
"858 358 LINE",
"892 358 LINE",
"892 0 LINE"
);
}
);
width = 1272;
},
{
associatedMasterId = "0DA27741-1AFD-43F2-A947-40AFBF8D6498";
layerId = "A2873047-0ED6-4C67-9B4D-3870B51BD5C6";
width = 1200;
},
{
associatedMasterId = "0DA27741-1AFD-43F2-A947-40AFBF8D6498";
layerId = "55314CA7-5524-4D70-B802-98D4FAE25636";
width = 1128;
},
{
associatedMasterId = "0DA27741-1AFD-43F2-A947-40AFBF8D6498";
layerId = "13A3DD5D-E91B-4961-8595-F8141D3FA442";
width = 1188;
}
);
leftKerningGroup = u;
note = u;
rightKerningGroup = u;
unicode = 0075;
},
{
glyphname = v;
lastChange = "2020-02-20 18:21:12 +0000";
layers = (
{
layerId = "CAA188E2-8C62-414B-93AE-B576BEB044DB";
paths = (
{
closed = 1;
nodes = (
"524 0 LINE",
"916 1080 LINE",
"826 1080 LINE",
"478 122 LINE",
"128 1080 LINE",
"40 1080 LINE",
"432 0 LINE"
);
}
);
width = 956;
},
{
layerId = "0DA27741-1AFD-43F2-A947-40AFBF8D6498";
paths = (
{
closed = 1;
nodes = (
"704 0 LINE",
"1096 1080 LINE",
"824 1080 LINE",
"568 332 LINE",
"312 1080 LINE",
"40 1080 LINE",
"432 0 LINE"
);
}
);
width = 1136;
},
{
associatedMasterId = "0DA27741-1AFD-43F2-A947-40AFBF8D6498";
layerId = "A2873047-0ED6-4C67-9B4D-3870B51BD5C6";
width = 1200;
},
{
associatedMasterId = "0DA27741-1AFD-43F2-A947-40AFBF8D6498";
layerId = "55314CA7-5524-4D70-B802-98D4FAE25636";
width = 952;
},
{
associatedMasterId = "0DA27741-1AFD-43F2-A947-40AFBF8D6498";
layerId = "13A3DD5D-E91B-4961-8595-F8141D3FA442";
width = 1160;
}
);
leftKerningGroup = v;
rightKerningGroup = v;
unicode = 0076;
},
{
glyphname = w;
lastChange = "2020-03-10 05:44:50 +0000";
layers = (
{
layerId = "CAA188E2-8C62-414B-93AE-B576BEB044DB";
paths = (
{
closed = 1;
nodes = (
"458 0 LINE",
"744 938 LINE",
"1030 0 LINE",
"1118 0 LINE",
"1448 1080 LINE",
"1362 1080 LINE",
"1074 144 LINE",
"788 1080 LINE",
"700 1080 LINE",
"414 144 LINE",
"128 1080 LINE",
"40 1080 LINE",
"370 0 LINE"
);
}
);
width = 1488;
},
{
layerId = "0DA27741-1AFD-43F2-A947-40AFBF8D6498";
paths = (
{
closed = 1;
nodes = (
"578 0 LINE",
"814 704 LINE",
"1050 0 LINE",
"1258 0 LINE",
"1588 1080 LINE",
"1322 1080 LINE",
"1126 436 LINE",
"927 1080 LINE",
"701 1080 LINE",
"502 436 LINE",
"306 1080 LINE",
"40 1082 LINE",
"370 0 LINE"
);
}
);
width = 1628;
},
{
associatedMasterId = "0DA27741-1AFD-43F2-A947-40AFBF8D6498";
layerId = "A2873047-0ED6-4C67-9B4D-3870B51BD5C6";
width = 1200;
},
{
associatedMasterId = "0DA27741-1AFD-43F2-A947-40AFBF8D6498";
layerId = "55314CA7-5524-4D70-B802-98D4FAE25636";
width = 1618;
},
{
associatedMasterId = "0DA27741-1AFD-43F2-A947-40AFBF8D6498";
layerId = "13A3DD5D-E91B-4961-8595-F8141D3FA442";
width = 1266;
}
);
leftKerningGroup = v;
note = w;
rightKerningGroup = v;
unicode = 0077;
},
{
glyphname = x;
lastChange = "2020-02-20 18:21:12 +0000";
layers = (
{
layerId = "CAA188E2-8C62-414B-93AE-B576BEB044DB";
paths = (
{
closed = 1;
nodes = (
"126 0 LINE",
"510 484 LINE",
"892 0 LINE",
"998 0 LINE",
"558 546 LINE",
"988 1080 LINE",
"884 1080 LINE",
"510 608 LINE",
"134 1080 LINE",
"30 1080 LINE",
"460 546 LINE",
"20 0 LINE"
);
}
);
width = 1018;
},
{
layerId = "0DA27741-1AFD-43F2-A947-40AFBF8D6498";
paths = (
{
closed = 1;
nodes = (
"340 0 LINE",
"564 332 LINE",
"786 0 LINE",
"1106 0 LINE",
"718 546 LINE",
"1096 1080 LINE",
"776 1080 LINE",
"564 760 LINE",
"348 1080 LINE",
"28 1080 LINE",
"406 546 LINE",
"20 0 LINE"
);
}
);
width = 1126;
},
{
associatedMasterId = "0DA27741-1AFD-43F2-A947-40AFBF8D6498";
layerId = "A2873047-0ED6-4C67-9B4D-3870B51BD5C6";
width = 1200;
},
{
associatedMasterId = "0DA27741-1AFD-43F2-A947-40AFBF8D6498";
layerId = "55314CA7-5524-4D70-B802-98D4FAE25636";
width = 968;
},
{
associatedMasterId = "0DA27741-1AFD-43F2-A947-40AFBF8D6498";
layerId = "13A3DD5D-E91B-4961-8595-F8141D3FA442";
width = 1162;
}
);
leftKerningGroup = x;
note = x;
rightKerningGroup = x;
unicode = 0078;
},
{
glyphname = y;
lastChange = "2020-02-20 18:21:12 +0000";
layers = (
{
layerId = "CAA188E2-8C62-414B-93AE-B576BEB044DB";
paths = (
{
closed = 1;
nodes = (
"396 -480 LINE",
"962 1080 LINE",
"872 1080 LINE",
"492 32 LINE",
"556 32 LINE",
"132 1080 LINE",
"40 1080 LINE",
"514 -84 LINE",
"512 84 LINE",
"302 -480 LINE"
);
}
);
width = 1012;
},
{
layerId = "0DA27741-1AFD-43F2-A947-40AFBF8D6498";
paths = (
{
closed = 1;
nodes = (
"530 -480 LINE",
"1140 1080 LINE",
"868 1080 LINE",
"554 262 LINE",
"618 262 LINE",
"302 1080 LINE",
"20 1080 LINE",
"490 -76 LINE",
"486 92 LINE",
"278 -480 LINE"
);
}
);
width = 1140;
},
{
associatedMasterId = "0DA27741-1AFD-43F2-A947-40AFBF8D6498";
layerId = "A2873047-0ED6-4C67-9B4D-3870B51BD5C6";
width = 1200;
},
{
associatedMasterId = "0DA27741-1AFD-43F2-A947-40AFBF8D6498";
layerId = "55314CA7-5524-4D70-B802-98D4FAE25636";
width = 912;
},
{
associatedMasterId = "0DA27741-1AFD-43F2-A947-40AFBF8D6498";
layerId = "13A3DD5D-E91B-4961-8595-F8141D3FA442";
width = 1154;
},
{
associatedMasterId = "0DA27741-1AFD-43F2-A947-40AFBF8D6498";
components = (
{
name = y2.alt;
transform = "{1, 0, 0, 1, 26, 0}";
}
);
layerId = "0945A77F-B33F-4B17-8B55-225B30755A13";
name = "Dec 28 18, 16:43";
paths = (
{
closed = 1;
nodes = (
"606 314 LINE",
"338 1080 LINE",
"66 1080 LINE",
"480 -30 LINE",
"286 -480 LINE",
"558 -480 LINE",
"1152 1080 LINE",
"880 1080 LINE"
);
}
);
width = 1172;
}
);
leftKerningGroup = y;
note = y;
rightKerningGroup = y;
unicode = 0079;
},
{
glyphname = z;
lastChange = "2020-02-20 18:21:12 +0000";
layers = (
{
layerId = "CAA188E2-8C62-414B-93AE-B576BEB044DB";
paths = (
{
closed = 1;
nodes = (
"926 0 LINE",
"926 88 LINE",
"194 88 LINE",
"974 1046 LINE",
"974 1080 LINE",
"88 1080 LINE",
"88 992 LINE",
"820 992 LINE",
"40 30 LINE",
"40 0 LINE"
);
}
);
width = 1054;
},
{
layerId = "0DA27741-1AFD-43F2-A947-40AFBF8D6498";
paths = (
{
closed = 1;
nodes = (
"970 0 LINE",
"970 236 LINE",
"462 236 LINE",
"990 1046 LINE",
"990 1080 LINE",
"100 1080 LINE",
"100 844 LINE",
"570 844 LINE",
"40 34 LINE",
"40 0 LINE"
);
}
);
width = 1070;
},
{
associatedMasterId = "0DA27741-1AFD-43F2-A947-40AFBF8D6498";
layerId = "A2873047-0ED6-4C67-9B4D-3870B51BD5C6";
width = 1200;
},
{
associatedMasterId = "0DA27741-1AFD-43F2-A947-40AFBF8D6498";
layerId = "55314CA7-5524-4D70-B802-98D4FAE25636";
width = 1070;
},
{
associatedMasterId = "0DA27741-1AFD-43F2-A947-40AFBF8D6498";
layerId = "13A3DD5D-E91B-4961-8595-F8141D3FA442";
width = 1180;
}
);
leftKerningGroup = z;
note = z;
rightKerningGroup = z;
unicode = 007A;
},
{
glyphname = fl;
lastChange = "2020-02-20 18:21:12 +0000";
layers = (
{
components = (
{
name = f;
},
{
name = l;
transform = "{1, 0, 0, 1, 758, 0}";
}
);
layerId = "CAA188E2-8C62-414B-93AE-B576BEB044DB";
paths = (
{
closed = 1;
nodes = (
"938 996 LINE",
"938 1080 LINE",
"618 1080 LINE",
"618 996 LINE"
);
}
);
width = 1162;
},
{
components = (
{
name = f;
},
{
name = l;
transform = "{1, 0, 0, 1, 830, 0}";
}
);
layerId = "0DA27741-1AFD-43F2-A947-40AFBF8D6498";
paths = (
{
closed = 1;
nodes = (
"1000 870 LINE",
"1000 1080 LINE",
"740 1080 LINE",
"740 870 LINE"
);
}
);
width = 1422;
},
{
associatedMasterId = "0DA27741-1AFD-43F2-A947-40AFBF8D6498";
layerId = "A2873047-0ED6-4C67-9B4D-3870B51BD5C6";
width = 1200;
},
{
associatedMasterId = "0DA27741-1AFD-43F2-A947-40AFBF8D6498";
layerId = "55314CA7-5524-4D70-B802-98D4FAE25636";
width = 1320;
},
{
associatedMasterId = "0DA27741-1AFD-43F2-A947-40AFBF8D6498";
layerId = "13A3DD5D-E91B-4961-8595-F8141D3FA442";
width = 1220;
}
);
leftKerningGroup = f;
leftMetricsKey = f;
rightKerningGroup = l;
rightMetricsKey = l;
unicode = FB02;
},
{
glyphname = "Be-cy";
lastChange = "2020-02-20 18:21:12 +0000";
layers = (
{
layerId = "CAA188E2-8C62-414B-93AE-B576BEB044DB";
paths = (
{
closed = 1;
nodes = (
"670 0 LINE SMOOTH",
"698 0 OFFCURVE",
"726 2 OFFCURVE",
"762 8 CURVE SMOOTH",
"970 40 OFFCURVE",
"1102 216 OFFCURVE",
"1102 432 CURVE SMOOTH",
"1102 648 OFFCURVE",
"970 824 OFFCURVE",
"762 856 CURVE SMOOTH",
"726 862 OFFCURVE",
"698 864 OFFCURVE",
"670 864 CURVE SMOOTH",
"224 864 LINE",
"224 1356 LINE",
"980 1356 LINE",
"980 1440 LINE",
"140 1440 LINE",
"140 0 LINE"
);
},
{
closed = 1;
nodes = (
"224 780 LINE",
"670 780 LINE SMOOTH",
"692 780 OFFCURVE",
"726 778 OFFCURVE",
"758 772 CURVE SMOOTH",
"924 740 OFFCURVE",
"1012 594 OFFCURVE",
"1012 432 CURVE SMOOTH",
"1012 270 OFFCURVE",
"924 124 OFFCURVE",
"758 92 CURVE SMOOTH",
"726 86 OFFCURVE",
"692 84 OFFCURVE",
"670 84 CURVE SMOOTH",
"224 84 LINE"
);
}
);
width = 1162;
},
{
layerId = "0DA27741-1AFD-43F2-A947-40AFBF8D6498";
paths = (
{
closed = 1;
nodes = (
"748 0 LINE SMOOTH",
"776 0 OFFCURVE",
"830 2 OFFCURVE",
"868 6 CURVE SMOOTH",
"1118 32 OFFCURVE",
"1240 226 OFFCURVE",
"1240 456 CURVE SMOOTH",
"1240 686 OFFCURVE",
"1116 880 OFFCURVE",
"868 906 CURVE SMOOTH",
"830 910 OFFCURVE",
"774 912 OFFCURVE",
"748 912 CURVE SMOOTH",
"412 912 LINE",
"412 1186 LINE",
"1128 1186 LINE",
"1128 1440 LINE",
"140 1440 LINE",
"140 0 LINE"
);
},
{
closed = 1;
nodes = (
"412 658 LINE",
"736 658 LINE SMOOTH",
"764 658 OFFCURVE",
"800 656 OFFCURVE",
"828 650 CURVE SMOOTH",
"938 626 OFFCURVE",
"966 534 OFFCURVE",
"966 456 CURVE SMOOTH",
"966 378 OFFCURVE",
"938 286 OFFCURVE",
"828 262 CURVE SMOOTH",
"800 256 OFFCURVE",
"764 254 OFFCURVE",
"736 254 CURVE SMOOTH",
"412 254 LINE"
);
}
);
width = 1300;
},
{
associatedMasterId = "0DA27741-1AFD-43F2-A947-40AFBF8D6498";
layerId = "A2873047-0ED6-4C67-9B4D-3870B51BD5C6";
width = 1200;
},
{
associatedMasterId = "0DA27741-1AFD-43F2-A947-40AFBF8D6498";
layerId = "55314CA7-5524-4D70-B802-98D4FAE25636";
width = 1200;
},
{
associatedMasterId = "0DA27741-1AFD-43F2-A947-40AFBF8D6498";
layerId = "13A3DD5D-E91B-4961-8595-F8141D3FA442";
width = 1200;
}
);
leftKerningGroup = N;
leftMetricsKey = B;
rightKerningGroup = P;
rightMetricsKey = P;
unicode = 0411;
},
{
glyphname = "Ge-cy";
lastChange = "2020-02-20 18:21:12 +0000";
layers = (
{
layerId = "CAA188E2-8C62-414B-93AE-B576BEB044DB";
paths = (
{
closed = 1;
nodes = (
"224 0 LINE",
"224 1356 LINE",
"1020 1356 LINE",
"1020 1440 LINE",
"140 1440 LINE",
"140 0 LINE"
);
}
);
width = 1040;
},
{
layerId = "0DA27741-1AFD-43F2-A947-40AFBF8D6498";
paths = (
{
closed = 1;
nodes = (
"412 0 LINE",
"412 1186 LINE",
"1080 1186 LINE",
"1080 1440 LINE",
"140 1440 LINE",
"140 0 LINE"
);
}
);
width = 1100;
},
{
associatedMasterId = "0DA27741-1AFD-43F2-A947-40AFBF8D6498";
layerId = "A2873047-0ED6-4C67-9B4D-3870B51BD5C6";
width = 1200;
},
{
associatedMasterId = "0DA27741-1AFD-43F2-A947-40AFBF8D6498";
layerId = "55314CA7-5524-4D70-B802-98D4FAE25636";
width = 976;
},
{
associatedMasterId = "0DA27741-1AFD-43F2-A947-40AFBF8D6498";
layerId = "13A3DD5D-E91B-4961-8595-F8141D3FA442";
width = 1164;
}
);
leftKerningGroup = B;
leftMetricsKey = B;
rightKerningGroup = T;
rightMetricsKey = T;
unicode = 0413;
},
{
glyphname = "Gheupturn-cy";
lastChange = "2020-02-20 18:21:12 +0000";
layers = (
{
layerId = "CAA188E2-8C62-414B-93AE-B576BEB044DB";
paths = (
{
closed = 1;
nodes = (
"224 0 LINE",
"224 1356 LINE",
"1040 1356 LINE",
"1040 1600 LINE",
"956 1600 LINE",
"956 1440 LINE",
"140 1440 LINE",
"140 0 LINE"
);
}
);
width = 1060;
},
{
layerId = "0DA27741-1AFD-43F2-A947-40AFBF8D6498";
paths = (
{
closed = 1;
nodes = (
"412 0 LINE",
"412 1186 LINE",
"1100 1186 LINE",
"1100 1680 LINE",
"828 1680 LINE",
"828 1440 LINE",
"140 1440 LINE",
"140 0 LINE"
);
}
);
width = 1120;
},
{
associatedMasterId = "0DA27741-1AFD-43F2-A947-40AFBF8D6498";
layerId = "A2873047-0ED6-4C67-9B4D-3870B51BD5C6";
width = 1200;
},
{
associatedMasterId = "0DA27741-1AFD-43F2-A947-40AFBF8D6498";
layerId = "55314CA7-5524-4D70-B802-98D4FAE25636";
width = 976;
},
{
associatedMasterId = "0DA27741-1AFD-43F2-A947-40AFBF8D6498";
layerId = "13A3DD5D-E91B-4961-8595-F8141D3FA442";
width = 1164;
}
);
leftKerningGroup = B;
rightKerningGroup = T;
unicode = 0490;
},
{
glyphname = "De-cy";
lastChange = "2020-02-20 18:21:12 +0000";
layers = (
{
layerId = "CAA188E2-8C62-414B-93AE-B576BEB044DB";
paths = (
{
closed = 1;
nodes = (
"164 -240 LINE",
"164 0 LINE",
"1292 0 LINE",
"1292 -240 LINE",
"1376 -240 LINE",
"1376 84 LINE",
"1276 84 LINE",
"1276 1440 LINE",
"422 1440 LINE",
"406 1112 OFFCURVE",
"400 886 OFFCURVE",
"368 608 CURVE SMOOTH",
"340 368 OFFCURVE",
"328 84 OFFCURVE",
"80 84 CURVE",
"80 -240 LINE"
);
},
{
closed = 1;
nodes = (
"396 156 OFFCURVE",
"428 324 OFFCURVE",
"452 564 CURVE SMOOTH",
"480 836 OFFCURVE",
"492 1090 OFFCURVE",
"504 1356 CURVE",
"1192 1356 LINE",
"1192 84 LINE",
"298 84 LINE"
);
}
);
width = 1456;
},
{
layerId = "0DA27741-1AFD-43F2-A947-40AFBF8D6498";
paths = (
{
closed = 1;
nodes = (
"332 -240 LINE",
"332 0 LINE",
"1162 0 LINE",
"1162 -240 LINE",
"1434 -240 LINE",
"1434 254 LINE",
"1324 254 LINE",
"1324 1440 LINE",
"368 1442 LINE",
"348 1150 OFFCURVE",
"336 932 OFFCURVE",
"316 692 CURVE SMOOTH",
"294 440 OFFCURVE",
"234 254 OFFCURVE",
"60 254 CURVE",
"60 -240 LINE"
);
},
{
closed = 1;
nodes = (
"548 362 OFFCURVE",
"558 438 OFFCURVE",
"578 648 CURVE SMOOTH",
"598 858 OFFCURVE",
"602 990 OFFCURVE",
"616 1188 CURVE",
"1052 1186 LINE",
"1052 254 LINE",
"466 254 LINE"
);
}
);
width = 1514;
},
{
associatedMasterId = "0DA27741-1AFD-43F2-A947-40AFBF8D6498";
layerId = "A2873047-0ED6-4C67-9B4D-3870B51BD5C6";
width = 1200;
},
{
associatedMasterId = "0DA27741-1AFD-43F2-A947-40AFBF8D6498";
layerId = "55314CA7-5524-4D70-B802-98D4FAE25636";
width = 1542;
},
{
associatedMasterId = "0DA27741-1AFD-43F2-A947-40AFBF8D6498";
layerId = "13A3DD5D-E91B-4961-8595-F8141D3FA442";
width = 1254;
}
);
leftKerningGroup = A;
rightKerningGroup = N;
unicode = 0414;
},
{
glyphname = "Zhe-cy";
lastChange = "2020-02-20 18:21:12 +0000";
layers = (
{
layerId = "CAA188E2-8C62-414B-93AE-B576BEB044DB";
paths = (
{
closed = 1;
nodes = (
"136 0 LINE",
"832 752 LINE",
"832 0 LINE",
"916 0 LINE",
"916 752 LINE",
"1612 0 LINE",
"1728 0 LINE",
"1026 752 LINE",
"1664 1440 LINE",
"1548 1440 LINE",
"916 752 LINE",
"916 1440 LINE",
"832 1440 LINE",
"832 752 LINE",
"200 1440 LINE",
"84 1440 LINE",
"722 752 LINE",
"20 0 LINE"
);
}
);
width = 1748;
},
{
layerId = "0DA27741-1AFD-43F2-A947-40AFBF8D6498";
paths = (
{
closed = 1;
nodes = (
"354 0 LINE",
"788 636 LINE",
"788 0 LINE",
"1060 0 LINE",
"1060 636 LINE",
"1494 0 LINE",
"1828 0 LINE",
"1318 730 LINE",
"1790 1440 LINE",
"1468 1440 LINE",
"1060 796 LINE",
"1060 1440 LINE",
"788 1440 LINE",
"788 796 LINE",
"380 1440 LINE",
"58 1440 LINE",
"530 730 LINE",
"20 0 LINE"
);
}
);
width = 1848;
},
{
associatedMasterId = "0DA27741-1AFD-43F2-A947-40AFBF8D6498";
layerId = "A2873047-0ED6-4C67-9B4D-3870B51BD5C6";
width = 1200;
},
{
associatedMasterId = "0DA27741-1AFD-43F2-A947-40AFBF8D6498";
layerId = "55314CA7-5524-4D70-B802-98D4FAE25636";
width = 1936;
},
{
associatedMasterId = "0DA27741-1AFD-43F2-A947-40AFBF8D6498";
layerId = "13A3DD5D-E91B-4961-8595-F8141D3FA442";
width = 1318;
}
);
leftKerningGroup = X;
leftMetricsKey = X;
rightKerningGroup = K;
rightMetricsKey = X;
unicode = 0416;
},
{
glyphname = "Ze-cy";
lastChange = "2020-02-20 18:21:12 +0000";
layers = (
{
layerId = "CAA188E2-8C62-414B-93AE-B576BEB044DB";
paths = (
{
closed = 1;
nodes = (
"882 -30 OFFCURVE",
"1062 138 OFFCURVE",
"1062 392 CURVE SMOOTH",
"1062 582 OFFCURVE",
"962 698 OFFCURVE",
"804 738 CURVE",
"924 788 OFFCURVE",
"1016 912 OFFCURVE",
"1016 1084 CURVE SMOOTH",
"1016 1336 OFFCURVE",
"816 1470 OFFCURVE",
"578 1470 CURVE SMOOTH",
"342 1470 OFFCURVE",
"176 1340 OFFCURVE",
"90 1148 CURVE",
"178 1114 LINE",
"264 1286 OFFCURVE",
"382 1386 OFFCURVE",
"576 1386 CURVE SMOOTH",
"780 1386 OFFCURVE",
"926 1276 OFFCURVE",
"926 1084 CURVE SMOOTH",
"926 910 OFFCURVE",
"804 792 OFFCURVE",
"588 782 CURVE SMOOTH",
"544 780 OFFCURVE",
"432 780 OFFCURVE",
"422 780 CURVE",
"422 696 LINE",
"440 696 OFFCURVE",
"440 696 OFFCURVE",
"588 690 CURVE SMOOTH",
"808 682 OFFCURVE",
"972 620 OFFCURVE",
"972 396 CURVE SMOOTH",
"972 180 OFFCURVE",
"818 54 OFFCURVE",
"570 54 CURVE SMOOTH",
"342 54 OFFCURVE",
"194 162 OFFCURVE",
"146 316 CURVE",
"60 280 LINE",
"118 110 OFFCURVE",
"280 -30 OFFCURVE",
"568 -30 CURVE SMOOTH"
);
}
);
width = 1122;
},
{
layerId = "0DA27741-1AFD-43F2-A947-40AFBF8D6498";
paths = (
{
closed = 1;
nodes = (
"990 -30 OFFCURVE",
"1254 146 OFFCURVE",
"1254 432 CURVE SMOOTH",
"1254 584 OFFCURVE",
"1186 684 OFFCURVE",
"1066 738 CURVE",
"1148 812 OFFCURVE",
"1194 928 OFFCURVE",
"1194 1052 CURVE SMOOTH",
"1194 1344 OFFCURVE",
"938 1470 OFFCURVE",
"684 1470 CURVE SMOOTH",
"474 1470 OFFCURVE",
"300 1384 OFFCURVE",
"200 1280 CURVE",
"386 1080 LINE",
"434 1148 OFFCURVE",
"544 1216 OFFCURVE",
"676 1216 CURVE SMOOTH",
"816 1216 OFFCURVE",
"906 1148 OFFCURVE",
"906 1042 CURVE SMOOTH",
"906 926 OFFCURVE",
"800 874 OFFCURVE",
"660 868 CURVE SMOOTH",
"626 866 OFFCURVE",
"552 866 OFFCURVE",
"526 866 CURVE",
"526 610 LINE",
"544 610 OFFCURVE",
"548 610 OFFCURVE",
"686 606 CURVE SMOOTH",
"828 602 OFFCURVE",
"966 570 OFFCURVE",
"966 432 CURVE SMOOTH",
"966 328 OFFCURVE",
"886 226 OFFCURVE",
"678 226 CURVE SMOOTH",
"458 226 OFFCURVE",
"358 338 OFFCURVE",
"310 438 CURVE",
"80 278 LINE",
"168 124 OFFCURVE",
"360 -30 OFFCURVE",
"666 -30 CURVE SMOOTH"
);
}
);
width = 1334;
},
{
associatedMasterId = "0DA27741-1AFD-43F2-A947-40AFBF8D6498";
layerId = "A2873047-0ED6-4C67-9B4D-3870B51BD5C6";
width = 1200;
},
{
associatedMasterId = "0DA27741-1AFD-43F2-A947-40AFBF8D6498";
layerId = "55314CA7-5524-4D70-B802-98D4FAE25636";
width = 1188;
},
{
associatedMasterId = "0DA27741-1AFD-43F2-A947-40AFBF8D6498";
layerId = "13A3DD5D-E91B-4961-8595-F8141D3FA442";
width = 1198;
}
);
leftKerningGroup = O;
leftMetricsKey = S;
rightKerningGroup = B;
rightMetricsKey = S;
unicode = 0417;
},
{
glyphname = "Iishort-cy";
lastChange = "2020-02-20 18:21:12 +0000";
layers = (
{
components = (
{
name = brevecomb;
transform = "{1, 0, 0, 1, 214, 0}";
}
);
layerId = "CAA188E2-8C62-414B-93AE-B576BEB044DB";
paths = (
{
closed = 1;
nodes = (
"224 0 LINE",
"1100 1292 LINE",
"1100 0 LINE",
"1184 0 LINE",
"1184 1440 LINE",
"1100 1440 LINE",
"224 150 LINE",
"224 1440 LINE",
"140 1440 LINE",
"140 0 LINE"
);
}
);
width = 1324;
},
{
components = (
{
name = brevecomb;
transform = "{1, 0, 0, 1, 166, 0}";
}
);
layerId = "0DA27741-1AFD-43F2-A947-40AFBF8D6498";
paths = (
{
closed = 1;
nodes = (
"416 0 LINE",
"1042 960 LINE",
"1042 0 LINE",
"1318 0 LINE",
"1318 1440 LINE",
"1042 1440 LINE",
"416 480 LINE",
"416 1440 LINE",
"140 1440 LINE",
"140 0 LINE"
);
}
);
width = 1458;
},
{
associatedMasterId = "0DA27741-1AFD-43F2-A947-40AFBF8D6498";
layerId = "A2873047-0ED6-4C67-9B4D-3870B51BD5C6";
width = 1200;
},
{
associatedMasterId = "0DA27741-1AFD-43F2-A947-40AFBF8D6498";
layerId = "55314CA7-5524-4D70-B802-98D4FAE25636";
width = 1450;
},
{
associatedMasterId = "0DA27741-1AFD-43F2-A947-40AFBF8D6498";
layerId = "13A3DD5D-E91B-4961-8595-F8141D3FA442";
width = 1240;
}
);
leftKerningGroup = N;
leftMetricsKey = N;
rightKerningGroup = N;
rightMetricsKey = N;
unicode = 0419;
},
{
glyphname = "Iigrave-cy";
lastChange = "2020-03-10 05:52:44 +0000";
layers = (
{
components = (
{
name = gravecomb;
transform = "{1, 0, 0, 1, 164, 0}";
}
);
layerId = "0DA27741-1AFD-43F2-A947-40AFBF8D6498";
paths = (
{
closed = 1;
nodes = (
"416 0 LINE",
"1042 960 LINE",
"1042 0 LINE",
"1318 0 LINE",
"1318 1440 LINE",
"1042 1440 LINE",
"416 480 LINE",
"416 1440 LINE",
"140 1440 LINE",
"140 0 LINE"
);
}
);
width = 1458;
},
{
components = (
{
name = gravecomb;
transform = "{1, 0, 0, 1, 191, 0}";
}
);
layerId = "CAA188E2-8C62-414B-93AE-B576BEB044DB";
paths = (
{
closed = 1;
nodes = (
"224 0 LINE",
"1100 1292 LINE",
"1100 0 LINE",
"1184 0 LINE",
"1184 1440 LINE",
"1100 1440 LINE",
"224 150 LINE",
"224 1440 LINE",
"140 1440 LINE",
"140 0 LINE"
);
}
);
width = 1324;
}
);
unicode = 040D;
},
{
glyphname = "Kje-cy";
lastChange = "2020-02-20 18:21:12 +0000";
layers = (
{
components = (
{
name = acutecomb;
transform = "{1, 0, 0, 1, 148, 0}";
}
);
layerId = "0DA27741-1AFD-43F2-A947-40AFBF8D6498";
paths = (
{
closed = 1;
nodes = (
"412 0 LINE",
"412 656 LINE",
"986 0 LINE",
"1330 0 LINE",
"690 730 LINE",
"1292 1440 LINE",
"960 1440 LINE",
"412 776 LINE",
"412 1440 LINE",
"140 1440 LINE",
"140 0 LINE"
);
}
);
width = 1330;
},
{
components = (
{
name = acutecomb;
transform = "{1, 0, 0, 1, 172, 0}";
}
);
layerId = "CAA188E2-8C62-414B-93AE-B576BEB044DB";
paths = (
{
closed = 1;
nodes = (
"224 0 LINE",
"224 752 LINE",
"1000 0 LINE",
"1116 0 LINE",
"346 752 LINE",
"1052 1440 LINE",
"936 1440 LINE",
"224 752 LINE",
"224 1440 LINE",
"140 1440 LINE",
"140 0 LINE"
);
}
);
width = 1116;
}
);
unicode = 040C;
},
{
glyphname = "El-cy";
lastChange = "2020-02-20 18:21:12 +0000";
layers = (
{
layerId = "CAA188E2-8C62-414B-93AE-B576BEB044DB";
paths = (
{
closed = 1;
nodes = (
"288 -72 OFFCURVE",
"328 146 OFFCURVE",
"362 388 CURVE SMOOTH",
"412 750 OFFCURVE",
"422 1016 OFFCURVE",
"444 1356 CURVE",
"1144 1356 LINE",
"1144 0 LINE",
"1228 0 LINE",
"1228 1440 LINE",
"356 1440 LINE",
"336 982 OFFCURVE",
"316 746 OFFCURVE",
"272 442 CURVE SMOOTH",
"224 108 OFFCURVE",
"200 66 OFFCURVE",
"40 84 CURVE",
"40 0 LINE"
);
}
);
width = 1368;
},
{
layerId = "0DA27741-1AFD-43F2-A947-40AFBF8D6498";
paths = (
{
closed = 1;
nodes = (
"354 -62 OFFCURVE",
"438 102 OFFCURVE",
"494 388 CURVE SMOOTH",
"554 682 OFFCURVE",
"578 1036 OFFCURVE",
"588 1186 CURVE",
"1048 1186 LINE",
"1048 0 LINE",
"1320 0 LINE",
"1320 1440 LINE",
"338 1440 LINE",
"330 1266 OFFCURVE",
"308 820 OFFCURVE",
"244 488 CURVE SMOOTH",
"204 276 OFFCURVE",
"162 218 OFFCURVE",
"40 226 CURVE",
"40 0 LINE"
);
}
);
width = 1460;
},
{
associatedMasterId = "0DA27741-1AFD-43F2-A947-40AFBF8D6498";
layerId = "A2873047-0ED6-4C67-9B4D-3870B51BD5C6";
width = 1200;
},
{
associatedMasterId = "0DA27741-1AFD-43F2-A947-40AFBF8D6498";
layerId = "55314CA7-5524-4D70-B802-98D4FAE25636";
width = 1332;
},
{
associatedMasterId = "0DA27741-1AFD-43F2-A947-40AFBF8D6498";
layerId = "13A3DD5D-E91B-4961-8595-F8141D3FA442";
width = 1222;
}
);
leftKerningGroup = A;
rightKerningGroup = H;
rightMetricsKey = H;
unicode = 041B;
},
{
glyphname = "Pe-cy";
lastChange = "2020-02-20 18:21:12 +0000";
layers = (
{
layerId = "CAA188E2-8C62-414B-93AE-B576BEB044DB";
paths = (
{
closed = 1;
nodes = (
"224 0 LINE",
"224 1356 LINE",
"1116 1356 LINE",
"1116 0 LINE",
"1200 0 LINE",
"1200 1440 LINE",
"140 1440 LINE",
"140 0 LINE"
);
}
);
width = 1340;
},
{
layerId = "0DA27741-1AFD-43F2-A947-40AFBF8D6498";
paths = (
{
closed = 1;
nodes = (
"412 0 LINE",
"412 1186 LINE",
"1056 1186 LINE",
"1056 0 LINE",
"1328 0 LINE",
"1328 1440 LINE",
"140 1440 LINE",
"140 0 LINE"
);
}
);
width = 1468;
},
{
associatedMasterId = "0DA27741-1AFD-43F2-A947-40AFBF8D6498";
layerId = "A2873047-0ED6-4C67-9B4D-3870B51BD5C6";
width = 1200;
},
{
associatedMasterId = "0DA27741-1AFD-43F2-A947-40AFBF8D6498";
layerId = "55314CA7-5524-4D70-B802-98D4FAE25636";
width = 1450;
},
{
associatedMasterId = "0DA27741-1AFD-43F2-A947-40AFBF8D6498";
layerId = "13A3DD5D-E91B-4961-8595-F8141D3FA442";
width = 1240;
}
);
leftKerningGroup = H;
leftMetricsKey = H;
rightKerningGroup = H;
rightMetricsKey = H;
unicode = 041F;
},
{
glyphname = "U-cy";
lastChange = "2020-03-29 06:32:35 +0000";
layers = (
{
layerId = "CAA188E2-8C62-414B-93AE-B576BEB044DB";
paths = (
{
closed = 1;
nodes = (
"514 0 LINE",
"1178 1440 LINE",
"1088 1440 LINE",
"606 404 LINE",
"130 1440 LINE",
"40 1440 LINE",
"562 310 LINE",
"418 0 LINE"
);
}
);
width = 1228;
},
{
layerId = "0DA27741-1AFD-43F2-A947-40AFBF8D6498";
paths = (
{
closed = 1;
nodes = (
"602 0 LINE",
"1282 1440 LINE",
"992 1440 LINE",
"654 690 LINE",
"328 1440 LINE",
"20 1440 LINE",
"512 404 LINE",
"312 0 LINE"
);
}
);
width = 1282;
},
{
associatedMasterId = "0DA27741-1AFD-43F2-A947-40AFBF8D6498";
layerId = "A2873047-0ED6-4C67-9B4D-3870B51BD5C6";
width = 1200;
},
{
associatedMasterId = "0DA27741-1AFD-43F2-A947-40AFBF8D6498";
layerId = "55314CA7-5524-4D70-B802-98D4FAE25636";
width = 1072;
},
{
associatedMasterId = "0DA27741-1AFD-43F2-A947-40AFBF8D6498";
layerId = "13A3DD5D-E91B-4961-8595-F8141D3FA442";
width = 1180;
}
);
leftKerningGroup = X;
leftMetricsKey = y;
rightKerningGroup = Y;
rightMetricsKey = y;
unicode = 0423;
},
{
glyphname = "Ef-cy";
lastChange = "2020-02-20 18:21:12 +0000";
layers = (
{
layerId = "CAA188E2-8C62-414B-93AE-B576BEB044DB";
paths = (
{
closed = 1;
nodes = (
"734 0 LINE",
"734 182 LINE",
"1030 132 OFFCURVE",
"1324 346 OFFCURVE",
"1324 766 CURVE SMOOTH",
"1324 1186 OFFCURVE",
"1030 1400 OFFCURVE",
"734 1350 CURVE",
"734 1440 LINE",
"650 1440 LINE",
"650 1350 LINE",
"354 1400 OFFCURVE",
"60 1186 OFFCURVE",
"60 766 CURVE SMOOTH",
"60 346 OFFCURVE",
"354 132 OFFCURVE",
"650 182 CURVE",
"650 0 LINE"
);
},
{
closed = 1;
nodes = (
"382 232 OFFCURVE",
"150 426 OFFCURVE",
"150 766 CURVE SMOOTH",
"150 1106 OFFCURVE",
"382 1302 OFFCURVE",
"650 1266 CURVE",
"650 268 LINE"
);
},
{
closed = 1;
nodes = (
"734 1266 LINE",
"1002 1302 OFFCURVE",
"1234 1106 OFFCURVE",
"1234 766 CURVE SMOOTH",
"1234 426 OFFCURVE",
"1002 232 OFFCURVE",
"734 268 CURVE"
);
}
);
width = 1384;
},
{
layerId = "0DA27741-1AFD-43F2-A947-40AFBF8D6498";
paths = (
{
closed = 1;
nodes = (
"882 0 LINE",
"882 210 LINE",
"1178 160 OFFCURVE",
"1436 360 OFFCURVE",
"1436 760 CURVE SMOOTH",
"1436 1160 OFFCURVE",
"1178 1370 OFFCURVE",
"882 1320 CURVE",
"882 1440 LINE",
"612 1440 LINE",
"612 1320 LINE",
"316 1370 OFFCURVE",
"60 1160 OFFCURVE",
"60 760 CURVE SMOOTH",
"60 360 OFFCURVE",
"316 160 OFFCURVE",
"612 210 CURVE",
"612 0 LINE"
);
},
{
closed = 1;
nodes = (
"384 422 OFFCURVE",
"336 600 OFFCURVE",
"336 760 CURVE SMOOTH",
"336 920 OFFCURVE",
"384 1112 OFFCURVE",
"612 1076 CURVE",
"612 458 LINE"
);
},
{
closed = 1;
nodes = (
"882 1076 LINE",
"1108 1112 OFFCURVE",
"1160 902 OFFCURVE",
"1160 752 CURVE SMOOTH",
"1160 602 OFFCURVE",
"1108 422 OFFCURVE",
"882 458 CURVE"
);
}
);
width = 1496;
},
{
associatedMasterId = "0DA27741-1AFD-43F2-A947-40AFBF8D6498";
layerId = "A2873047-0ED6-4C67-9B4D-3870B51BD5C6";
width = 1200;
},
{
associatedMasterId = "0DA27741-1AFD-43F2-A947-40AFBF8D6498";
layerId = "55314CA7-5524-4D70-B802-98D4FAE25636";
width = 1662;
},
{
associatedMasterId = "0DA27741-1AFD-43F2-A947-40AFBF8D6498";
layerId = "13A3DD5D-E91B-4961-8595-F8141D3FA442";
width = 1274;
}
);
leftKerningGroup = O;
leftMetricsKey = O;
rightKerningGroup = O;
rightMetricsKey = O;
unicode = 0424;
},
{
glyphname = "Che-cy";
lastChange = "2020-02-20 18:21:12 +0000";
layers = (
{
background = {
paths = (
{
closed = 1;
nodes = (
"1114 0 LINE",
"1114 1440 LINE",
"1030 1440 LINE",
"1030 626 LINE",
"1062 742 LINE",
"992 676 OFFCURVE",
"846 610 OFFCURVE",
"654 610 CURVE SMOOTH",
"536 610 OFFCURVE",
"418 634 OFFCURVE",
"330 730 CURVE SMOOTH",
"230 838 OFFCURVE",
"224 968 OFFCURVE",
"224 1172 CURVE SMOOTH",
"224 1440 LINE",
"140 1440 LINE",
"140 1172 LINE SMOOTH",
"140 976 OFFCURVE",
"132 812 OFFCURVE",
"260 670 CURVE SMOOTH",
"358 562 OFFCURVE",
"488 522 OFFCURVE",
"658 522 CURVE SMOOTH",
"842 522 OFFCURVE",
"972 570 OFFCURVE",
"1072 636 CURVE",
"1030 700 LINE",
"1030 0 LINE"
);
}
);
};
layerId = "CAA188E2-8C62-414B-93AE-B576BEB044DB";
paths = (
{
closed = 1;
nodes = (
"1114 0 LINE",
"1114 1440 LINE",
"1030 1440 LINE",
"1030 626 LINE",
"1062 742 LINE",
"992 676 OFFCURVE",
"846 610 OFFCURVE",
"654 610 CURVE SMOOTH",
"362 610 OFFCURVE",
"224 768 OFFCURVE",
"224 1084 CURVE SMOOTH",
"224 1440 LINE",
"140 1440 LINE",
"140 1048 LINE SMOOTH",
"140 744 OFFCURVE",
"282 522 OFFCURVE",
"664 522 CURVE SMOOTH",
"842 522 OFFCURVE",
"972 570 OFFCURVE",
"1072 636 CURVE",
"1030 700 LINE",
"1030 0 LINE"
);
}
);
width = 1254;
},
{
background = {
paths = (
{
closed = 1;
nodes = (
"1232 0 LINE",
"1232 1440 LINE",
"958 1440 LINE",
"958 718 LINE",
"988 840 LINE",
"938 774 OFFCURVE",
"834 720 OFFCURVE",
"682 720 CURVE SMOOTH",
"610 720 OFFCURVE",
"528 732 OFFCURVE",
"476 804 CURVE SMOOTH",
"416 888 OFFCURVE",
"416 1028 OFFCURVE",
"416 1108 CURVE SMOOTH",
"416 1440 LINE",
"140 1440 LINE",
"140 1046 LINE SMOOTH",
"140 936 OFFCURVE",
"140 766 OFFCURVE",
"244 628 CURVE SMOOTH",
"340 502 OFFCURVE",
"476 464 OFFCURVE",
"628 464 CURVE SMOOTH",
"774 464 OFFCURVE",
"922 500 OFFCURVE",
"996 566 CURVE",
"958 628 LINE",
"958 0 LINE"
);
}
);
};
layerId = "0DA27741-1AFD-43F2-A947-40AFBF8D6498";
paths = (
{
closed = 1;
nodes = (
"1232 0 LINE",
"1232 1440 LINE",
"958 1440 LINE",
"958 718 LINE",
"988 840 LINE",
"946 782 OFFCURVE",
"840 720 OFFCURVE",
"692 720 CURVE SMOOTH",
"416 720 OFFCURVE",
"416 934 OFFCURVE",
"416 1108 CURVE SMOOTH",
"416 1440 LINE",
"140 1440 LINE",
"140 1026 LINE SMOOTH",
"140 694 OFFCURVE",
"268 464 OFFCURVE",
"628 464 CURVE SMOOTH",
"774 464 OFFCURVE",
"922 500 OFFCURVE",
"996 566 CURVE",
"958 628 LINE",
"958 0 LINE"
);
}
);
width = 1372;
},
{
associatedMasterId = "0DA27741-1AFD-43F2-A947-40AFBF8D6498";
layerId = "A2873047-0ED6-4C67-9B4D-3870B51BD5C6";
width = 1200;
},
{
associatedMasterId = "0DA27741-1AFD-43F2-A947-40AFBF8D6498";
layerId = "55314CA7-5524-4D70-B802-98D4FAE25636";
width = 1302;
},
{
associatedMasterId = "0DA27741-1AFD-43F2-A947-40AFBF8D6498";
layerId = "13A3DD5D-E91B-4961-8595-F8141D3FA442";
width = 1216;
}
);
leftKerningGroup = M;
leftMetricsKey = M;
rightKerningGroup = N;
rightMetricsKey = M;
unicode = 0427;
},
{
glyphname = "Tse-cy";
lastChange = "2020-02-20 18:21:12 +0000";
layers = (
{
layerId = "CAA188E2-8C62-414B-93AE-B576BEB044DB";
paths = (
{
closed = 1;
nodes = (
"1368 -160 LINE",
"1368 84 LINE",
"1220 84 LINE",
"1220 1440 LINE",
"1136 1440 LINE",
"1136 84 LINE",
"224 84 LINE",
"224 1440 LINE",
"140 1440 LINE",
"140 0 LINE",
"1284 0 LINE",
"1284 -160 LINE"
);
}
);
width = 1388;
},
{
layerId = "0DA27741-1AFD-43F2-A947-40AFBF8D6498";
paths = (
{
closed = 1;
nodes = (
"1502 -240 LINE",
"1502 240 LINE",
"1340 240 LINE",
"1340 1400 LINE",
"1068 1400 LINE",
"1068 240 LINE",
"412 240 LINE",
"412 1440 LINE",
"140 1440 LINE",
"140 0 LINE",
"1230 0 LINE",
"1230 -240 LINE"
);
}
);
width = 1522;
},
{
associatedMasterId = "0DA27741-1AFD-43F2-A947-40AFBF8D6498";
layerId = "A2873047-0ED6-4C67-9B4D-3870B51BD5C6";
width = 1200;
},
{
associatedMasterId = "0DA27741-1AFD-43F2-A947-40AFBF8D6498";
layerId = "55314CA7-5524-4D70-B802-98D4FAE25636";
width = 1606;
},
{
associatedMasterId = "0DA27741-1AFD-43F2-A947-40AFBF8D6498";
layerId = "13A3DD5D-E91B-4961-8595-F8141D3FA442";
width = 1264;
}
);
leftKerningGroup = H;
leftMetricsKey = H;
rightKerningGroup = "tse-cy";
rightMetricsKey = "tse-cy";
unicode = 0426;
},
{
glyphname = "Sha-cy";
lastChange = "2020-02-20 18:21:12 +0000";
layers = (
{
layerId = "CAA188E2-8C62-414B-93AE-B576BEB044DB";
paths = (
{
closed = 1;
nodes = (
"1620 0 LINE",
"1620 1440 LINE",
"1536 1440 LINE",
"1536 84 LINE",
"922 84 LINE",
"922 1440 LINE",
"838 1440 LINE",
"838 84 LINE",
"224 84 LINE",
"224 1440 LINE",
"140 1440 LINE",
"140 0 LINE"
);
}
);
width = 1760;
},
{
layerId = "0DA27741-1AFD-43F2-A947-40AFBF8D6498";
paths = (
{
closed = 1;
nodes = (
"1780 0 LINE",
"1780 1440 LINE",
"1508 1440 LINE",
"1508 254 LINE",
"1096 254 LINE",
"1096 1440 LINE",
"824 1440 LINE",
"824 254 LINE",
"412 254 LINE",
"412 1440 LINE",
"140 1440 LINE",
"140 0 LINE"
);
}
);
width = 1920;
},
{
associatedMasterId = "0DA27741-1AFD-43F2-A947-40AFBF8D6498";
layerId = "A2873047-0ED6-4C67-9B4D-3870B51BD5C6";
width = 1200;
},
{
associatedMasterId = "0DA27741-1AFD-43F2-A947-40AFBF8D6498";
layerId = "55314CA7-5524-4D70-B802-98D4FAE25636";
width = 1900;
},
{
associatedMasterId = "0DA27741-1AFD-43F2-A947-40AFBF8D6498";
layerId = "13A3DD5D-E91B-4961-8595-F8141D3FA442";
width = 1312;
}
);
leftKerningGroup = H;
leftMetricsKey = H;
rightKerningGroup = H;
rightMetricsKey = H;
unicode = 0428;
},
{
glyphname = "Shcha-cy";
lastChange = "2020-02-20 18:21:12 +0000";
layers = (
{
components = (
{
name = "Sha-cy";
}
);
layerId = "CAA188E2-8C62-414B-93AE-B576BEB044DB";
paths = (
{
closed = 1;
nodes = (
"1768 -160 LINE",
"1768 84 LINE",
"1544 84 LINE",
"1544 0 LINE",
"1684 0 LINE",
"1684 -160 LINE"
);
}
);
width = 1788;
},
{
components = (
{
name = "Sha-cy";
}
);
layerId = "0DA27741-1AFD-43F2-A947-40AFBF8D6498";
paths = (
{
closed = 1;
nodes = (
"1942 -240 LINE",
"1942 240 LINE",
"1530 240 LINE",
"1530 0 LINE",
"1670 0 LINE",
"1670 -240 LINE"
);
}
);
width = 1962;
},
{
associatedMasterId = "0DA27741-1AFD-43F2-A947-40AFBF8D6498";
layerId = "A2873047-0ED6-4C67-9B4D-3870B51BD5C6";
width = 1200;
},
{
associatedMasterId = "0DA27741-1AFD-43F2-A947-40AFBF8D6498";
layerId = "55314CA7-5524-4D70-B802-98D4FAE25636";
width = 1980;
},
{
associatedMasterId = "0DA27741-1AFD-43F2-A947-40AFBF8D6498";
layerId = "13A3DD5D-E91B-4961-8595-F8141D3FA442";
width = 1324;
}
);
leftKerningGroup = H;
rightKerningGroup = "tse-cy";
rightMetricsKey = "tse-cy";
unicode = 0429;
},
{
glyphname = "Dzhe-cy";
lastChange = "2020-02-20 18:21:12 +0000";
layers = (
{
layerId = "CAA188E2-8C62-414B-93AE-B576BEB044DB";
paths = (
{
closed = 1;
nodes = (
"752 -240 LINE",
"752 0 LINE",
"1280 0 LINE",
"1280 1440 LINE",
"1196 1440 LINE",
"1196 84 LINE",
"224 84 LINE",
"224 1440 LINE",
"140 1440 LINE",
"140 0 LINE",
"668 0 LINE",
"668 -240 LINE"
);
}
);
width = 1420;
},
{
layerId = "0DA27741-1AFD-43F2-A947-40AFBF8D6498";
paths = (
{
closed = 1;
nodes = (
"916 -240 LINE",
"916 0 LINE",
"1420 0 LINE",
"1420 1440 LINE",
"1148 1440 LINE",
"1148 254 LINE",
"412 254 LINE",
"412 1440 LINE",
"140 1440 LINE",
"140 0 LINE",
"644 0 LINE",
"644 -240 LINE"
);
}
);
width = 1560;
},
{
associatedMasterId = "0DA27741-1AFD-43F2-A947-40AFBF8D6498";
layerId = "A2873047-0ED6-4C67-9B4D-3870B51BD5C6";
width = 1200;
},
{
associatedMasterId = "0DA27741-1AFD-43F2-A947-40AFBF8D6498";
layerId = "55314CA7-5524-4D70-B802-98D4FAE25636";
width = 1526;
},
{
associatedMasterId = "0DA27741-1AFD-43F2-A947-40AFBF8D6498";
layerId = "13A3DD5D-E91B-4961-8595-F8141D3FA442";
width = 1252;
}
);
leftKerningGroup = "Sha-cy";
leftMetricsKey = "Sha-cy";
rightKerningGroup = "Sha-cy";
rightMetricsKey = "Sha-cy";
unicode = 040F;
},
{
glyphname = "Softsign-cy";
lastChange = "2020-02-20 18:21:12 +0000";
layers = (
{
layerId = "CAA188E2-8C62-414B-93AE-B576BEB044DB";
paths = (
{
closed = 1;
nodes = (
"670 0 LINE SMOOTH",
"698 0 OFFCURVE",
"726 2 OFFCURVE",
"762 8 CURVE SMOOTH",
"970 40 OFFCURVE",
"1102 216 OFFCURVE",
"1102 432 CURVE SMOOTH",
"1102 648 OFFCURVE",
"970 824 OFFCURVE",
"762 856 CURVE SMOOTH",
"726 862 OFFCURVE",
"698 864 OFFCURVE",
"670 864 CURVE SMOOTH",
"224 864 LINE",
"224 1440 LINE",
"140 1440 LINE",
"140 0 LINE"
);
},
{
closed = 1;
nodes = (
"224 780 LINE",
"670 780 LINE SMOOTH",
"692 780 OFFCURVE",
"726 778 OFFCURVE",
"758 772 CURVE SMOOTH",
"924 740 OFFCURVE",
"1012 594 OFFCURVE",
"1012 432 CURVE SMOOTH",
"1012 270 OFFCURVE",
"924 124 OFFCURVE",
"758 92 CURVE SMOOTH",
"726 86 OFFCURVE",
"692 84 OFFCURVE",
"670 84 CURVE SMOOTH",
"224 84 LINE"
);
}
);
width = 1182;
},
{
layerId = "0DA27741-1AFD-43F2-A947-40AFBF8D6498";
paths = (
{
closed = 1;
nodes = (
"746 0 LINE SMOOTH",
"774 0 OFFCURVE",
"828 2 OFFCURVE",
"866 8 CURVE SMOOTH",
"1124 48 OFFCURVE",
"1238 234 OFFCURVE",
"1238 476 CURVE SMOOTH",
"1238 718 OFFCURVE",
"1122 904 OFFCURVE",
"866 944 CURVE SMOOTH",
"828 950 OFFCURVE",
"772 952 OFFCURVE",
"746 952 CURVE SMOOTH",
"410 952 LINE",
"410 1440 LINE",
"138 1440 LINE",
"138 0 LINE"
);
},
{
closed = 1;
nodes = (
"410 698 LINE",
"734 698 LINE SMOOTH",
"762 698 OFFCURVE",
"798 696 OFFCURVE",
"826 688 CURVE SMOOTH",
"936 658 OFFCURVE",
"964 554 OFFCURVE",
"964 476 CURVE SMOOTH",
"964 398 OFFCURVE",
"936 294 OFFCURVE",
"826 264 CURVE SMOOTH",
"798 256 OFFCURVE",
"762 254 OFFCURVE",
"734 254 CURVE SMOOTH",
"410 254 LINE"
);
}
);
width = 1318;
},
{
associatedMasterId = "0DA27741-1AFD-43F2-A947-40AFBF8D6498";
layerId = "A2873047-0ED6-4C67-9B4D-3870B51BD5C6";
width = 1200;
},
{
associatedMasterId = "0DA27741-1AFD-43F2-A947-40AFBF8D6498";
layerId = "55314CA7-5524-4D70-B802-98D4FAE25636";
width = 1176;
},
{
associatedMasterId = "0DA27741-1AFD-43F2-A947-40AFBF8D6498";
layerId = "13A3DD5D-E91B-4961-8595-F8141D3FA442";
width = 1196;
}
);
leftKerningGroup = H;
leftMetricsKey = b;
rightKerningGroup = B;
rightMetricsKey = b;
unicode = 042C;
},
{
glyphname = "Hardsign-cy";
lastChange = "2020-02-20 18:21:12 +0000";
layers = (
{
layerId = "CAA188E2-8C62-414B-93AE-B576BEB044DB";
paths = (
{
closed = 1;
nodes = (
"690 0 LINE SMOOTH",
"718 0 OFFCURVE",
"746 2 OFFCURVE",
"782 8 CURVE SMOOTH",
"990 40 OFFCURVE",
"1122 216 OFFCURVE",
"1122 432 CURVE SMOOTH",
"1122 648 OFFCURVE",
"990 824 OFFCURVE",
"782 856 CURVE SMOOTH",
"746 862 OFFCURVE",
"718 864 OFFCURVE",
"690 864 CURVE SMOOTH",
"244 864 LINE",
"244 1440 LINE",
"-20 1440 LINE",
"-20 1356 LINE",
"160 1356 LINE",
"160 0 LINE"
);
},
{
closed = 1;
nodes = (
"244 780 LINE",
"690 780 LINE SMOOTH",
"712 780 OFFCURVE",
"746 778 OFFCURVE",
"778 772 CURVE SMOOTH",
"944 740 OFFCURVE",
"1032 594 OFFCURVE",
"1032 432 CURVE SMOOTH",
"1032 270 OFFCURVE",
"944 124 OFFCURVE",
"778 92 CURVE SMOOTH",
"746 86 OFFCURVE",
"712 84 OFFCURVE",
"690 84 CURVE SMOOTH",
"244 84 LINE"
);
}
);
width = 1182;
},
{
layerId = "0DA27741-1AFD-43F2-A947-40AFBF8D6498";
paths = (
{
closed = 1;
nodes = (
"808 0 LINE SMOOTH",
"836 0 OFFCURVE",
"890 2 OFFCURVE",
"928 8 CURVE SMOOTH",
"1186 48 OFFCURVE",
"1300 234 OFFCURVE",
"1300 476 CURVE SMOOTH",
"1300 718 OFFCURVE",
"1184 904 OFFCURVE",
"928 944 CURVE SMOOTH",
"890 950 OFFCURVE",
"834 952 OFFCURVE",
"808 952 CURVE SMOOTH",
"472 952 LINE",
"472 1440 LINE",
"0 1440 LINE",
"0 1230 LINE",
"200 1230 LINE",
"200 0 LINE"
);
},
{
closed = 1;
nodes = (
"472 698 LINE",
"796 698 LINE SMOOTH",
"824 698 OFFCURVE",
"860 696 OFFCURVE",
"888 688 CURVE SMOOTH",
"998 658 OFFCURVE",
"1026 554 OFFCURVE",
"1026 476 CURVE SMOOTH",
"1026 398 OFFCURVE",
"998 294 OFFCURVE",
"888 264 CURVE SMOOTH",
"860 256 OFFCURVE",
"824 254 OFFCURVE",
"796 254 CURVE SMOOTH",
"472 254 LINE"
);
}
);
width = 1344;
},
{
associatedMasterId = "0DA27741-1AFD-43F2-A947-40AFBF8D6498";
layerId = "A2873047-0ED6-4C67-9B4D-3870B51BD5C6";
width = 1200;
},
{
associatedMasterId = "0DA27741-1AFD-43F2-A947-40AFBF8D6498";
layerId = "55314CA7-5524-4D70-B802-98D4FAE25636";
width = 1138;
},
{
associatedMasterId = "0DA27741-1AFD-43F2-A947-40AFBF8D6498";
layerId = "13A3DD5D-E91B-4961-8595-F8141D3FA442";
width = 1190;
}
);
leftKerningGroup = T;
rightKerningGroup = B;
unicode = 042A;
},
{
glyphname = "Nje-cy";
lastChange = "2020-02-20 18:31:41 +0000";
layers = (
{
components = (
{
alignment = -1;
name = "Softsign-cy";
transform = "{1, 0, 0, 1, 876, 0}";
}
);
layerId = "CAA188E2-8C62-414B-93AE-B576BEB044DB";
paths = (
{
closed = 1;
nodes = (
"224 0 LINE",
"224 780 LINE",
"1072 780 LINE",
"1072 864 LINE",
"224 864 LINE",
"224 1440 LINE",
"140 1440 LINE",
"140 0 LINE"
);
}
);
width = 2058;
},
{
components = (
{
alignment = -1;
name = "Softsign-cy";
transform = "{1, 0, 0, 1, 916, 0}";
}
);
layerId = "0DA27741-1AFD-43F2-A947-40AFBF8D6498";
paths = (
{
closed = 1;
nodes = (
"412 0 LINE",
"412 696 LINE",
"1180 696 LINE",
"1180 950 LINE",
"412 950 LINE",
"412 1440 LINE",
"140 1440 LINE",
"140 0 LINE"
);
}
);
width = 2234;
},
{
associatedMasterId = "0DA27741-1AFD-43F2-A947-40AFBF8D6498";
layerId = "A2873047-0ED6-4C67-9B4D-3870B51BD5C6";
width = 1200;
},
{
associatedMasterId = "0DA27741-1AFD-43F2-A947-40AFBF8D6498";
layerId = "55314CA7-5524-4D70-B802-98D4FAE25636";
width = 2276;
},
{
associatedMasterId = "0DA27741-1AFD-43F2-A947-40AFBF8D6498";
layerId = "13A3DD5D-E91B-4961-8595-F8141D3FA442";
width = 1372;
}
);
leftKerningGroup = "En-cy";
leftMetricsKey = "En-cy";
rightKerningGroup = "Softsign-cy";
rightMetricsKey = "Softsign-cy";
unicode = 040A;
},
{
glyphname = "Ereversed-cy";
lastChange = "2020-02-20 18:21:12 +0000";
layers = (
{
layerId = "CAA188E2-8C62-414B-93AE-B576BEB044DB";
paths = (
{
closed = 1;
nodes = (
"1106 -30 OFFCURVE",
"1334 300 OFFCURVE",
"1324 720 CURVE SMOOTH",
"1314 1170 OFFCURVE",
"1098 1470 OFFCURVE",
"678 1470 CURVE SMOOTH",
"364 1470 OFFCURVE",
"132 1288 OFFCURVE",
"60 972 CURVE",
"148 958 LINE",
"204 1222 OFFCURVE",
"398 1380 OFFCURVE",
"678 1384 CURVE SMOOTH",
"1032 1388 OFFCURVE",
"1220 1128 OFFCURVE",
"1234 762 CURVE",
"694 762 LINE",
"694 678 LINE",
"1234 678 LINE",
"1230 526 OFFCURVE",
"1204 384 OFFCURVE",
"1102 248 CURVE SMOOTH",
"1002 114 OFFCURVE",
"850 56 OFFCURVE",
"678 54 CURVE SMOOTH",
"422 50 OFFCURVE",
"224 200 OFFCURVE",
"154 456 CURVE",
"70 432 LINE",
"138 146 OFFCURVE",
"372 -30 OFFCURVE",
"678 -30 CURVE SMOOTH"
);
}
);
width = 1384;
},
{
layerId = "0DA27741-1AFD-43F2-A947-40AFBF8D6498";
paths = (
{
closed = 1;
nodes = (
"1134 -30 OFFCURVE",
"1390 300 OFFCURVE",
"1390 720 CURVE SMOOTH",
"1390 1166 OFFCURVE",
"1128 1470 OFFCURVE",
"710 1470 CURVE SMOOTH",
"366 1470 OFFCURVE",
"132 1290 OFFCURVE",
"60 976 CURVE",
"332 938 LINE",
"380 1104 OFFCURVE",
"512 1212 OFFCURVE",
"692 1214 CURVE SMOOTH",
"920 1218 OFFCURVE",
"1060 1068 OFFCURVE",
"1096 848 CURVE",
"590 848 LINE",
"590 594 LINE",
"1094 594 LINE",
"1082 512 OFFCURVE",
"1056 434 OFFCURVE",
"1006 370 CURVE SMOOTH",
"936 274 OFFCURVE",
"816 228 OFFCURVE",
"692 226 CURVE SMOOTH",
"516 224 OFFCURVE",
"386 336 OFFCURVE",
"336 490 CURVE",
"70 424 LINE",
"162 118 OFFCURVE",
"386 -30 OFFCURVE",
"710 -30 CURVE SMOOTH"
);
}
);
width = 1450;
},
{
associatedMasterId = "0DA27741-1AFD-43F2-A947-40AFBF8D6498";
layerId = "A2873047-0ED6-4C67-9B4D-3870B51BD5C6";
width = 1200;
},
{
associatedMasterId = "0DA27741-1AFD-43F2-A947-40AFBF8D6498";
layerId = "55314CA7-5524-4D70-B802-98D4FAE25636";
width = 1366;
},
{
associatedMasterId = "0DA27741-1AFD-43F2-A947-40AFBF8D6498";
layerId = "13A3DD5D-E91B-4961-8595-F8141D3FA442";
width = 1226;
}
);
leftKerningGroup = X;
leftMetricsKey = O;
rightKerningGroup = O;
rightMetricsKey = O;
unicode = 042D;
},
{
glyphname = "Tshe-cy";
lastChange = "2020-02-20 18:31:41 +0000";
layers = (
{
components = (
{
name = "Shha-cy";
}
);
layerId = "CAA188E2-8C62-414B-93AE-B576BEB044DB";
paths = (
{
closed = 1;
nodes = (
"540 1356 LINE",
"540 1440 LINE",
"0 1440 LINE",
"0 1356 LINE"
);
}
);
width = 1254;
},
{
components = (
{
name = "Shha-cy";
}
);
layerId = "0DA27741-1AFD-43F2-A947-40AFBF8D6498";
paths = (
{
closed = 1;
nodes = (
"720 1200 LINE",
"720 1440 LINE",
"0 1440 LINE",
"0 1200 LINE"
);
}
);
width = 1372;
},
{
associatedMasterId = "0DA27741-1AFD-43F2-A947-40AFBF8D6498";
layerId = "A2873047-0ED6-4C67-9B4D-3870B51BD5C6";
width = 1200;
},
{
associatedMasterId = "0DA27741-1AFD-43F2-A947-40AFBF8D6498";
layerId = "55314CA7-5524-4D70-B802-98D4FAE25636";
width = 1302;
},
{
associatedMasterId = "0DA27741-1AFD-43F2-A947-40AFBF8D6498";
layerId = "13A3DD5D-E91B-4961-8595-F8141D3FA442";
width = 1216;
}
);
leftKerningGroup = V;
rightKerningGroup = B;
rightMetricsKey = "Shha-cy";
unicode = 040B;
},
{
glyphname = "Iu-cy";
lastChange = "2020-02-20 18:21:12 +0000";
layers = (
{
components = (
{
name = "Oval-condensed";
transform = "{1, 0, 0, 1, 560, 0}";
}
);
layerId = "CAA188E2-8C62-414B-93AE-B576BEB044DB";
paths = (
{
closed = 1;
nodes = (
"224 0 LINE",
"224 678 LINE",
"692 678 LINE",
"692 762 LINE",
"224 762 LINE",
"224 1440 LINE",
"140 1440 LINE",
"140 0 LINE"
);
}
);
width = 1796;
},
{
components = (
{
name = "Oval-condensed";
transform = "{1, 0, 0, 1, 560, 0}";
}
);
layerId = "0DA27741-1AFD-43F2-A947-40AFBF8D6498";
paths = (
{
closed = 1;
nodes = (
"412 0 LINE",
"412 584 LINE",
"652 584 LINE",
"652 856 LINE",
"412 856 LINE",
"412 1440 LINE",
"140 1440 LINE",
"140 0 LINE"
);
}
);
width = 1912;
},
{
associatedMasterId = "0DA27741-1AFD-43F2-A947-40AFBF8D6498";
layerId = "A2873047-0ED6-4C67-9B4D-3870B51BD5C6";
width = 1200;
},
{
associatedMasterId = "0DA27741-1AFD-43F2-A947-40AFBF8D6498";
layerId = "55314CA7-5524-4D70-B802-98D4FAE25636";
width = 2168;
},
{
associatedMasterId = "0DA27741-1AFD-43F2-A947-40AFBF8D6498";
layerId = "13A3DD5D-E91B-4961-8595-F8141D3FA442";
width = 1354;
}
);
leftKerningGroup = H;
leftMetricsKey = H;
rightKerningGroup = O;
rightMetricsKey = O;
unicode = 042E;
},
{
glyphname = "Dje-cy";
lastChange = "2020-02-20 18:21:12 +0000";
layers = (
{
layerId = "CAA188E2-8C62-414B-93AE-B576BEB044DB";
paths = (
{
closed = 1;
nodes = (
"224 0 LINE",
"224 476 LINE SMOOTH",
"224 566 OFFCURVE",
"224 668 OFFCURVE",
"250 760 CURVE SMOOTH",
"304 948 OFFCURVE",
"446 1026 OFFCURVE",
"660 1026 CURVE SMOOTH",
"944 1026 OFFCURVE",
"1088 890 OFFCURVE",
"1088 582 CURVE SMOOTH",
"1088 262 OFFCURVE",
"938 84 OFFCURVE",
"686 84 CURVE",
"686 0 LINE",
"1014 0 OFFCURVE",
"1172 232 OFFCURVE",
"1172 568 CURVE SMOOTH",
"1172 934 OFFCURVE",
"986 1110 OFFCURVE",
"660 1110 CURVE SMOOTH",
"460 1110 OFFCURVE",
"300 1044 OFFCURVE",
"218 898 CURVE",
"218 1356 LINE",
"540 1356 LINE",
"540 1440 LINE",
"0 1440 LINE",
"0 1356 LINE",
"140 1356 LINE",
"140 0 LINE"
);
}
);
width = 1252;
},
{
layerId = "0DA27741-1AFD-43F2-A947-40AFBF8D6498";
paths = (
{
closed = 1;
nodes = (
"434 0 LINE",
"434 518 LINE SMOOTH",
"434 572 OFFCURVE",
"440 638 OFFCURVE",
"454 682 CURVE SMOOTH",
"484 778 OFFCURVE",
"578 848 OFFCURVE",
"734 848 CURVE SMOOTH",
"892 848 OFFCURVE",
"1016 774 OFFCURVE",
"1016 556 CURVE SMOOTH",
"1016 406 OFFCURVE",
"958 276 OFFCURVE",
"746 276 CURVE",
"746 0 LINE",
"1126 0 OFFCURVE",
"1292 216 OFFCURVE",
"1292 558 CURVE SMOOTH",
"1292 918 OFFCURVE",
"1106 1110 OFFCURVE",
"774 1110 CURVE SMOOTH",
"618 1110 OFFCURVE",
"492 1068 OFFCURVE",
"400 988 CURVE",
"400 1200 LINE",
"720 1200 LINE",
"720 1440 LINE",
"0 1440 LINE",
"0 1200 LINE",
"160 1200 LINE",
"160 0 LINE"
);
}
);
width = 1372;
},
{
associatedMasterId = "0DA27741-1AFD-43F2-A947-40AFBF8D6498";
layerId = "A2873047-0ED6-4C67-9B4D-3870B51BD5C6";
width = 1200;
},
{
associatedMasterId = "0DA27741-1AFD-43F2-A947-40AFBF8D6498";
layerId = "55314CA7-5524-4D70-B802-98D4FAE25636";
width = 1136;
},
{
associatedMasterId = "0DA27741-1AFD-43F2-A947-40AFBF8D6498";
layerId = "13A3DD5D-E91B-4961-8595-F8141D3FA442";
width = 1190;
}
);
leftKerningGroup = T;
rightKerningGroup = b;
rightMetricsKey = b;
unicode = 0402;
},
{
glyphname = "Obarred-cy";
lastChange = "2020-02-20 18:21:12 +0000";
layers = (
{
components = (
{
name = O;
}
);
layerId = "CAA188E2-8C62-414B-93AE-B576BEB044DB";
paths = (
{
closed = 1;
nodes = (
"1310 678 LINE",
"1310 762 LINE",
"130 762 LINE",
"130 678 LINE"
);
}
);
width = 1452;
},
{
components = (
{
name = O;
}
);
layerId = "0DA27741-1AFD-43F2-A947-40AFBF8D6498";
paths = (
{
closed = 1;
nodes = (
"1250 584 LINE",
"1250 856 LINE",
"290 856 LINE",
"290 584 LINE"
);
}
);
width = 1556;
},
{
associatedMasterId = "0DA27741-1AFD-43F2-A947-40AFBF8D6498";
layerId = "A2873047-0ED6-4C67-9B4D-3870B51BD5C6";
width = 1200;
},
{
associatedMasterId = "0DA27741-1AFD-43F2-A947-40AFBF8D6498";
layerId = "55314CA7-5524-4D70-B802-98D4FAE25636";
width = 1476;
},
{
associatedMasterId = "0DA27741-1AFD-43F2-A947-40AFBF8D6498";
layerId = "13A3DD5D-E91B-4961-8595-F8141D3FA442";
width = 1244;
}
);
leftKerningGroup = O;
rightKerningGroup = O;
unicode = 04E8;
},
{
glyphname = "De-cy.loclBGR";
lastChange = "2020-02-20 18:21:12 +0000";
layers = (
{
components = (
{
name = V;
transform = "{1, 0, 0, -1, 114, 1440}";
}
);
layerId = "0DA27741-1AFD-43F2-A947-40AFBF8D6498";
paths = (
{
closed = 1;
nodes = (
"334 -180 LINE",
"334 0 LINE",
"1198 0 LINE",
"1198 -180 LINE",
"1454 -180 LINE",
"1454 254 LINE",
"80 254 LINE",
"80 -180 LINE"
);
}
);
width = 1554;
},
{
components = (
{
name = V;
transform = "{1, 0, 0, -1, 128, 1440}";
}
);
layerId = "CAA188E2-8C62-414B-93AE-B576BEB044DB";
paths = (
{
closed = 1;
nodes = (
"144 -160 LINE",
"144 0 LINE",
"1268 0 LINE",
"1268 -160 LINE",
"1352 -160 LINE",
"1352 84 LINE",
"60 84 LINE",
"60 -160 LINE"
);
}
);
width = 1412;
}
);
leftKerningGroup = de;
rightKerningGroup = N;
},
{
glyphname = "be-cy";
lastChange = "2020-02-20 18:31:41 +0000";
layers = (
{
layerId = "CAA188E2-8C62-414B-93AE-B576BEB044DB";
paths = (
{
closed = 1;
nodes = (
"880 -30 OFFCURVE",
"1066 178 OFFCURVE",
"1066 502 CURVE SMOOTH",
"1066 826 OFFCURVE",
"882 1038 OFFCURVE",
"588 1038 CURVE SMOOTH",
"406 1038 OFFCURVE",
"254 958 OFFCURVE",
"172 824 CURVE",
"188 1028 OFFCURVE",
"248 1180 OFFCURVE",
"364 1250 CURVE SMOOTH",
"510 1344 OFFCURVE",
"806 1366 OFFCURVE",
"948 1390 CURVE",
"936 1470 LINE",
"772 1436 OFFCURVE",
"482 1432 OFFCURVE",
"324 1328 CURVE SMOOTH",
"234 1272 OFFCURVE",
"168 1176 OFFCURVE",
"138 1074 CURVE SMOOTH",
"110 978 OFFCURVE",
"80 746 OFFCURVE",
"80 576 CURVE SMOOTH",
"80 154 OFFCURVE",
"264 -30 OFFCURVE",
"562 -30 CURVE SMOOTH"
);
},
{
closed = 1;
nodes = (
"310 54 OFFCURVE",
"170 228 OFFCURVE",
"170 504 CURVE SMOOTH",
"170 782 OFFCURVE",
"314 954 OFFCURVE",
"570 954 CURVE SMOOTH",
"826 954 OFFCURVE",
"976 782 OFFCURVE",
"976 504 CURVE SMOOTH",
"976 232 OFFCURVE",
"836 54 OFFCURVE",
"572 54 CURVE SMOOTH"
);
}
);
width = 1146;
},
{
layerId = "0DA27741-1AFD-43F2-A947-40AFBF8D6498";
paths = (
{
closed = 1;
nodes = (
"905 -36 OFFCURVE",
"1127 180 OFFCURVE",
"1127 498 CURVE SMOOTH",
"1127 778 OFFCURVE",
"955 1006 OFFCURVE",
"669 1006 CURVE SMOOTH",
"553 1006 OFFCURVE",
"423 968 OFFCURVE",
"341 848 CURVE",
"349 952 OFFCURVE",
"397 1064 OFFCURVE",
"489 1122 CURVE SMOOTH",
"625 1208 OFFCURVE",
"885 1190 OFFCURVE",
"1037 1230 CURVE",
"1013 1470 LINE",
"761 1422 OFFCURVE",
"523 1430 OFFCURVE",
"345 1304 CURVE SMOOTH",
"269 1250 OFFCURVE",
"197 1172 OFFCURVE",
"155 1080 CURVE SMOOTH",
"89 932 OFFCURVE",
"69 672 OFFCURVE",
"85 502 CURVE SMOOTH",
"115 186 OFFCURVE",
"283 -28 OFFCURVE",
"595 -32 CURVE SMOOTH"
);
},
{
closed = 1;
nodes = (
"457 222 OFFCURVE",
"373 316 OFFCURVE",
"373 486 CURVE SMOOTH",
"373 650 OFFCURVE",
"453 750 OFFCURVE",
"607 750 CURVE SMOOTH",
"757 750 OFFCURVE",
"841 650 OFFCURVE",
"841 486 CURVE SMOOTH",
"841 326 OFFCURVE",
"761 222 OFFCURVE",
"607 222 CURVE SMOOTH"
);
}
);
width = 1207;
},
{
associatedMasterId = "0DA27741-1AFD-43F2-A947-40AFBF8D6498";
layerId = "A2873047-0ED6-4C67-9B4D-3870B51BD5C6";
width = 1200;
},
{
associatedMasterId = "0DA27741-1AFD-43F2-A947-40AFBF8D6498";
layerId = "55314CA7-5524-4D70-B802-98D4FAE25636";
width = 1170;
},
{
associatedMasterId = "0DA27741-1AFD-43F2-A947-40AFBF8D6498";
layerId = "13A3DD5D-E91B-4961-8595-F8141D3FA442";
width = 1196;
}
);
leftKerningGroup = "be-cy";
leftMetricsKey = o;
rightKerningGroup = o;
rightMetricsKey = b;
unicode = 0431;
},
{
glyphname = "ve-cy";
lastChange = "2020-03-29 06:33:09 +0000";
layers = (
{
layerId = "CAA188E2-8C62-414B-93AE-B576BEB044DB";
paths = (
{
closed = 1;
nodes = (
"624 0 LINE SMOOTH",
"670 0 OFFCURVE",
"736 0 OFFCURVE",
"792 16 CURVE SMOOTH",
"900 46 OFFCURVE",
"980 136 OFFCURVE",
"980 286 CURVE SMOOTH",
"980 382 OFFCURVE",
"948 466 OFFCURVE",
"870 518 CURVE SMOOTH",
"846 534 OFFCURVE",
"822 546 OFFCURVE",
"804 550 CURVE",
"826 562 OFFCURVE",
"852 582 OFFCURVE",
"870 606 CURVE SMOOTH",
"908 654 OFFCURVE",
"928 716 OFFCURVE",
"928 784 CURVE SMOOTH",
"928 912 OFFCURVE",
"856 1028 OFFCURVE",
"724 1062 CURVE SMOOTH",
"660 1078 OFFCURVE",
"582 1080 OFFCURVE",
"554 1080 CURVE SMOOTH",
"140 1080 LINE",
"140 0 LINE"
);
},
{
closed = 1;
nodes = (
"224 498 LINE",
"592 498 LINE SMOOTH",
"622 498 OFFCURVE",
"660 498 OFFCURVE",
"692 494 CURVE SMOOTH",
"814 480 OFFCURVE",
"890 400 OFFCURVE",
"890 286 CURVE SMOOTH",
"890 198 OFFCURVE",
"846 118 OFFCURVE",
"746 96 CURVE SMOOTH",
"708 88 OFFCURVE",
"652 84 OFFCURVE",
"624 84 CURVE SMOOTH",
"224 84 LINE"
);
},
{
closed = 1;
nodes = (
"224 996 LINE",
"564 996 LINE SMOOTH",
"580 996 OFFCURVE",
"652 996 OFFCURVE",
"710 976 CURVE SMOOTH",
"792 948 OFFCURVE",
"838 876 OFFCURVE",
"838 786 CURVE SMOOTH",
"838 704 OFFCURVE",
"798 626 OFFCURVE",
"712 598 CURVE SMOOTH",
"676 586 OFFCURVE",
"624 582 OFFCURVE",
"594 582 CURVE SMOOTH",
"224 582 LINE"
);
}
);
width = 1040;
},
{
layerId = "0DA27741-1AFD-43F2-A947-40AFBF8D6498";
paths = (
{
closed = 1;
nodes = (
"678 0 LINE SMOOTH",
"748 0 OFFCURVE",
"816 6 OFFCURVE",
"864 20 CURVE SMOOTH",
"1004 60 OFFCURVE",
"1074 166 OFFCURVE",
"1074 310 CURVE SMOOTH",
"1074 444 OFFCURVE",
"1012 506 OFFCURVE",
"940 538 CURVE SMOOTH",
"918 548 OFFCURVE",
"890 556 OFFCURVE",
"864 560 CURVE",
"888 566 OFFCURVE",
"912 578 OFFCURVE",
"936 596 CURVE SMOOTH",
"986 634 OFFCURVE",
"1020 690 OFFCURVE",
"1020 786 CURVE SMOOTH",
"1020 948 OFFCURVE",
"922 1028 OFFCURVE",
"824 1058 CURVE SMOOTH",
"784 1070 OFFCURVE",
"724 1080 OFFCURVE",
"644 1080 CURVE SMOOTH",
"138 1080 LINE",
"138 0 LINE"
);
},
{
closed = 1;
nodes = (
"414 434 LINE",
"658 434 LINE SMOOTH",
"676 434 OFFCURVE",
"710 434 OFFCURVE",
"736 422 CURVE SMOOTH",
"766 408 OFFCURVE",
"796 378 OFFCURVE",
"796 322 CURVE SMOOTH",
"796 282 OFFCURVE",
"780 238 OFFCURVE",
"742 222 CURVE SMOOTH",
"718 212 OFFCURVE",
"686 206 OFFCURVE",
"658 206 CURVE SMOOTH",
"414 206 LINE"
);
},
{
closed = 1;
nodes = (
"414 870 LINE",
"580 870 LINE SMOOTH",
"592 870 OFFCURVE",
"648 870 OFFCURVE",
"678 860 CURVE SMOOTH",
"722 846 OFFCURVE",
"740 804 OFFCURVE",
"740 758 CURVE SMOOTH",
"740 714 OFFCURVE",
"722 676 OFFCURVE",
"688 660 CURVE SMOOTH",
"662 648 OFFCURVE",
"622 644 OFFCURVE",
"580 644 CURVE SMOOTH",
"414 644 LINE"
);
}
);
width = 1134;
},
{
associatedMasterId = "0DA27741-1AFD-43F2-A947-40AFBF8D6498";
layerId = "A2873047-0ED6-4C67-9B4D-3870B51BD5C6";
width = 1200;
},
{
associatedMasterId = "0DA27741-1AFD-43F2-A947-40AFBF8D6498";
layerId = "55314CA7-5524-4D70-B802-98D4FAE25636";
width = 1070;
},
{
associatedMasterId = "0DA27741-1AFD-43F2-A947-40AFBF8D6498";
layerId = "13A3DD5D-E91B-4961-8595-F8141D3FA442";
width = 1180;
}
);
leftKerningGroup = n;
leftMetricsKey = n;
rightKerningGroup = ve;
unicode = 0432;
},
{
glyphname = "ge-cy";
lastChange = "2020-02-20 18:21:12 +0000";
layers = (
{
layerId = "CAA188E2-8C62-414B-93AE-B576BEB044DB";
paths = (
{
closed = 1;
nodes = (
"224 0 LINE",
"224 996 LINE",
"860 996 LINE",
"860 1080 LINE",
"140 1080 LINE",
"140 0 LINE"
);
}
);
width = 910;
},
{
layerId = "0DA27741-1AFD-43F2-A947-40AFBF8D6498";
paths = (
{
closed = 1;
nodes = (
"412 0 LINE",
"412 826 LINE",
"920 826 LINE",
"920 1080 LINE",
"140 1080 LINE",
"140 0 LINE"
);
}
);
width = 970;
},
{
associatedMasterId = "0DA27741-1AFD-43F2-A947-40AFBF8D6498";
layerId = "A2873047-0ED6-4C67-9B4D-3870B51BD5C6";
width = 1200;
},
{
associatedMasterId = "0DA27741-1AFD-43F2-A947-40AFBF8D6498";
layerId = "55314CA7-5524-4D70-B802-98D4FAE25636";
width = 838;
},
{
associatedMasterId = "0DA27741-1AFD-43F2-A947-40AFBF8D6498";
layerId = "13A3DD5D-E91B-4961-8595-F8141D3FA442";
width = 1142;
}
);
leftKerningGroup = r;
leftMetricsKey = r;
rightKerningGroup = r;
rightMetricsKey = r;
unicode = 0433;
},
{
glyphname = "gheupturn-cy";
lastChange = "2020-02-20 18:21:12 +0000";
layers = (
{
layerId = "CAA188E2-8C62-414B-93AE-B576BEB044DB";
paths = (
{
closed = 1;
nodes = (
"224 0 LINE",
"224 996 LINE",
"860 996 LINE",
"860 1240 LINE",
"776 1240 LINE",
"776 1080 LINE",
"140 1080 LINE",
"140 0 LINE"
);
}
);
width = 910;
},
{
layerId = "0DA27741-1AFD-43F2-A947-40AFBF8D6498";
paths = (
{
closed = 1;
nodes = (
"412 0 LINE",
"412 826 LINE",
"920 826 LINE",
"920 1320 LINE",
"648 1320 LINE",
"648 1080 LINE",
"140 1080 LINE",
"140 0 LINE"
);
}
);
width = 970;
},
{
associatedMasterId = "0DA27741-1AFD-43F2-A947-40AFBF8D6498";
layerId = "A2873047-0ED6-4C67-9B4D-3870B51BD5C6";
width = 1200;
},
{
associatedMasterId = "0DA27741-1AFD-43F2-A947-40AFBF8D6498";
layerId = "55314CA7-5524-4D70-B802-98D4FAE25636";
width = 788;
},
{
associatedMasterId = "0DA27741-1AFD-43F2-A947-40AFBF8D6498";
layerId = "13A3DD5D-E91B-4961-8595-F8141D3FA442";
width = 1134;
}
);
leftKerningGroup = r;
rightKerningGroup = r;
unicode = 0491;
},
{
glyphname = "de-cy";
lastChange = "2020-02-20 18:21:12 +0000";
layers = (
{
layerId = "CAA188E2-8C62-414B-93AE-B576BEB044DB";
paths = (
{
closed = 1;
nodes = (
"144 -240 LINE",
"144 0 LINE",
"1006 0 LINE",
"1006 -240 LINE",
"1090 -240 LINE",
"1090 84 LINE",
"990 84 LINE",
"990 1080 LINE",
"336 1080 LINE",
"318 674 OFFCURVE",
"304 488 OFFCURVE",
"266 322 CURVE SMOOTH",
"230 162 OFFCURVE",
"186 84 OFFCURVE",
"60 84 CURVE",
"60 -240 LINE"
);
},
{
closed = 1;
nodes = (
"302 122 OFFCURVE",
"322 190 OFFCURVE",
"346 274 CURVE SMOOTH",
"392 436 OFFCURVE",
"410 764 OFFCURVE",
"422 996 CURVE",
"906 996 LINE",
"906 84 LINE",
"260 84 LINE"
);
}
);
width = 1150;
},
{
layerId = "0DA27741-1AFD-43F2-A947-40AFBF8D6498";
paths = (
{
closed = 1;
nodes = (
"316 -240 LINE",
"316 0 LINE",
"974 0 LINE",
"974 -240 LINE",
"1230 -240 LINE",
"1230 210 LINE",
"1120 210 LINE",
"1120 1080 LINE",
"286 1080 LINE",
"276 870 OFFCURVE",
"264 662 OFFCURVE",
"240 484 CURVE SMOOTH",
"212 278 OFFCURVE",
"174 210 OFFCURVE",
"60 210 CURVE",
"60 -240 LINE"
);
},
{
closed = 1;
nodes = (
"462 266 OFFCURVE",
"478 332 OFFCURVE",
"490 450 CURVE SMOOTH",
"502 572 OFFCURVE",
"514 724 OFFCURVE",
"522 870 CURVE",
"848 870 LINE",
"848 210 LINE",
"408 210 LINE"
);
}
);
width = 1290;
},
{
associatedMasterId = "0DA27741-1AFD-43F2-A947-40AFBF8D6498";
layerId = "A2873047-0ED6-4C67-9B4D-3870B51BD5C6";
width = 1200;
},
{
associatedMasterId = "0DA27741-1AFD-43F2-A947-40AFBF8D6498";
layerId = "55314CA7-5524-4D70-B802-98D4FAE25636";
width = 1126;
},
{
associatedMasterId = "0DA27741-1AFD-43F2-A947-40AFBF8D6498";
layerId = "13A3DD5D-E91B-4961-8595-F8141D3FA442";
width = 1188;
}
);
leftKerningGroup = o;
rightKerningGroup = v;
unicode = 0434;
},
{
glyphname = "zhe-cy";
lastChange = "2020-02-20 18:21:12 +0000";
layers = (
{
layerId = "CAA188E2-8C62-414B-93AE-B576BEB044DB";
paths = (
{
closed = 1;
nodes = (
"120 0 LINE",
"612 540 LINE",
"612 0 LINE",
"696 0 LINE",
"696 540 LINE",
"1188 0 LINE",
"1288 0 LINE",
"792 540 LINE",
"1272 1080 LINE",
"1172 1080 LINE",
"696 540 LINE",
"696 1080 LINE",
"612 1080 LINE",
"612 540 LINE",
"136 1080 LINE",
"36 1080 LINE",
"516 540 LINE",
"20 0 LINE"
);
}
);
width = 1308;
},
{
layerId = "0DA27741-1AFD-43F2-A947-40AFBF8D6498";
paths = (
{
closed = 1;
nodes = (
"334 0 LINE",
"668 520 LINE",
"668 0 LINE",
"908 0 LINE",
"908 520 LINE",
"1242 0 LINE",
"1556 0 LINE",
"1180 540 LINE",
"1530 1080 LINE",
"1234 1080 LINE",
"908 560 LINE",
"908 1080 LINE",
"668 1080 LINE",
"668 560 LINE",
"342 1080 LINE",
"46 1080 LINE",
"396 540 LINE",
"20 0 LINE"
);
}
);
width = 1576;
},
{
associatedMasterId = "0DA27741-1AFD-43F2-A947-40AFBF8D6498";
layerId = "A2873047-0ED6-4C67-9B4D-3870B51BD5C6";
width = 1200;
},
{
associatedMasterId = "0DA27741-1AFD-43F2-A947-40AFBF8D6498";
layerId = "55314CA7-5524-4D70-B802-98D4FAE25636";
width = 1490;
},
{
associatedMasterId = "0DA27741-1AFD-43F2-A947-40AFBF8D6498";
layerId = "13A3DD5D-E91B-4961-8595-F8141D3FA442";
width = 1246;
}
);
leftKerningGroup = x;
leftMetricsKey = x;
rightKerningGroup = x;
rightMetricsKey = x;
unicode = 0436;
},
{
glyphname = "ze-cy";
lastChange = "2020-02-20 18:21:12 +0000";
layers = (
{
background = {
paths = (
{
closed = 1;
nodes = (
"176 866 LINE",
"212 912 OFFCURVE",
"250 942 OFFCURVE",
"302 970 CURVE SMOOTH",
"370 1006 OFFCURVE",
"430 1026 OFFCURVE",
"524 1026 CURVE SMOOTH",
"602 1026 OFFCURVE",
"656 1012 OFFCURVE",
"708 980 CURVE SMOOTH",
"782 932 OFFCURVE",
"804 870 OFFCURVE",
"804 808 CURVE SMOOTH",
"804 714 OFFCURVE",
"752 664 OFFCURVE",
"708 638 CURVE SMOOTH",
"654 606 OFFCURVE",
"594 600 OFFCURVE",
"514 600 CURVE",
"374 600 LINE",
"374 518 LINE",
"514 518 LINE",
"594 518 OFFCURVE",
"684 508 OFFCURVE",
"734 482 CURVE SMOOTH",
"794 452 OFFCURVE",
"828 382 OFFCURVE",
"828 302 CURVE SMOOTH",
"828 226 OFFCURVE",
"800 158 OFFCURVE",
"722 106 CURVE SMOOTH",
"664 68 OFFCURVE",
"606 54 OFFCURVE",
"532 54 CURVE SMOOTH",
"408 54 OFFCURVE",
"324 92 OFFCURVE",
"270 128 CURVE SMOOTH",
"200 176 OFFCURVE",
"160 240 OFFCURVE",
"130 298 CURVE",
"60 258 LINE",
"94 192 OFFCURVE",
"136 120 OFFCURVE",
"222 60 CURVE SMOOTH",
"304 2 OFFCURVE",
"404 -30 OFFCURVE",
"536 -30 CURVE SMOOTH",
"628 -30 OFFCURVE",
"690 -14 OFFCURVE",
"756 26 CURVE SMOOTH",
"858 88 OFFCURVE",
"914 182 OFFCURVE",
"914 294 CURVE SMOOTH",
"914 398 OFFCURVE",
"866 520 OFFCURVE",
"754 562 CURVE",
"838 612 OFFCURVE",
"890 692 OFFCURVE",
"890 806 CURVE SMOOTH",
"890 906 OFFCURVE",
"848 994 OFFCURVE",
"752 1054 CURVE SMOOTH",
"678 1100 OFFCURVE",
"612 1110 OFFCURVE",
"532 1110 CURVE SMOOTH",
"410 1110 OFFCURVE",
"332 1086 OFFCURVE",
"264 1050 CURVE SMOOTH",
"196 1014 OFFCURVE",
"146 968 OFFCURVE",
"110 922 CURVE"
);
}
);
};
layerId = "CAA188E2-8C62-414B-93AE-B576BEB044DB";
paths = (
{
closed = 1;
nodes = (
"754 -30 OFFCURVE",
"914 100 OFFCURVE",
"914 292 CURVE SMOOTH",
"914 416 OFFCURVE",
"848 564 OFFCURVE",
"686 576 CURVE",
"698 536 LINE",
"814 580 OFFCURVE",
"890 668 OFFCURVE",
"890 806 CURVE SMOOTH",
"890 992 OFFCURVE",
"742 1110 OFFCURVE",
"534 1110 CURVE SMOOTH",
"352 1110 OFFCURVE",
"210 1048 OFFCURVE",
"110 922 CURVE",
"176 866 LINE",
"252 962 OFFCURVE",
"380 1026 OFFCURVE",
"524 1026 CURVE SMOOTH",
"678 1026 OFFCURVE",
"804 952 OFFCURVE",
"804 804 CURVE SMOOTH",
"804 674 OFFCURVE",
"700 600 OFFCURVE",
"532 600 CURVE SMOOTH",
"374 600 LINE",
"374 518 LINE",
"534 518 LINE SMOOTH",
"754 518 OFFCURVE",
"828 442 OFFCURVE",
"828 300 CURVE SMOOTH",
"828 146 OFFCURVE",
"704 54 OFFCURVE",
"520 54 CURVE SMOOTH",
"344 54 OFFCURVE",
"210 138 OFFCURVE",
"130 298 CURVE",
"60 258 LINE",
"150 76 OFFCURVE",
"306 -30 OFFCURVE",
"532 -30 CURVE SMOOTH"
);
}
);
width = 994;
},
{
background = {
paths = (
{
closed = 1;
nodes = (
"240 754 LINE",
"274 778 OFFCURVE",
"314 802 OFFCURVE",
"346 816 CURVE SMOOTH",
"394 838 OFFCURVE",
"462 858 OFFCURVE",
"522 858 CURVE SMOOTH",
"556 858 OFFCURVE",
"586 852 OFFCURVE",
"608 840 CURVE SMOOTH",
"644 820 OFFCURVE",
"654 790 OFFCURVE",
"654 758 CURVE SMOOTH",
"654 720 OFFCURVE",
"638 678 OFFCURVE",
"562 668 CURVE SMOOTH",
"532 664 OFFCURVE",
"484 662 OFFCURVE",
"452 662 CURVE SMOOTH",
"388 662 LINE",
"388 450 LINE",
"452 450 LINE SMOOTH",
"488 450 OFFCURVE",
"550 452 OFFCURVE",
"582 450 CURVE SMOOTH",
"642 446 OFFCURVE",
"692 410 OFFCURVE",
"692 348 CURVE SMOOTH",
"692 310 OFFCURVE",
"672 272 OFFCURVE",
"630 248 CURVE SMOOTH",
"602 232 OFFCURVE",
"572 224 OFFCURVE",
"528 224 CURVE SMOOTH",
"480 224 OFFCURVE",
"408 234 OFFCURVE",
"350 270 CURVE SMOOTH",
"324 286 OFFCURVE",
"280 322 OFFCURVE",
"254 348 CURVE",
"40 204 LINE",
"76 150 OFFCURVE",
"158 76 OFFCURVE",
"228 38 CURVE SMOOTH",
"302 -2 OFFCURVE",
"402 -30 OFFCURVE",
"522 -30 CURVE SMOOTH",
"606 -30 OFFCURVE",
"716 -16 OFFCURVE",
"812 44 CURVE SMOOTH",
"920 112 OFFCURVE",
"970 210 OFFCURVE",
"970 324 CURVE SMOOTH",
"970 428 OFFCURVE",
"928 512 OFFCURVE",
"858 568 CURVE",
"912 638 OFFCURVE",
"934 710 OFFCURVE",
"934 784 CURVE SMOOTH",
"934 892 OFFCURVE",
"886 980 OFFCURVE",
"804 1034 CURVE SMOOTH",
"722 1090 OFFCURVE",
"602 1110 OFFCURVE",
"520 1110 CURVE SMOOTH",
"434 1110 OFFCURVE",
"352 1088 OFFCURVE",
"282 1058 CURVE SMOOTH",
"200 1022 OFFCURVE",
"148 988 OFFCURVE",
"90 940 CURVE"
);
}
);
};
layerId = "0DA27741-1AFD-43F2-A947-40AFBF8D6498";
paths = (
{
closed = 1;
nodes = (
"762 -30 OFFCURVE",
"970 92 OFFCURVE",
"970 324 CURVE SMOOTH",
"970 450 OFFCURVE",
"908 548 OFFCURVE",
"808 600 CURVE",
"810 514 LINE",
"900 602 OFFCURVE",
"934 690 OFFCURVE",
"934 784 CURVE SMOOTH",
"934 1002 OFFCURVE",
"738 1110 OFFCURVE",
"530 1110 CURVE SMOOTH",
"366 1110 OFFCURVE",
"212 1042 OFFCURVE",
"90 940 CURVE",
"240 754 LINE",
"320 810 OFFCURVE",
"422 858 OFFCURVE",
"518 858 CURVE SMOOTH",
"590 858 OFFCURVE",
"654 832 OFFCURVE",
"654 758 CURVE SMOOTH",
"654 668 OFFCURVE",
"564 662 OFFCURVE",
"452 662 CURVE SMOOTH",
"388 662 LINE",
"388 450 LINE",
"452 450 LINE SMOOTH",
"564 450 OFFCURVE",
"692 464 OFFCURVE",
"692 352 CURVE SMOOTH",
"692 274 OFFCURVE",
"628 224 OFFCURVE",
"520 224 CURVE SMOOTH",
"416 224 OFFCURVE",
"330 270 OFFCURVE",
"254 348 CURVE",
"40 204 LINE",
"138 58 OFFCURVE",
"320 -30 OFFCURVE",
"522 -30 CURVE SMOOTH"
);
}
);
width = 1050;
},
{
associatedMasterId = "0DA27741-1AFD-43F2-A947-40AFBF8D6498";
layerId = "A2873047-0ED6-4C67-9B4D-3870B51BD5C6";
width = 1200;
},
{
associatedMasterId = "0DA27741-1AFD-43F2-A947-40AFBF8D6498";
layerId = "55314CA7-5524-4D70-B802-98D4FAE25636";
width = 902;
},
{
associatedMasterId = "0DA27741-1AFD-43F2-A947-40AFBF8D6498";
layerId = "13A3DD5D-E91B-4961-8595-F8141D3FA442";
width = 1152;
}
);
leftKerningGroup = x;
rightKerningGroup = "ze-cy";
rightMetricsKey = o;
unicode = 0437;
},
{
glyphname = "ii-cy";
lastChange = "2020-02-20 18:21:12 +0000";
layers = (
{
layerId = "CAA188E2-8C62-414B-93AE-B576BEB044DB";
paths = (
{
closed = 1;
nodes = (
"868 1080 LINE",
"224 148 LINE",
"224 1080 LINE",
"140 1080 LINE",
"140 0 LINE",
"218 0 LINE",
"862 932 LINE",
"862 0 LINE",
"946 0 LINE",
"946 1080 LINE"
);
}
);
width = 1086;
},
{
layerId = "0DA27741-1AFD-43F2-A947-40AFBF8D6498";
paths = (
{
closed = 1;
nodes = (
"888 1080 LINE",
"398 442 LINE",
"398 1080 LINE",
"138 1080 LINE",
"138 0 LINE",
"354 0 LINE",
"842 660 LINE",
"842 0 LINE",
"1102 0 LINE",
"1102 1080 LINE"
);
}
);
width = 1242;
},
{
associatedMasterId = "0DA27741-1AFD-43F2-A947-40AFBF8D6498";
layerId = "A2873047-0ED6-4C67-9B4D-3870B51BD5C6";
width = 1200;
},
{
associatedMasterId = "0DA27741-1AFD-43F2-A947-40AFBF8D6498";
layerId = "55314CA7-5524-4D70-B802-98D4FAE25636";
width = 1176;
},
{
associatedMasterId = "0DA27741-1AFD-43F2-A947-40AFBF8D6498";
layerId = "13A3DD5D-E91B-4961-8595-F8141D3FA442";
width = 1196;
}
);
leftKerningGroup = n;
leftMetricsKey = n;
rightKerningGroup = u;
rightMetricsKey = u;
unicode = 0438;
},
{
glyphname = "ka-cy";
lastChange = "2020-02-20 18:21:12 +0000";
layers = (
{
layerId = "CAA188E2-8C62-414B-93AE-B576BEB044DB";
paths = (
{
closed = 1;
nodes = (
"224 0 LINE",
"224 520 LINE",
"832 0 LINE",
"976 0 LINE",
"326 540 LINE",
"890 1080 LINE",
"764 1080 LINE",
"224 560 LINE",
"224 1080 LINE",
"140 1080 LINE",
"140 0 LINE"
);
}
);
width = 936;
},
{
layerId = "0DA27741-1AFD-43F2-A947-40AFBF8D6498";
paths = (
{
closed = 1;
nodes = (
"416 0 LINE",
"416 520 LINE",
"790 0 LINE",
"1144 0 LINE",
"728 540 LINE",
"1118 1080 LINE",
"782 1080 LINE",
"416 560 LINE",
"416 1080 LINE",
"140 1080 LINE",
"138 0 LINE"
);
}
);
width = 1104;
},
{
associatedMasterId = "0DA27741-1AFD-43F2-A947-40AFBF8D6498";
layerId = "A2873047-0ED6-4C67-9B4D-3870B51BD5C6";
width = 1200;
},
{
associatedMasterId = "0DA27741-1AFD-43F2-A947-40AFBF8D6498";
layerId = "55314CA7-5524-4D70-B802-98D4FAE25636";
width = 846;
},
{
associatedMasterId = "0DA27741-1AFD-43F2-A947-40AFBF8D6498";
layerId = "13A3DD5D-E91B-4961-8595-F8141D3FA442";
width = 1144;
}
);
leftKerningGroup = k;
leftMetricsKey = k;
rightKerningGroup = k;
rightMetricsKey = k;
unicode = 043A;
},
{
glyphname = "el-cy";
lastChange = "2020-02-20 18:21:12 +0000";
layers = (
{
layerId = "CAA188E2-8C62-414B-93AE-B576BEB044DB";
paths = (
{
closed = 1;
nodes = (
"216 -30 OFFCURVE",
"248 32 OFFCURVE",
"276 172 CURVE SMOOTH",
"310 340 OFFCURVE",
"340 642 OFFCURVE",
"364 996 CURVE",
"888 996 LINE",
"888 0 LINE",
"972 0 LINE",
"972 1080 LINE",
"278 1080 LINE",
"254 692 OFFCURVE",
"234 450 OFFCURVE",
"200 244 CURVE SMOOTH",
"182 132 OFFCURVE",
"162 58 OFFCURVE",
"40 80 CURVE",
"40 0 LINE"
);
}
);
width = 1112;
},
{
layerId = "0DA27741-1AFD-43F2-A947-40AFBF8D6498";
paths = (
{
closed = 1;
nodes = (
"300 -60 OFFCURVE",
"404 30 OFFCURVE",
"452 284 CURVE SMOOTH",
"478 418 OFFCURVE",
"500 686 OFFCURVE",
"512 826 CURVE",
"818 826 LINE",
"818 0 LINE",
"1090 0 LINE",
"1090 1080 LINE",
"274 1080 LINE",
"260 826 OFFCURVE",
"240 552 OFFCURVE",
"208 380 CURVE SMOOTH",
"184 250 OFFCURVE",
"158 204 OFFCURVE",
"40 226 CURVE",
"40 0 LINE"
);
}
);
width = 1230;
},
{
associatedMasterId = "0DA27741-1AFD-43F2-A947-40AFBF8D6498";
layerId = "A2873047-0ED6-4C67-9B4D-3870B51BD5C6";
width = 1200;
},
{
associatedMasterId = "0DA27741-1AFD-43F2-A947-40AFBF8D6498";
layerId = "55314CA7-5524-4D70-B802-98D4FAE25636";
width = 1100;
},
{
associatedMasterId = "0DA27741-1AFD-43F2-A947-40AFBF8D6498";
layerId = "13A3DD5D-E91B-4961-8595-F8141D3FA442";
width = 1184;
}
);
leftKerningGroup = o;
rightKerningGroup = u;
rightMetricsKey = u;
unicode = 043B;
},
{
glyphname = "em-cy";
lastChange = "2020-02-20 18:21:12 +0000";
layers = (
{
layerId = "CAA188E2-8C62-414B-93AE-B576BEB044DB";
paths = (
{
closed = 1;
nodes = (
"224 0 LINE",
"224 880 LINE",
"624 0 LINE",
"716 0 LINE",
"1116 880 LINE",
"1116 0 LINE",
"1200 0 LINE",
"1200 1080 LINE",
"1114 1080 LINE",
"670 104 LINE",
"226 1080 LINE",
"140 1080 LINE",
"140 0 LINE"
);
}
);
width = 1340;
},
{
layerId = "0DA27741-1AFD-43F2-A947-40AFBF8D6498";
paths = (
{
closed = 1;
nodes = (
"398 0 LINE",
"398 538 LINE",
"686 0 LINE",
"782 0 LINE",
"1070 538 LINE",
"1070 0 LINE",
"1330 0 LINE",
"1330 1080 LINE",
"1110 1080 LINE",
"734 380 LINE",
"358 1080 LINE",
"138 1080 LINE",
"138 0 LINE"
);
}
);
width = 1470;
},
{
associatedMasterId = "0DA27741-1AFD-43F2-A947-40AFBF8D6498";
layerId = "A2873047-0ED6-4C67-9B4D-3870B51BD5C6";
width = 1200;
},
{
associatedMasterId = "0DA27741-1AFD-43F2-A947-40AFBF8D6498";
layerId = "55314CA7-5524-4D70-B802-98D4FAE25636";
width = 1382;
},
{
associatedMasterId = "0DA27741-1AFD-43F2-A947-40AFBF8D6498";
layerId = "13A3DD5D-E91B-4961-8595-F8141D3FA442";
width = 1230;
}
);
leftKerningGroup = m;
leftMetricsKey = m;
rightKerningGroup = u;
rightMetricsKey = u;
unicode = 043C;
},
